<?xml version="1.0" encoding="UTF-8"?>
<!-- Generator: Adobe Illustrator 24.2.0, SVG Export Plug-In . SVG Version: 6.00 Build 0)  -->
<svg version="1.1" id="Layer_1" xmlns="http://www.w3.org/2000/svg" xmlns:xlink="http://www.w3.org/1999/xlink" x="0px" y="0px" viewBox="0 0 520 118" style="enable-background:new 0 0 520 118;" xml:space="preserve">
<style type="text/css">
	.st0{fill:#0082CA;}
	.st1{fill:#00B2E3;}
	.st2{fill:#3DAE2B;}
	.st3{fill:#93D500;}
	.st4{fill:#58595B;}
</style>
<g>
	<g>
		<path class="st0" d="M24.7,72c2.8,3,6.1,5.5,9.8,6.5c11.1,3,20.6-4.1,20.6-4.1s-10.3-6.1-15.2-13.2c-1.2-1.8-2.3-3.4-3.3-4.8    C30.6,61.1,25.6,70.2,24.7,72z"/>
		<path class="st1" d="M54.4,11.5c-2.9,5.6-5,9.6-11.1,15.6c-3.4,3.4-11.8,7.9-17.8,14.1c-3.1,3.2-5.6,6.8-6.5,10.8    c-1.6,7.6,1.2,14.2,3.6,17.7c0.7,1,1.3,1.6,2,2.3c1-1.8,5.9-10.9,12-15.6c0,0,0,0,0.1,0c8-6.2,12.5-9.5,14.3-11.2    c3.5-3.2,8.4-6.4,10.3-15.6C63.3,20.5,54.4,11.5,54.4,11.5z"/>
	</g>
	<g>
		<path class="st2" d="M82.1,47c-2.8-3-6.1-5.5-9.8-6.5c-11.1-3-20.6,4.1-20.6,4.1S62,50.7,66.9,57.8c1.2,1.8,2.3,3.4,3.3,4.8    C76.2,57.8,81.2,48.8,82.1,47z"/>
		<path class="st3" d="M84.1,49.3c-0.7-1-1.3-1.6-2-2.3c-1,1.8-5.9,10.9-12,15.6c0,0,0,0-0.1,0c-8,6.2-12.5,9.5-14.3,11.2    c-3.5,3.2-8.4,6.4-10.3,15.6c-1.9,9,6.9,18.1,6.9,18.1c2.9-5.6,5-9.6,11.1-15.6c3.4-3.4,11.8-7.9,17.8-14.1    c3.1-3.2,5.6-6.8,6.5-10.8C89.3,59.4,86.5,52.8,84.1,49.3z"/>
	</g>
</g>
<g>
	<path class="st4" d="M129.9,40.5l-1.8,2c-2.7-2.3-5-3.4-8.5-3.4c-7.4,0-13.4,5.7-13.4,21.8c0,15.3,5.8,21.7,13.3,21.7   c4.3,0,6.7-1.7,9-3.8l1.9,2.1c-2.6,2.7-6,4.8-10.9,4.8c-9.5,0-16.7-8.1-16.7-24.7c0-17.1,7.5-24.6,16.7-24.6   C124,36.2,127,37.8,129.9,40.5z"/>
	<path class="st4" d="M156.6,83.3l-0.7,2.2c-2.9-0.8-4.3-2.5-4.6-6.2c-2.3,4.1-5.5,6.2-9.8,6.2c-6.1,0-9.8-4.4-9.8-10.9   c0-7.6,5-11.7,13.4-11.7h5.7v-4.3c0-5.5-2-8.4-7.1-8.4c-2.9,0-5.7,0.8-8.8,2.1l-0.8-2.4c3.3-1.5,6.4-2.4,9.8-2.4   c6.9,0,10.1,4,10.1,10.9v19.4C154.1,81.2,154.9,82.5,156.6,83.3z M150.9,75.9V65.4h-5.4c-6.9,0-10.4,3-10.4,9.2   c0,5.5,2.7,8.3,6.9,8.3S149,80.3,150.9,75.9z"/>
	<path class="st4" d="M178.6,48l-0.6,2.9c-0.8-0.2-1.7-0.4-2.7-0.4c-4.5,0-6.9,3.8-8.7,11.1v23.2h-3.2V48.2h2.7l0.2,7.9   c1.8-5.8,4.6-8.6,9.1-8.6C176.9,47.5,177.9,47.8,178.6,48z"/>
	<path class="st4" d="M204.4,67.9h-21.3c0.3,10.9,4.5,14.8,10.1,14.8c3.6,0,5.9-1.3,8.5-3.6l1.5,1.9c-2.9,2.8-6,4.5-10.2,4.5   c-8.1,0-13.3-6.4-13.3-18.8s5-19.3,12.7-19.3c7.8,0,12,6.4,12,17.5C204.5,66.2,204.5,67.2,204.4,67.9z M201.4,64   c0-8.8-2.8-13.7-8.9-13.7c-5.1,0-9.2,4-9.5,15.1h18.3V64z"/>
	<path class="st4" d="M236,51.1c0,10.4-6.4,14.6-16.8,14.6h-4.6v19h-3.2V36.9h8C230.4,36.9,236,41.5,236,51.1z M232.6,51.2   c0-8.3-4.3-11.5-13.2-11.5h-4.8v23.2h4.7C227.7,62.9,232.6,60.1,232.6,51.2z"/>
	<path class="st4" d="M265.4,66.4c0,12.4-5.1,19.2-13.2,19.2c-8.2,0-13.2-6.8-13.2-19c0-12.5,5.2-19,13.2-19   C260.4,47.5,265.4,53.8,265.4,66.4z M242.3,66.6c0,11.1,3.7,16.2,9.9,16.2c6.2,0,9.9-5,9.9-16.4c0-11.1-3.6-16.1-9.9-16.1   C246.1,50.3,242.3,55.2,242.3,66.6z"/>
	<path class="st4" d="M276.2,35.2c0,1.3-0.9,2.4-2.4,2.4c-1.4,0-2.4-1.1-2.4-2.4c0-1.3,1-2.4,2.4-2.4   C275.3,32.8,276.2,33.9,276.2,35.2z M275.4,84.8h-3.2V48.2h3.2V84.8z"/>
	<path class="st4" d="M306.5,58.7v26h-3.2V59.2c0-6.2-2-9-6-9c-4.3,0-7.4,3.3-10.2,8.1v26.5H284V48.2h2.7l0.3,6.6   c2.7-4.3,5.9-7.3,10.9-7.3C303.5,47.5,306.5,51.6,306.5,58.7z"/>
	<path class="st4" d="M329.8,83.3c-1.8,1.4-4,2.2-6.6,2.2c-4.7,0-7.6-3.1-7.6-8.3V50.9h-5.2v-2.7h5.2v-8.9l3.2-0.4v9.2h8.3l-0.4,2.7   h-7.8v26.3c0,3.5,1.5,5.6,4.8,5.6c1.9,0,3.4-0.6,4.9-1.5L329.8,83.3z"/>
</g>
<g>
	<g>
		<path class="st4" d="M370.9,61h-20.2v23.8h-3.2V36.9h3.2v21.3h20.2V36.9h3.2v47.9h-3.2V61z"/>
		<path class="st4" d="M405.9,67.9h-21.3c0.3,10.9,4.5,14.8,10.1,14.8c3.6,0,5.9-1.3,8.5-3.6l1.5,1.9c-2.9,2.8-6,4.5-10.2,4.5    c-8.1,0-13.3-6.4-13.3-18.8s5-19.3,12.7-19.3c7.8,0,12,6.4,12,17.5C406.1,66.2,406,67.2,405.9,67.9z M403,64    c0-8.8-2.8-13.7-8.9-13.7c-5.1,0-9.2,4-9.5,15.1H403V64z"/>
		<path class="st4" d="M434.5,83.3l-0.7,2.2c-2.9-0.8-4.3-2.5-4.6-6.2c-2.3,4.1-5.5,6.2-9.8,6.2c-6.1,0-9.8-4.4-9.8-10.9    c0-7.6,5-11.7,13.4-11.7h5.7v-4.3c0-5.5-2-8.4-7.1-8.4c-2.9,0-5.7,0.8-8.8,2.1l-0.8-2.4c3.3-1.5,6.4-2.4,9.8-2.4    c6.9,0,10.1,4,10.1,10.9v19.4C432,81.2,432.8,82.5,434.5,83.3z M428.8,75.9V65.4h-5.4c-6.9,0-10.4,3-10.4,9.2    c0,5.5,2.7,8.3,6.9,8.3C424,82.9,426.9,80.3,428.8,75.9z"/>
		<path class="st4" d="M441.1,79.6V33.3l3.2-0.4v46.6c0,2.1,0.8,3.2,2.7,3.2c0.8,0,1.5-0.2,2.2-0.4l0.8,2.3    c-0.9,0.5-2.2,0.9-3.4,0.9C443.3,85.6,441.1,83.5,441.1,79.6z"/>
		<path class="st4" d="M469,83.3c-1.8,1.4-4,2.2-6.6,2.2c-4.7,0-7.6-3.1-7.6-8.3V50.9h-5.2v-2.7h5.2v-8.9L458,39v9.2h8.3l-0.4,2.7    H458v26.3c0,3.5,1.5,5.6,4.8,5.6c1.9,0,3.4-0.6,4.9-1.5L469,83.3z"/>
		<path class="st4" d="M494.3,58.7v26h-3.2V59.2c0-6.2-2-9-6-9c-4.3,0-7.4,3.3-10.2,8.1v26.5h-3.2V33.3l3.2-0.4v21.8    c2.6-4.3,5.8-7.2,10.7-7.2C491.2,47.5,494.3,51.7,494.3,58.7z"/>
	</g>
</g>
<g>
	<path class="st4" d="M496.8,51.2c0-0.8,0.2-1.5,0.5-2.2s0.9-1.2,1.5-1.6s1.3-0.6,2.1-0.6s1.4,0.2,2.1,0.6s1.2,0.9,1.5,1.6   s0.5,1.4,0.5,2.2c0,0.8-0.2,1.5-0.5,2.2s-0.9,1.2-1.5,1.6s-1.4,0.6-2.1,0.6s-1.5-0.2-2.1-0.6s-1.1-0.9-1.5-1.6S496.8,52,496.8,51.2   z M497.3,51.2c0,0.7,0.2,1.4,0.5,2s0.8,1.1,1.3,1.4c0.6,0.3,1.2,0.5,1.8,0.5s1.3-0.2,1.8-0.5c0.6-0.3,1-0.8,1.3-1.4   s0.5-1.3,0.5-1.9c0-0.7-0.2-1.3-0.5-1.9s-0.8-1.1-1.3-1.4s-1.2-0.5-1.9-0.5c-0.7,0-1.3,0.2-1.8,0.5s-1,0.8-1.3,1.4   S497.3,50.5,497.3,51.2z M500.1,51.6v2h-0.6v-4.9h1.5c0.6,0,1,0.1,1.3,0.4c0.3,0.2,0.5,0.6,0.5,1.1c0,0.5-0.3,0.9-0.8,1.2   c0.3,0.1,0.5,0.3,0.6,0.5c0.1,0.2,0.2,0.5,0.2,0.8c0,0.3,0,0.5,0,0.6s0,0.2,0.1,0.3v0.1h-0.6c-0.1-0.1-0.1-0.5-0.1-1.1   c0-0.3-0.1-0.6-0.2-0.7s-0.4-0.2-0.7-0.2H500.1z M500.1,51h1.1c0.3,0,0.6-0.1,0.8-0.2s0.3-0.4,0.3-0.7c0-0.3-0.1-0.6-0.3-0.7   s-0.5-0.2-0.9-0.2h-1V51z"/>
</g>
</svg>