<?xml version="1.0" encoding="UTF-8"?>
<!-- Generator: Adobe Illustrator 22.0.1, SVG Export Plug-In . SVG Version: 6.00 Build 0)  -->
<svg version="1.1" xmlns="http://www.w3.org/2000/svg" xmlns:xlink="http://www.w3.org/1999/xlink" x="0px" y="0px" viewBox="0 0 437.9 141.6" style="enable-background:new 0 0 437.9 141.6;" xml:space="preserve">
<style type="text/css">
	.st0{display:none;}
	.st1{display:inline;}
	.st2{font-family:'StempelGaramond-RomanOsF';}
	.st3{font-size:26px;}
	.st4{font-size:51.1904px;}
	.st5{font-family:'StempelGaramond-ItalicOsF';}
	.st6{fill:#002856;}
	.st7{display:inline;fill:#FFFFFF;}
	.st8{font-family:'Poppins-Regular';}
	.st9{font-size:18px;}
	.st10{letter-spacing:1;}
	.st11{fill:#FFFFFF;}
	.st12{fill:#FFFFFF;stroke:#231F20;stroke-width:0.425;}
	.st13{fill:none;}
	.st14{display:inline;fill:none;stroke:#231F20;stroke-width:0.5;}
</style>
<g id="guides">
</g>
<g id="Stempel_Garamond_RomanOsF" class="st0">
	<text transform="matrix(1 0 0 1 -0.4051 126.2131)" class="st1 st2 st3">Early Learning Centers Of Excellence</text>
	<text transform="matrix(1 0 0 1 3.7439 45.8875)" class="st1"><tspan x="0" y="0" class="st2 st4">Crème </tspan><tspan x="147.6" y="0" class="st5 st4">de la</tspan><tspan x="246.6" y="0" class="st2 st4"> Crème</tspan></text>
</g>
<g id="Stempel_Garamond_RomanOsF_copy">
	<g>
		<path d="M3.5,110.6c0-0.4-0.1-0.7-0.2-1c-0.1-0.3-0.3-0.4-0.6-0.6c-0.3-0.1-0.5-0.2-0.9-0.2c-0.3,0-0.7-0.1-1.1-0.1    c-0.1,0-0.1,0-0.1-0.1c0-0.1,0-0.1,0-0.2v-0.3c0-0.1,0.1-0.2,0.3-0.2c0.2,0,0.6,0,1,0c0.5,0,1.1,0,1.6,0.1c0.6,0,1.1,0.1,1.7,0.1    c0.5,0,1,0,1.6-0.1c0.5,0,1-0.1,1.6-0.1h5.5c0.1,0,0.2,0.1,0.2,0.2c0,0.1,0,0.2,0,0.4v3.2c0,0.1-0.1,0.2-0.2,0.2    c-0.1,0-0.2,0-0.4,0c-0.2,0-0.2-0.1-0.3-0.3l-0.1-0.8c0-0.4-0.1-0.8-0.3-1c-0.2-0.3-0.4-0.5-0.6-0.6s-0.5-0.2-0.8-0.3    c-0.3,0-0.7-0.1-1-0.1H7.8c-0.4,0-0.7,0-0.9,0.1c-0.2,0.1-0.4,0.2-0.6,0.3c-0.2,0.2-0.3,0.4-0.3,0.7c-0.1,0.3-0.1,0.7-0.1,1.2v4.7    c0,0,0,0.1,0.1,0.1C6,116,6,116.1,6,116.1l3.1-0.1c0.4,0,0.7,0,1-0.1c0.3-0.1,0.5-0.2,0.7-0.3c0.2-0.1,0.3-0.3,0.4-0.6    c0.1-0.2,0.2-0.5,0.3-0.9c0-0.1,0.1-0.1,0.1-0.2c0.1,0,0.1,0,0.3,0c0.2,0,0.3,0.1,0.3,0.2c0,0.3,0,0.7-0.1,1.2    c-0.1,0.5-0.1,1-0.1,1.4c0,0.7,0,1.3,0.1,1.7c0.1,0.4,0.1,0.7,0.1,0.9c0,0.1,0,0.2-0.1,0.2c-0.1,0.1-0.2,0.1-0.3,0.1    c-0.2,0-0.4-0.1-0.4-0.3c-0.1-0.3-0.1-0.6-0.1-0.9c0-0.3-0.1-0.5-0.1-0.7c-0.1-0.2-0.2-0.3-0.4-0.4c-0.2-0.1-0.5-0.2-0.9-0.2    l-3.7-0.1c-0.2,0-0.3,0-0.3,0.1c0,0.1,0,0.1,0,0.2v6.2c0,0.5,0.1,0.8,0.2,1.1s0.4,0.5,0.7,0.6s0.6,0.2,1,0.2c0.4,0,0.8,0,1.2,0    h1.4c0.7,0,1.3,0,1.8-0.1c0.5,0,0.9-0.2,1.2-0.4c0.1-0.1,0.3-0.2,0.5-0.5c0.2-0.2,0.3-0.5,0.5-0.7c0.2-0.3,0.3-0.5,0.4-0.8    s0.2-0.5,0.3-0.6c0.2,0,0.3,0,0.5,0.1c0.2,0,0.3,0.1,0.3,0.2c0,0,0,0.1,0,0.2s-0.1,0.2-0.1,0.2l-0.7,2.6c-0.1,0.3-0.2,0.6-0.3,0.6    c-0.1,0.1-0.2,0.1-0.4,0.1c-0.7,0-1.4,0-2.1,0c-0.7,0-1.4,0-2.2,0c-0.8,0-1.5,0-2.4,0c-0.8,0-1.7,0-2.7,0c-0.2,0-0.5,0-0.9,0    c-0.4,0-0.7,0-1.2,0c-0.4,0-0.8,0-1.2,0c-0.4,0-0.8,0-1.1,0c0,0-0.1,0-0.1-0.1c0-0.1-0.1-0.2-0.1-0.3c0-0.1,0-0.2,0-0.3    c0-0.1,0.1-0.1,0.1-0.1c0.6,0,1-0.1,1.4-0.1c0.4-0.1,0.7-0.2,0.9-0.4c0.2-0.2,0.4-0.5,0.5-0.8c0.1-0.4,0.1-0.8,0.1-1.4V110.6z"/>
		<path d="M24.1,118.9c0-0.4,0-0.7-0.1-1c0-0.3-0.1-0.6-0.3-0.8c-0.1-0.2-0.4-0.4-0.6-0.5s-0.6-0.2-1.1-0.2c-0.2,0-0.4,0-0.6,0    c-0.2,0-0.4,0.1-0.7,0.2s-0.4,0.2-0.5,0.3s-0.2,0.3-0.2,0.5c0,0.2,0,0.4,0.1,0.6l-1.6,0.9c0-0.1-0.1-0.2-0.1-0.4    c0-0.1-0.1-0.3-0.1-0.4c0-0.2,0-0.4,0.1-0.6c0.1-0.2,0.2-0.3,0.3-0.5c0.1-0.1,0.3-0.3,0.4-0.4c0.2-0.1,0.3-0.2,0.4-0.3l2.3-1.4    c0.3-0.2,0.5-0.3,0.5-0.3c2.2,0,3.3,1.1,3.3,3.2v5.5c0,0.1,0,0.3,0,0.5c0,0.2,0,0.4,0.1,0.5c0.1,0.2,0.1,0.3,0.2,0.4    s0.3,0.2,0.5,0.2c0.2,0,0.4-0.1,0.5-0.2c0.1-0.1,0.2-0.3,0.4-0.6l0.5,0.2c-0.2,0.6-0.4,1.2-0.7,1.6c-0.3,0.4-0.8,0.7-1.3,0.7    c-0.4,0-0.8-0.1-1-0.3c-0.2-0.2-0.4-0.4-0.6-0.6c-0.1-0.3-0.2-0.5-0.2-0.8s-0.1-0.5-0.1-0.6c-0.2,0.3-0.5,0.5-0.8,0.8    s-0.6,0.5-0.9,0.7c-0.3,0.2-0.7,0.4-1,0.5c-0.4,0.1-0.7,0.2-1.1,0.2s-0.7-0.1-1-0.3c-0.3-0.2-0.5-0.5-0.7-0.8    c-0.2-0.3-0.3-0.7-0.4-1c-0.1-0.4-0.1-0.7-0.1-1c0-0.1,0-0.2,0.1-0.4c0.1-0.2,0.2-0.3,0.4-0.5c0.2-0.2,0.5-0.4,0.8-0.6    s0.8-0.4,1.3-0.6l3.4-1.3V118.9z M24.1,120.9l-2.6,1.2c-0.1,0-0.2,0.1-0.4,0.2c-0.1,0.1-0.3,0.2-0.4,0.3c-0.1,0.1-0.3,0.2-0.4,0.4    c-0.1,0.1-0.2,0.3-0.2,0.5c0,0.2,0,0.4,0.1,0.6c0,0.2,0.1,0.5,0.2,0.7s0.2,0.4,0.4,0.5c0.2,0.1,0.3,0.2,0.5,0.2    c0.2,0,0.5-0.1,0.7-0.2c0.2-0.1,0.4-0.2,0.6-0.4s0.4-0.3,0.6-0.5c0.2-0.2,0.4-0.4,0.5-0.5l0.2-0.2V120.9z"/>
		<path d="M33.2,123.6c0,0.3,0,0.5,0,0.8c0,0.2,0.1,0.5,0.2,0.7c0.1,0.2,0.3,0.3,0.6,0.5c0.3,0.1,0.6,0.2,1.1,0.2    c0.1,0,0.2,0.1,0.2,0.4c0,0.1,0,0.2,0,0.3c0,0.1-0.1,0.1-0.2,0.1c-0.5,0-0.9,0-1.4-0.1c-0.5,0-0.9-0.1-1.4-0.1c-0.5,0-1,0-1.5,0.1    c-0.5,0-1,0.1-1.5,0.1c-0.1,0-0.1-0.1-0.1-0.2v-0.2c0-0.1,0-0.2,0.1-0.2c0.1,0,0.2,0,0.5-0.1c0.6,0,0.9-0.2,1.1-0.4    c0.2-0.3,0.2-0.7,0.2-1.4v-5.8c0-0.5-0.3-0.8-0.8-1c0,0-0.1,0-0.2,0c-0.1,0-0.2-0.1-0.3-0.1c-0.1-0.1-0.2-0.1-0.2-0.2    c-0.1-0.1-0.1-0.1-0.1-0.2s0-0.2,0.1-0.2c0.1,0,0.1-0.1,0.3-0.2l1.9-0.9c0.3-0.1,0.5-0.3,0.7-0.3s0.3-0.1,0.4-0.1    c0.1,0,0.1,0,0.2,0.1c0,0.1,0,0.1,0,0.1l-0.1,2.7l0.1,0.1c0.2-0.3,0.4-0.6,0.7-0.9c0.3-0.3,0.5-0.7,0.8-1c0.3-0.3,0.6-0.6,1-0.8    c0.3-0.2,0.7-0.3,1.1-0.3c0.5,0,0.8,0.1,1.1,0.3c0.3,0.2,0.4,0.6,0.4,1.1c0,0.3-0.1,0.5-0.3,0.7c-0.2,0.2-0.5,0.3-0.7,0.3    c-0.2,0-0.3,0-0.5-0.1l-0.4-0.2c-0.1-0.1-0.3-0.1-0.4-0.2c-0.1-0.1-0.3-0.1-0.5-0.1c-0.2,0-0.3,0-0.5,0.1s-0.3,0.2-0.5,0.4    s-0.3,0.3-0.5,0.5c-0.2,0.2-0.3,0.4-0.4,0.5l-0.4,0.5V123.6z"/>
		<path d="M43.4,124.4c0,0.1,0,0.3,0,0.4c0,0.1,0.1,0.3,0.2,0.4s0.3,0.2,0.5,0.3c0.2,0.1,0.6,0.1,1,0.1c0,0,0.1,0.1,0.1,0.4    c0,0.2,0,0.4-0.1,0.4c-0.5,0-1,0-1.5-0.1c-0.5,0-0.9-0.1-1.2-0.1c-0.5,0-0.9,0-1.4,0.1c-0.5,0-0.9,0.1-1.4,0.1    c-0.2,0-0.2-0.1-0.2-0.2v-0.2c0-0.2,0-0.2,0.1-0.3c0.1,0,0.2,0,0.4,0c0.6,0,1-0.1,1.2-0.2s0.4-0.5,0.4-1.1v-14c0-0.4,0-0.7,0-1    c0-0.2,0-0.4-0.1-0.6c-0.1-0.1-0.2-0.3-0.3-0.3s-0.3-0.2-0.6-0.3c-0.2-0.1-0.4-0.2-0.5-0.2c-0.2-0.1-0.2-0.2-0.2-0.3    c0-0.1,0.1-0.2,0.3-0.3c0.2-0.1,0.5-0.2,1.1-0.4l1.9-0.7c0,0,0.1,0,0.2-0.1c0.1,0,0.2-0.1,0.2-0.1c0.1,0,0.1,0,0.2,0.1    c0,0.1,0,0.2,0,0.3c0,0.6,0,1.3,0,1.9c0,0.6,0,1.3,0,1.9V124.4z"/>
		<path d="M49,117.7c-0.2-0.4-0.3-0.8-0.4-1c-0.1-0.3-0.2-0.4-0.4-0.6c-0.2-0.1-0.4-0.2-0.6-0.3c-0.3-0.1-0.6-0.1-1.1-0.1    c-0.1,0-0.2-0.1-0.2-0.4c0-0.1,0-0.2,0-0.2c0-0.1,0.1-0.1,0.2-0.1c0.4,0,0.8,0,1.3,0.1c0.4,0,0.8,0.1,1.3,0.1c0.4,0,0.8,0,1.2-0.1    s0.8-0.1,1.2-0.1c0.2,0,0.5,0,0.8,0c0.3,0,0.4,0.1,0.4,0.2v0.2c0,0.2,0,0.3-0.1,0.3c-0.1,0-0.1,0.1-0.2,0.1c-0.1,0-0.2,0-0.3,0    c-0.1,0-0.3,0-0.4,0c-0.1,0-0.3,0-0.5,0.1c-0.2,0.1-0.3,0.2-0.3,0.4c0,0.1,0.1,0.4,0.2,0.6l2.6,6.8h0.1l2.1-4.8    c0.3-0.6,0.5-1.1,0.7-1.5s0.3-0.7,0.3-0.8c0-0.3-0.1-0.5-0.3-0.7s-0.4-0.2-0.7-0.2H55c-0.1,0-0.2-0.1-0.2-0.4    c0-0.2,0.1-0.4,0.2-0.4c0.5,0,0.9,0,1.3,0.1c0.4,0,0.7,0.1,0.8,0.1c0.4,0,0.9,0,1.3-0.1c0.5,0,0.9-0.1,1.4-0.1    c0.1,0,0.1,0,0.1,0.1c0,0.1,0,0.2,0,0.2s0,0.2,0,0.2c0,0.1-0.1,0.1-0.1,0.1c-0.4,0-0.7,0-0.9,0.1s-0.5,0.2-0.7,0.4    c-0.2,0.2-0.4,0.4-0.6,0.7c-0.2,0.3-0.4,0.7-0.6,1.2l-2.9,6.3c-0.5,1.1-1,2.2-1.5,3.3c-0.5,1.1-1,2.1-1.6,3.2    c-0.2,0.4-0.4,0.7-0.6,1c-0.2,0.3-0.4,0.5-0.6,0.7s-0.4,0.4-0.6,0.5c-0.2,0.1-0.5,0.2-0.8,0.2c-0.3,0-0.5-0.1-0.8-0.3    s-0.3-0.5-0.3-0.8c0-0.2,0.1-0.5,0.2-0.8c0.1-0.3,0.4-0.4,0.6-0.4c0.2,0,0.3,0,0.5,0.1c0.1,0.1,0.2,0.1,0.3,0.1    c0.2,0,0.5-0.1,0.7-0.2c0.2-0.2,0.5-0.4,0.8-0.8c0.3-0.4,0.6-0.9,0.9-1.5c0.3-0.6,0.6-1.4,1-2.4L49,117.7z"/>
		<path d="M70.8,111.6c0-0.5,0-0.9-0.1-1.3s-0.1-0.6-0.3-0.9s-0.4-0.4-0.7-0.5c-0.3-0.1-0.7-0.2-1.3-0.2c-0.2,0-0.3,0-0.3-0.1    c-0.1-0.1-0.1-0.2-0.1-0.3c0-0.2,0-0.4,0.1-0.4c0.1,0,0.3-0.1,0.5-0.1c0.5,0,1,0,1.5,0.1c0.5,0,1,0.1,1.5,0.1c0.7,0,1.4,0,2-0.1    c0.7,0,1.4-0.1,2-0.1c0.1,0.1,0.1,0.1,0.1,0.2c0,0.1,0,0.2,0,0.2c0,0.1,0,0.2-0.1,0.2c0,0.1-0.1,0.1-0.1,0.1h-0.2    c-0.1,0-0.2,0-0.3,0l-1,0.2c-0.3,0.1-0.5,0.2-0.8,0.4c-0.2,0.2-0.4,0.6-0.4,1.1v11.2c0,0.8,0,1.4,0.1,1.9c0.1,0.5,0.3,0.9,0.5,1.1    c0.3,0.3,0.6,0.5,1.1,0.5c0.5,0.1,1.1,0.1,2,0.1h1.3c1.2,0,2-0.1,2.5-0.3c0.2-0.1,0.3-0.2,0.4-0.3c0.1-0.1,0.2-0.3,0.3-0.5    c0.1-0.2,0.2-0.3,0.2-0.5c0.1-0.1,0.1-0.3,0.2-0.4l0.6-1c0,0,0.1-0.1,0.1-0.1c0,0,0.1,0,0.2,0c0.1,0,0.2,0,0.3,0    c0.1,0,0.2,0.1,0.2,0.2l-0.7,2.7c-0.1,0.3-0.2,0.5-0.3,0.8c-0.1,0.3-0.3,0.4-0.5,0.4c-1.6,0-3.1,0-4.6-0.1c-1.5,0-3.1-0.1-4.6-0.1    c-0.6,0-1.2,0-1.8,0.1c-0.6,0-1.2,0.1-1.8,0.1h-0.4l-0.2-0.1v-0.3c0-0.2,0.1-0.3,0.2-0.3c0.1-0.1,0.3-0.1,0.7-0.1    c0.3,0,0.6,0,0.8-0.1c0.2,0,0.4-0.1,0.5-0.2s0.3-0.2,0.3-0.4c0.1-0.2,0.1-0.4,0.1-0.7V111.6z"/>
		<path d="M87.6,119.4c0,0.1,0,0.2,0,0.3c0,0.1,0,0.2,0,0.3v0.5c0,0.6,0.1,1.1,0.3,1.7s0.5,1,0.9,1.4c0.4,0.4,0.8,0.8,1.3,1    c0.5,0.3,1,0.4,1.6,0.4c0.2,0,0.5,0,0.7-0.1c0.2-0.1,0.4-0.1,0.6-0.2c0.2-0.1,0.5-0.3,0.7-0.5c0.3-0.2,0.6-0.4,0.9-0.7l0.5,0.3    c-0.5,0.8-1.2,1.5-1.9,2.1c-0.8,0.5-1.7,0.8-2.7,0.8c-0.7,0-1.3-0.1-1.9-0.4c-0.6-0.3-1.1-0.7-1.5-1.2c-0.4-0.5-0.8-1.1-1-1.7    c-0.3-0.7-0.4-1.3-0.4-2.1c0-0.8,0.1-1.5,0.4-2.3c0.3-0.8,0.6-1.5,1.1-2.1c0.5-0.6,1.1-1.1,1.7-1.5c0.7-0.4,1.4-0.6,2.3-0.6    c0.6,0,1.1,0.1,1.6,0.3s0.9,0.5,1.3,0.8c0.4,0.3,0.6,0.8,0.8,1.2c0.2,0.5,0.3,1,0.3,1.5v0.8H87.6z M92.1,118.7    c0.2,0,0.3-0.1,0.5-0.3c0.2-0.2,0.2-0.4,0.2-0.6c0-0.6-0.2-1.2-0.6-1.6c-0.4-0.4-1-0.6-1.6-0.6c-0.4,0-0.8,0.1-1.1,0.3    c-0.3,0.2-0.6,0.5-0.8,0.8c-0.2,0.3-0.4,0.7-0.6,1.1c-0.2,0.4-0.3,0.8-0.4,1.1L92.1,118.7z"/>
		<path d="M103,118.9c0-0.4,0-0.7-0.1-1c0-0.3-0.1-0.6-0.3-0.8c-0.1-0.2-0.4-0.4-0.6-0.5s-0.6-0.2-1.1-0.2c-0.2,0-0.4,0-0.6,0    c-0.2,0-0.4,0.1-0.7,0.2s-0.4,0.2-0.5,0.3s-0.2,0.3-0.2,0.5c0,0.2,0,0.4,0.1,0.6l-1.6,0.9c0-0.1-0.1-0.2-0.1-0.4    c0-0.1-0.1-0.3-0.1-0.4c0-0.2,0-0.4,0.1-0.6c0.1-0.2,0.2-0.3,0.3-0.5c0.1-0.1,0.3-0.3,0.4-0.4c0.2-0.1,0.3-0.2,0.4-0.3l2.3-1.4    c0.3-0.2,0.5-0.3,0.5-0.3c2.2,0,3.3,1.1,3.3,3.2v5.5c0,0.1,0,0.3,0,0.5c0,0.2,0,0.4,0.1,0.5c0.1,0.2,0.1,0.3,0.2,0.4    s0.3,0.2,0.5,0.2c0.2,0,0.4-0.1,0.5-0.2c0.1-0.1,0.2-0.3,0.4-0.6l0.5,0.2c-0.2,0.6-0.4,1.2-0.7,1.6c-0.3,0.4-0.8,0.7-1.3,0.7    c-0.4,0-0.8-0.1-1-0.3c-0.2-0.2-0.4-0.4-0.6-0.6c-0.1-0.3-0.2-0.5-0.2-0.8s-0.1-0.5-0.1-0.6c-0.2,0.3-0.5,0.5-0.8,0.8    s-0.6,0.5-0.9,0.7c-0.3,0.2-0.7,0.4-1,0.5c-0.4,0.1-0.7,0.2-1.1,0.2s-0.7-0.1-1-0.3c-0.3-0.2-0.5-0.5-0.7-0.8    c-0.2-0.3-0.3-0.7-0.4-1c-0.1-0.4-0.1-0.7-0.1-1c0-0.1,0-0.2,0.1-0.4c0.1-0.2,0.2-0.3,0.4-0.5c0.2-0.2,0.5-0.4,0.8-0.6    s0.8-0.4,1.3-0.6l3.4-1.3V118.9z M103,120.9l-2.6,1.2c-0.1,0-0.2,0.1-0.4,0.2c-0.1,0.1-0.3,0.2-0.4,0.3c-0.1,0.1-0.3,0.2-0.4,0.4    c-0.1,0.1-0.2,0.3-0.2,0.5c0,0.2,0,0.4,0.1,0.6c0,0.2,0.1,0.5,0.2,0.7s0.2,0.4,0.4,0.5c0.2,0.1,0.3,0.2,0.5,0.2    c0.2,0,0.5-0.1,0.7-0.2c0.2-0.1,0.4-0.2,0.6-0.4s0.4-0.3,0.6-0.5c0.2-0.2,0.4-0.4,0.5-0.5l0.2-0.2V120.9z"/>
		<path d="M112.1,123.6c0,0.3,0,0.5,0,0.8c0,0.2,0.1,0.5,0.2,0.7c0.1,0.2,0.3,0.3,0.6,0.5c0.3,0.1,0.6,0.2,1.1,0.2    c0.1,0,0.2,0.1,0.2,0.4c0,0.1,0,0.2,0,0.3c0,0.1-0.1,0.1-0.2,0.1c-0.5,0-0.9,0-1.4-0.1c-0.5,0-0.9-0.1-1.4-0.1c-0.5,0-1,0-1.5,0.1    c-0.5,0-1,0.1-1.5,0.1c-0.1,0-0.1-0.1-0.1-0.2v-0.2c0-0.1,0-0.2,0.1-0.2c0.1,0,0.2,0,0.5-0.1c0.6,0,0.9-0.2,1.1-0.4    c0.2-0.3,0.2-0.7,0.2-1.4v-5.8c0-0.5-0.3-0.8-0.8-1c0,0-0.1,0-0.2,0c-0.1,0-0.2-0.1-0.3-0.1c-0.1-0.1-0.2-0.1-0.2-0.2    c-0.1-0.1-0.1-0.1-0.1-0.2s0-0.2,0.1-0.2c0.1,0,0.1-0.1,0.3-0.2l1.9-0.9c0.3-0.1,0.5-0.3,0.7-0.3s0.3-0.1,0.4-0.1    c0.1,0,0.1,0,0.2,0.1c0,0.1,0,0.1,0,0.1l-0.1,2.7l0.1,0.1c0.2-0.3,0.4-0.6,0.7-0.9c0.3-0.3,0.5-0.7,0.8-1c0.3-0.3,0.6-0.6,1-0.8    c0.3-0.2,0.7-0.3,1.1-0.3c0.5,0,0.8,0.1,1.1,0.3c0.3,0.2,0.4,0.6,0.4,1.1c0,0.3-0.1,0.5-0.3,0.7c-0.2,0.2-0.5,0.3-0.7,0.3    c-0.2,0-0.3,0-0.5-0.1l-0.4-0.2c-0.1-0.1-0.3-0.1-0.4-0.2c-0.1-0.1-0.3-0.1-0.5-0.1c-0.2,0-0.3,0-0.5,0.1s-0.3,0.2-0.5,0.4    s-0.3,0.3-0.5,0.5c-0.2,0.2-0.3,0.4-0.4,0.5l-0.4,0.5V123.6z"/>
		<path d="M120.3,117.6c0-0.5-0.2-0.8-0.5-0.9l-0.9-0.2c-0.1,0-0.2-0.1-0.2-0.3c0,0,0-0.1,0-0.2c0-0.1,0.1-0.1,0.1-0.1    c0.3-0.1,0.7-0.2,1-0.4c0.4-0.1,0.7-0.3,1-0.4s0.6-0.3,0.8-0.4c0.2-0.1,0.4-0.2,0.4-0.2c0.1,0,0.1,0,0.1,0.1c0,0.1,0,0.1,0,0.2    v1.8c0.3-0.2,0.6-0.5,0.9-0.7c0.3-0.3,0.7-0.5,1-0.7c0.4-0.2,0.7-0.4,1.1-0.5c0.4-0.1,0.8-0.2,1.2-0.2c1.1,0,2,0.3,2.5,0.9    c0.5,0.6,0.8,1.5,0.8,2.5v6.3c0,0.3,0,0.5,0.1,0.7c0.1,0.1,0.2,0.3,0.4,0.3c0.2,0.1,0.4,0.1,0.6,0.1c0.2,0,0.4,0,0.6,0    c0.1,0,0.1,0.1,0.1,0.2v0.5c0,0.1,0,0.1-0.1,0.1c-0.5,0-1,0-1.4-0.1c-0.4,0-0.8-0.1-1.2-0.1c-0.5,0-0.9,0-1.4,0.1    c-0.5,0-0.9,0.1-1.4,0.1c-0.1,0-0.1-0.1-0.2-0.2c0-0.2,0-0.3,0-0.3c0-0.1,0.1-0.2,0.3-0.2c0.1,0,0.2,0,0.4,0c0.2,0,0.4,0,0.5-0.1    c0.2-0.1,0.3-0.1,0.5-0.2c0.1-0.1,0.2-0.3,0.2-0.4v-6.1c0-0.8-0.2-1.4-0.5-1.9c-0.3-0.4-0.9-0.7-1.8-0.7c-0.6,0-1.1,0.1-1.7,0.4    s-1.1,0.6-1.5,1v6.8c0,0.1,0,0.3,0,0.4c0,0.1,0.1,0.3,0.2,0.4s0.3,0.2,0.5,0.3c0.2,0.1,0.6,0.1,1,0.1c0,0,0.1,0.1,0.1,0.4    c0,0.2,0,0.4-0.1,0.4c-0.5,0-1,0-1.5-0.1c-0.5,0-0.9-0.1-1.2-0.1c-0.5,0-0.9,0-1.4,0.1c-0.5,0-0.9,0.1-1.4,0.1    c-0.2,0-0.2-0.1-0.2-0.2v-0.2c0-0.2,0-0.2,0.1-0.3c0.1,0,0.2,0,0.4,0c0.6,0,1-0.1,1.2-0.2s0.4-0.5,0.4-1.1V117.6z"/>
		<path d="M136.7,124.4c0,0.1,0,0.3,0,0.4c0,0.1,0.1,0.3,0.2,0.4s0.3,0.2,0.5,0.3c0.2,0.1,0.6,0.1,1,0.1c0,0,0.1,0.1,0.1,0.4    c0,0.2,0,0.4-0.1,0.4c-0.5,0-1,0-1.5-0.1c-0.5,0-0.9-0.1-1.2-0.1c-0.5,0-0.9,0-1.4,0.1c-0.5,0-0.9,0.1-1.4,0.1    c-0.2,0-0.2-0.1-0.2-0.2v-0.2c0-0.2,0-0.2,0.1-0.3c0.1,0,0.2,0,0.4,0c0.6,0,1-0.1,1.2-0.2s0.4-0.5,0.4-1.1v-5.4c0-0.4,0-0.7,0-1    c0-0.2,0-0.4-0.1-0.6c-0.1-0.1-0.2-0.3-0.3-0.3s-0.3-0.2-0.6-0.3c-0.2-0.1-0.4-0.2-0.5-0.2c-0.2-0.1-0.2-0.2-0.2-0.3    c0-0.1,0.1-0.2,0.3-0.3s0.5-0.2,1.1-0.4l1.9-0.7c0,0,0.1,0,0.2-0.1s0.2-0.1,0.2-0.1c0.1,0,0.1,0,0.2,0.1c0,0.1,0,0.2,0,0.3    c0,0.6,0,1.3,0,1.9c0,0.6,0,1.3,0,1.9V124.4z M134.2,108.4c0-0.4,0.1-0.7,0.4-1c0.3-0.3,0.6-0.4,1-0.4s0.7,0.1,1,0.4    c0.3,0.3,0.4,0.6,0.4,1c0,0.4-0.1,0.7-0.4,1c-0.3,0.3-0.6,0.4-1,0.4s-0.7-0.1-1-0.4S134.2,108.8,134.2,108.4z"/>
		<path d="M142,117.6c0-0.5-0.2-0.8-0.5-0.9l-0.9-0.2c-0.1,0-0.2-0.1-0.2-0.3c0,0,0-0.1,0-0.2c0-0.1,0.1-0.1,0.1-0.1    c0.3-0.1,0.7-0.2,1-0.4c0.4-0.1,0.7-0.3,1-0.4s0.6-0.3,0.8-0.4c0.2-0.1,0.4-0.2,0.4-0.2c0.1,0,0.1,0,0.1,0.1c0,0.1,0,0.1,0,0.2    v1.8c0.3-0.2,0.6-0.5,0.9-0.7c0.3-0.3,0.7-0.5,1-0.7c0.4-0.2,0.7-0.4,1.1-0.5c0.4-0.1,0.8-0.2,1.2-0.2c1.1,0,2,0.3,2.5,0.9    c0.5,0.6,0.8,1.5,0.8,2.5v6.3c0,0.3,0,0.5,0.1,0.7c0.1,0.1,0.2,0.3,0.4,0.3c0.2,0.1,0.4,0.1,0.6,0.1c0.2,0,0.4,0,0.6,0    c0.1,0,0.1,0.1,0.1,0.2v0.5c0,0.1,0,0.1-0.1,0.1c-0.5,0-1,0-1.4-0.1c-0.4,0-0.8-0.1-1.2-0.1c-0.5,0-0.9,0-1.4,0.1    c-0.5,0-0.9,0.1-1.4,0.1c-0.1,0-0.1-0.1-0.2-0.2c0-0.2,0-0.3,0-0.3c0-0.1,0.1-0.2,0.3-0.2c0.1,0,0.2,0,0.4,0c0.2,0,0.4,0,0.5-0.1    c0.2-0.1,0.3-0.1,0.5-0.2c0.1-0.1,0.2-0.3,0.2-0.4v-6.1c0-0.8-0.2-1.4-0.5-1.9c-0.3-0.4-0.9-0.7-1.8-0.7c-0.6,0-1.1,0.1-1.7,0.4    s-1.1,0.6-1.5,1v6.8c0,0.1,0,0.3,0,0.4c0,0.1,0.1,0.3,0.2,0.4c0.1,0.1,0.3,0.2,0.5,0.3c0.2,0.1,0.6,0.1,1,0.1c0,0,0.1,0.1,0.1,0.4    c0,0.2,0,0.4-0.1,0.4c-0.5,0-1,0-1.5-0.1c-0.5,0-0.9-0.1-1.2-0.1c-0.5,0-0.9,0-1.4,0.1c-0.5,0-0.9,0.1-1.4,0.1    c-0.2,0-0.2-0.1-0.2-0.2v-0.2c0-0.2,0-0.2,0.1-0.3c0.1,0,0.2,0,0.4,0c0.6,0,1-0.1,1.2-0.2s0.4-0.5,0.4-1.1V117.6z"/>
		<path d="M158,122.2c-0.9-0.3-1.6-0.8-2.1-1.4c-0.5-0.6-0.8-1.4-0.8-2.3c0-0.5,0.1-1,0.4-1.4s0.6-0.9,1.1-1.2    c0.4-0.4,0.9-0.6,1.4-0.8s1-0.3,1.5-0.3c0.6,0,1.2,0.1,1.9,0.3s1.2,0.4,1.7,0.7c0.1,0,0.3,0.1,0.5,0.1h2.1c0.3,0,0.4,0,0.5,0    c0.1,0,0.1,0.1,0.1,0.1c0,0.4,0,0.7-0.1,0.8c0,0.1-0.1,0.2-0.3,0.2h-0.5c-0.2,0-0.5,0-0.7,0s-0.5,0-0.7,0.1    c0.1,0.2,0.1,0.4,0.2,0.6c0,0.2,0,0.4,0,0.6c0,0.7-0.1,1.3-0.4,1.7c-0.3,0.5-0.6,0.9-1.1,1.4c-0.6,0.5-1.1,0.8-1.7,0.9    c-0.6,0.1-1.3,0.2-2,0.2c-0.1,0-0.2,0-0.4,0.1c-0.2,0.1-0.4,0.2-0.5,0.4c-0.2,0.2-0.3,0.3-0.5,0.6s-0.2,0.4-0.2,0.7    c0,0.3,0.1,0.5,0.2,0.6c0.2,0.1,0.4,0.3,0.6,0.3c0.2,0.1,0.5,0.1,0.7,0.2c0.3,0,0.5,0,0.7,0c0.4,0,0.8,0,1.3-0.1    c0.4,0,0.8-0.1,1.3-0.1c0.5,0,1,0.1,1.5,0.2c0.5,0.1,0.9,0.3,1.3,0.6c0.4,0.3,0.7,0.6,0.9,1c0.2,0.4,0.3,0.9,0.3,1.5    c0,0.8-0.2,1.4-0.5,2s-0.8,1.1-1.4,1.5c-0.6,0.4-1.2,0.7-1.9,0.9c-0.7,0.2-1.4,0.3-2,0.3c-0.6,0-1.2-0.1-1.8-0.2    c-0.6-0.1-1.2-0.3-1.7-0.6c-0.5-0.3-0.9-0.6-1.2-1.1c-0.3-0.4-0.5-1-0.5-1.7v-0.7l2.6-1.9c-0.7-0.2-1.2-0.5-1.7-0.9    c-0.4-0.4-0.6-1-0.6-1.6c0-0.1,0-0.2,0-0.3c0-0.1,0-0.2,0-0.3L158,122.2z M157.5,128.2c-0.2,0.1-0.3,0.3-0.4,0.5    c-0.1,0.2-0.1,0.4-0.1,0.7c0,0.4,0.1,0.7,0.2,1.1c0.1,0.4,0.3,0.7,0.6,0.9c0.3,0.3,0.6,0.5,1.1,0.7c0.4,0.2,1,0.3,1.6,0.3    c0.5,0,0.9-0.1,1.4-0.2c0.5-0.1,0.9-0.3,1.2-0.5c0.4-0.2,0.7-0.5,0.9-0.9c0.2-0.4,0.3-0.8,0.3-1.4c0-0.8-0.2-1.4-0.7-1.8    s-1.1-0.5-1.9-0.5c-0.2,0-0.4,0-0.7,0c-0.3,0-0.6,0-0.8,0c-0.3,0-0.6,0-0.8,0c-0.3,0-0.5,0-0.6,0L157.5,128.2z M157.2,118.3    c0,0.4,0.1,0.8,0.2,1.2s0.3,0.8,0.5,1.1c0.2,0.3,0.5,0.6,0.8,0.8c0.3,0.2,0.7,0.3,1.2,0.3c0.4,0,0.8-0.1,1.1-0.3    c0.3-0.2,0.5-0.4,0.7-0.7c0.2-0.3,0.3-0.6,0.4-0.9c0.1-0.4,0.1-0.7,0.1-1.1c0-0.4-0.1-0.8-0.2-1.2s-0.3-0.8-0.5-1.1    c-0.2-0.3-0.5-0.6-0.8-0.8s-0.7-0.3-1.1-0.3c-1,0-1.6,0.3-2,0.8C157.4,116.7,157.2,117.5,157.2,118.3z"/>
		<path d="M191.7,125.3c-0.9,0.4-1.8,0.8-2.9,1s-2.1,0.4-3.3,0.4c-1.3,0-2.6-0.2-3.8-0.7c-1.3-0.4-2.4-1.1-3.4-1.9    c-1-0.8-1.9-1.8-2.5-3s-1-2.5-1-4c0-1.4,0.3-2.7,0.9-3.9c0.6-1.2,1.4-2.2,2.4-3c1-0.8,2.1-1.5,3.4-1.9c1.3-0.5,2.6-0.7,3.9-0.7    c0.4,0,0.9,0,1.5,0.1c0.6,0.1,1.1,0.2,1.7,0.3c0.6,0.1,1.1,0.3,1.7,0.5c0.5,0.2,1,0.4,1.4,0.6l0.3,3c0,0.1,0,0.2,0.1,0.3    c0,0.1,0,0.2,0,0.3c0,0.1-0.1,0.1-0.2,0.2c-0.1,0-0.2,0-0.3,0c-0.1,0-0.3-0.4-0.7-1.3c-0.2-0.5-0.5-0.9-0.8-1.2    c-0.4-0.4-0.8-0.7-1.3-1c-0.5-0.3-1-0.5-1.5-0.6c-0.6-0.1-1.1-0.2-1.7-0.2c-1.2,0-2.4,0.2-3.3,0.7c-1,0.5-1.8,1.1-2.4,1.9    c-0.7,0.8-1.2,1.7-1.5,2.8c-0.3,1.1-0.5,2.2-0.5,3.3c0,1.1,0.2,2.1,0.6,3.1c0.4,1,0.9,1.9,1.7,2.6c0.7,0.8,1.5,1.4,2.5,1.8    c1,0.5,2,0.7,3.1,0.7c0.4,0,0.8,0,1.2-0.1s0.8-0.2,1.2-0.3c0.4-0.1,0.8-0.3,1.2-0.4c0.4-0.2,0.7-0.4,0.9-0.6    c0.4-0.3,0.7-0.8,0.9-1.3c0.2-0.5,0.4-1,0.5-1.5c0,0,0.1-0.1,0.1-0.1h0.2c0.1,0,0.2,0,0.4,0.1c0.1,0,0.2,0.1,0.2,0.3L191.7,125.3z    "/>
		<path d="M196.9,119.4c0,0.1,0,0.2,0,0.3c0,0.1,0,0.2,0,0.3v0.5c0,0.6,0.1,1.1,0.3,1.7s0.5,1,0.9,1.4c0.4,0.4,0.8,0.8,1.3,1    s1,0.4,1.6,0.4c0.2,0,0.5,0,0.7-0.1c0.2-0.1,0.4-0.1,0.6-0.2c0.2-0.1,0.5-0.3,0.7-0.5c0.3-0.2,0.6-0.4,0.9-0.7l0.5,0.3    c-0.5,0.8-1.2,1.5-2,2.1c-0.8,0.5-1.7,0.8-2.7,0.8c-0.7,0-1.3-0.1-1.9-0.4c-0.6-0.3-1.1-0.7-1.5-1.2c-0.4-0.5-0.8-1.1-1-1.7    s-0.4-1.3-0.4-2.1c0-0.8,0.1-1.5,0.4-2.3s0.6-1.5,1.1-2.1c0.5-0.6,1.1-1.1,1.7-1.5s1.4-0.6,2.3-0.6c0.6,0,1.1,0.1,1.6,0.3    s0.9,0.5,1.3,0.8s0.6,0.8,0.8,1.2c0.2,0.5,0.3,1,0.3,1.5v0.8H196.9z M201.4,118.7c0.2,0,0.3-0.1,0.5-0.3c0.2-0.2,0.2-0.4,0.2-0.6    c0-0.6-0.2-1.2-0.6-1.6c-0.4-0.4-1-0.6-1.6-0.6c-0.4,0-0.8,0.1-1.1,0.3c-0.3,0.2-0.6,0.5-0.8,0.8c-0.2,0.3-0.4,0.7-0.6,1.1    c-0.2,0.4-0.3,0.8-0.4,1.1L201.4,118.7z"/>
		<path d="M207.9,117.6c0-0.5-0.2-0.8-0.5-0.9l-0.9-0.2c-0.1,0-0.2-0.1-0.2-0.3c0,0,0-0.1,0-0.2s0.1-0.1,0.1-0.1    c0.3-0.1,0.7-0.2,1-0.4c0.4-0.1,0.7-0.3,1-0.4c0.3-0.1,0.6-0.3,0.8-0.4c0.2-0.1,0.4-0.2,0.4-0.2s0.1,0,0.1,0.1c0,0.1,0,0.1,0,0.2    v1.8c0.3-0.2,0.6-0.5,0.9-0.7c0.3-0.3,0.7-0.5,1-0.7s0.7-0.4,1.1-0.5c0.4-0.1,0.8-0.2,1.2-0.2c1.1,0,2,0.3,2.5,0.9    c0.5,0.6,0.8,1.5,0.8,2.5v6.3c0,0.3,0,0.5,0.1,0.7c0.1,0.1,0.2,0.3,0.4,0.3c0.2,0.1,0.4,0.1,0.6,0.1c0.2,0,0.4,0,0.6,0    c0.1,0,0.1,0.1,0.1,0.2v0.5c0,0.1,0,0.1-0.1,0.1c-0.5,0-1,0-1.4-0.1c-0.4,0-0.8-0.1-1.2-0.1c-0.5,0-0.9,0-1.4,0.1    c-0.5,0-0.9,0.1-1.4,0.1c-0.1,0-0.1-0.1-0.2-0.2c0-0.2,0-0.3,0-0.3c0-0.1,0.1-0.2,0.3-0.2c0.1,0,0.2,0,0.4,0c0.2,0,0.4,0,0.5-0.1    c0.2-0.1,0.3-0.1,0.5-0.2c0.1-0.1,0.2-0.3,0.2-0.4v-6.1c0-0.8-0.2-1.4-0.5-1.9c-0.3-0.4-0.9-0.7-1.8-0.7c-0.6,0-1.1,0.1-1.7,0.4    c-0.6,0.3-1.1,0.6-1.5,1v6.8c0,0.1,0,0.3,0,0.4c0,0.1,0.1,0.3,0.2,0.4c0.1,0.1,0.3,0.2,0.5,0.3c0.2,0.1,0.6,0.1,1,0.1    c0,0,0.1,0.1,0.1,0.4c0,0.2,0,0.4-0.1,0.4c-0.5,0-1,0-1.5-0.1c-0.5,0-0.9-0.1-1.2-0.1c-0.5,0-0.9,0-1.4,0.1    c-0.5,0-0.9,0.1-1.4,0.1c-0.2,0-0.2-0.1-0.2-0.2v-0.2c0-0.2,0-0.2,0.1-0.3c0.1,0,0.2,0,0.4,0c0.6,0,1-0.1,1.2-0.2    c0.2-0.2,0.4-0.5,0.4-1.1V117.6z"/>
		<path d="M222.1,117.1c0-0.4-0.1-0.7-0.3-0.8s-0.5-0.1-1-0.1c-0.1,0-0.3,0-0.3,0s-0.1-0.1-0.1-0.3c0-0.1,0.1-0.2,0.2-0.4    c0.1-0.1,0.2-0.2,0.4-0.3c0.2-0.2,0.5-0.3,0.7-0.5c0.3-0.2,0.5-0.4,0.8-0.7c0.3-0.2,0.5-0.5,0.8-0.7c0.2-0.2,0.5-0.4,0.6-0.7    c0.2,0,0.3,0.1,0.3,0.3c0,0.3,0,0.7,0,1c0,0.3,0,0.7,0,1h3.3c0.2,0,0.2,0,0.3,0.1c0,0.1,0,0.2,0,0.5s0,0.4-0.1,0.5    c0,0.1-0.1,0.1-0.2,0.1h-3.4v6.8c0,0.3,0,0.5,0.1,0.8s0.1,0.5,0.2,0.7s0.3,0.4,0.5,0.5c0.2,0.1,0.5,0.2,0.8,0.2    c0.4,0,0.8-0.1,1.1-0.4c0.3-0.2,0.6-0.6,0.7-1l0.4,0.4c-0.2,0.7-0.6,1.3-1.1,1.8c-0.5,0.5-1.2,0.7-2,0.7c-0.4,0-0.7,0-1-0.1    c-0.3-0.1-0.6-0.2-0.9-0.4c-0.3-0.2-0.5-0.4-0.6-0.7c-0.2-0.3-0.2-0.6-0.2-1V117.1z"/>
		<path d="M231.6,119.4c0,0.1,0,0.2,0,0.3c0,0.1,0,0.2,0,0.3v0.5c0,0.6,0.1,1.1,0.3,1.7s0.5,1,0.9,1.4c0.4,0.4,0.8,0.8,1.3,1    s1,0.4,1.6,0.4c0.2,0,0.5,0,0.7-0.1c0.2-0.1,0.4-0.1,0.6-0.2c0.2-0.1,0.5-0.3,0.7-0.5c0.3-0.2,0.6-0.4,0.9-0.7l0.5,0.3    c-0.5,0.8-1.2,1.5-2,2.1c-0.8,0.5-1.7,0.8-2.7,0.8c-0.7,0-1.3-0.1-1.9-0.4c-0.6-0.3-1.1-0.7-1.5-1.2c-0.4-0.5-0.8-1.1-1-1.7    s-0.4-1.3-0.4-2.1c0-0.8,0.1-1.5,0.4-2.3s0.6-1.5,1.1-2.1c0.5-0.6,1.1-1.1,1.7-1.5s1.4-0.6,2.3-0.6c0.6,0,1.1,0.1,1.6,0.3    s0.9,0.5,1.3,0.8s0.6,0.8,0.8,1.2c0.2,0.5,0.3,1,0.3,1.5v0.8H231.6z M236.1,118.7c0.2,0,0.3-0.1,0.5-0.3c0.2-0.2,0.2-0.4,0.2-0.6    c0-0.6-0.2-1.2-0.6-1.6c-0.4-0.4-1-0.6-1.6-0.6c-0.4,0-0.8,0.1-1.1,0.3c-0.3,0.2-0.6,0.5-0.8,0.8c-0.2,0.3-0.4,0.7-0.6,1.1    c-0.2,0.4-0.3,0.8-0.4,1.1L236.1,118.7z"/>
		<path d="M244.6,123.6c0,0.3,0,0.5,0,0.8c0,0.2,0.1,0.5,0.2,0.7s0.3,0.3,0.6,0.5c0.3,0.1,0.6,0.2,1.1,0.2c0.1,0,0.2,0.1,0.2,0.4    c0,0.1,0,0.2,0,0.3c0,0.1-0.1,0.1-0.2,0.1c-0.5,0-0.9,0-1.4-0.1c-0.5,0-0.9-0.1-1.4-0.1c-0.5,0-1,0-1.5,0.1c-0.5,0-1,0.1-1.5,0.1    c-0.1,0-0.1-0.1-0.1-0.2v-0.2c0-0.1,0-0.2,0.1-0.2c0.1,0,0.2,0,0.5-0.1c0.6,0,0.9-0.2,1.1-0.4c0.2-0.3,0.2-0.7,0.2-1.4v-5.8    c0-0.5-0.3-0.8-0.8-1c0,0-0.1,0-0.2,0c-0.1,0-0.2-0.1-0.3-0.1c-0.1-0.1-0.2-0.1-0.2-0.2c-0.1-0.1-0.1-0.1-0.1-0.2s0-0.2,0.1-0.2    c0.1,0,0.1-0.1,0.3-0.2l1.9-0.9c0.3-0.1,0.5-0.3,0.7-0.3s0.3-0.1,0.4-0.1c0.1,0,0.1,0,0.2,0.1c0,0.1,0,0.1,0,0.1l-0.1,2.7l0.1,0.1    c0.2-0.3,0.4-0.6,0.7-0.9s0.5-0.7,0.8-1c0.3-0.3,0.6-0.6,1-0.8s0.7-0.3,1.1-0.3c0.5,0,0.8,0.1,1.1,0.3c0.3,0.2,0.4,0.6,0.4,1.1    c0,0.3-0.1,0.5-0.3,0.7c-0.2,0.2-0.5,0.3-0.7,0.3c-0.2,0-0.3,0-0.5-0.1l-0.4-0.2c-0.1-0.1-0.3-0.1-0.4-0.2s-0.3-0.1-0.5-0.1    c-0.2,0-0.3,0-0.5,0.1c-0.2,0.1-0.3,0.2-0.5,0.4s-0.3,0.3-0.5,0.5c-0.2,0.2-0.3,0.4-0.4,0.5l-0.4,0.5V123.6z"/>
		<path d="M258.4,117.9h-0.7c-0.1-0.3-0.2-0.6-0.3-0.8s-0.3-0.5-0.4-0.8c-0.2-0.2-0.4-0.4-0.6-0.5c-0.3-0.1-0.6-0.2-0.9-0.2    c-0.6,0-1.1,0.1-1.5,0.4c-0.4,0.3-0.6,0.7-0.6,1.4c0,0.3,0.1,0.5,0.2,0.7c0.2,0.2,0.4,0.4,0.6,0.6c0.3,0.2,0.6,0.4,0.9,0.5    c0.3,0.2,0.7,0.4,1,0.5c0.3,0.2,0.7,0.4,1,0.6c0.3,0.2,0.6,0.5,0.9,0.7c0.3,0.3,0.5,0.6,0.6,0.9c0.2,0.3,0.2,0.7,0.2,1.1    c0,0.6-0.1,1.1-0.4,1.5c-0.2,0.5-0.6,0.8-0.9,1.1c-0.4,0.3-0.8,0.6-1.3,0.7c-0.5,0.2-1,0.3-1.5,0.3c-0.4,0-0.8,0-1.2-0.1    c-0.4-0.1-0.8-0.2-1.1-0.3c-0.3-0.1-0.6-0.2-0.8-0.4c-0.2-0.1-0.3-0.3-0.3-0.4l-0.1-2.4l0.8-0.1c0.1,0.1,0.1,0.1,0.1,0.2    c0,0.1,0,0.2,0.1,0.3c0.1,0.3,0.2,0.5,0.4,0.8c0.2,0.3,0.4,0.5,0.6,0.7c0.2,0.2,0.5,0.4,0.8,0.5c0.3,0.1,0.6,0.2,0.9,0.2    c0.7,0,1.2-0.2,1.6-0.6c0.4-0.4,0.6-0.9,0.6-1.6c0-0.2-0.1-0.4-0.2-0.6s-0.3-0.4-0.5-0.6c-0.2-0.2-0.4-0.4-0.6-0.5    c-0.2-0.2-0.4-0.3-0.6-0.4c-0.4-0.2-0.8-0.4-1.2-0.6c-0.4-0.2-0.8-0.5-1.1-0.8c-0.3-0.3-0.6-0.6-0.8-1c-0.2-0.4-0.3-0.8-0.3-1.3    c0-0.5,0.1-1,0.3-1.4c0.2-0.4,0.5-0.7,0.9-1c0.4-0.3,0.8-0.5,1.3-0.6c0.5-0.1,1-0.2,1.5-0.2c1,0,2.1,0.3,3.1,0.8L258.4,117.9z"/>
		<path d="M278.2,126.7c-1.4,0-2.6-0.2-3.9-0.6c-1.2-0.4-2.3-1-3.2-1.8c-0.9-0.8-1.7-1.8-2.2-2.9c-0.5-1.1-0.8-2.4-0.8-3.8    c0-1.4,0.3-2.6,0.8-3.8s1.3-2.3,2.2-3.1c0.9-0.9,2-1.6,3.2-2.1c1.2-0.5,2.5-0.8,3.8-0.8c1.4,0,2.7,0.2,3.9,0.7    c1.2,0.5,2.3,1.1,3.3,1.9c1,0.8,1.7,1.8,2.3,2.9c0.6,1.1,0.8,2.4,0.8,3.7c0,1.3-0.3,2.6-0.9,3.8c-0.6,1.2-1.3,2.3-2.3,3.2    c-1,0.9-2,1.6-3.3,2.2C280.8,126.4,279.5,126.7,278.2,126.7z M278.4,125.7c1.2,0,2.2-0.2,3.1-0.7s1.7-1.1,2.3-1.8s1.1-1.7,1.4-2.7    c0.3-1,0.5-2.1,0.5-3.2c0-1.1-0.2-2.2-0.5-3.2c-0.4-1.1-0.9-2-1.5-2.8c-0.7-0.8-1.5-1.5-2.4-2c-1-0.5-2-0.8-3.2-0.8    c-1.2,0-2.2,0.2-3.1,0.7c-0.9,0.4-1.6,1-2.2,1.8s-1,1.6-1.3,2.6c-0.3,1-0.4,2-0.4,3.1c0,1.1,0.2,2.2,0.5,3.3    c0.3,1.1,0.8,2,1.5,2.9c0.6,0.8,1.4,1.5,2.4,2.1C276.1,125.4,277.2,125.7,278.4,125.7z"/>
		<path d="M292.7,116.2h-2c-0.1-0.1-0.1-0.2-0.2-0.3c0-0.1,0-0.2,0-0.4c0-0.2,0-0.4,0.1-0.4c0.1,0,0.3-0.1,0.6-0.1h1.4v-2.2    c0-0.8,0.1-1.6,0.3-2.4s0.5-1.5,0.9-2.2c0.4-0.7,0.9-1.2,1.4-1.7s1.3-0.7,2.1-0.7c0.4,0,0.7,0.1,1.1,0.2c0.3,0.2,0.5,0.5,0.5,0.9    c0,0.3-0.1,0.5-0.3,0.7c-0.2,0.2-0.4,0.3-0.7,0.3c-0.1,0-0.3,0-0.5-0.1c-0.2-0.1-0.3-0.2-0.5-0.3c-0.2-0.1-0.4-0.2-0.5-0.3    c-0.2-0.1-0.4-0.1-0.5-0.1c-0.3,0-0.6,0.1-0.8,0.3c-0.2,0.2-0.3,0.5-0.4,0.8c-0.1,0.3-0.1,0.6-0.2,1c0,0.3,0,0.6,0,0.8v4.8h3    c0.1,0,0.1,0,0.1,0.1v0.5c0,0.3,0,0.4-0.1,0.5s-0.2,0.1-0.2,0.1h-2.8v7.9c0,0.3,0,0.6,0.1,0.8s0.1,0.3,0.3,0.4    c0.1,0.1,0.4,0.2,0.6,0.2c0.3,0,0.6,0,1.1,0c0.1,0,0.2,0.1,0.2,0.2v0.1c0,0.1,0,0.2,0,0.3c0,0.1,0,0.1-0.1,0.1c-0.1,0-0.2,0-0.5,0    c-0.2,0-0.5,0-0.8,0c-0.3,0-0.6,0-0.9,0c-0.3,0-0.6,0-0.8,0c-0.5,0-1,0-1.5,0.1c-0.5,0-1,0.1-1.5,0.1c0,0-0.1,0-0.1-0.1    c0-0.1-0.1-0.1-0.1-0.2c0-0.1,0-0.2,0-0.3c0-0.1,0.1-0.1,0.1-0.1c0.4,0,0.8,0,1.1-0.1c0.3,0,0.5-0.1,0.6-0.2    c0.1-0.1,0.2-0.3,0.3-0.5c0-0.2,0.1-0.5,0.1-0.9V116.2z"/>
		<path d="M309,110.6c0-0.4-0.1-0.7-0.2-1c-0.1-0.3-0.3-0.4-0.6-0.6c-0.3-0.1-0.5-0.2-0.9-0.2c-0.3,0-0.7-0.1-1.1-0.1    c-0.1,0-0.1,0-0.1-0.1c0-0.1,0-0.1,0-0.2v-0.3c0-0.1,0.1-0.2,0.3-0.2c0.2,0,0.6,0,1,0c0.5,0,1.1,0,1.6,0.1c0.6,0,1.1,0.1,1.7,0.1    c0.5,0,1,0,1.6-0.1c0.5,0,1-0.1,1.6-0.1h5.5c0.1,0,0.2,0.1,0.2,0.2c0,0.1,0,0.2,0,0.4v3.2c0,0.1-0.1,0.2-0.2,0.2    c-0.1,0-0.2,0-0.4,0c-0.2,0-0.2-0.1-0.3-0.3l-0.1-0.8c0-0.4-0.1-0.8-0.3-1c-0.2-0.3-0.4-0.5-0.6-0.6c-0.2-0.1-0.5-0.2-0.8-0.3    c-0.3,0-0.7-0.1-1-0.1h-2.7c-0.4,0-0.7,0-0.9,0.1c-0.2,0.1-0.4,0.2-0.6,0.3c-0.2,0.2-0.3,0.4-0.3,0.7s-0.1,0.7-0.1,1.2v4.7    c0,0,0,0.1,0.1,0.1c0.1,0.1,0.1,0.1,0.1,0.1l3.1-0.1c0.4,0,0.7,0,1-0.1c0.3-0.1,0.5-0.2,0.7-0.3c0.2-0.1,0.3-0.3,0.4-0.6    c0.1-0.2,0.2-0.5,0.3-0.9c0-0.1,0.1-0.1,0.1-0.2s0.1,0,0.3,0c0.2,0,0.3,0.1,0.3,0.2c0,0.3,0,0.7-0.1,1.2c-0.1,0.5-0.1,1-0.1,1.4    c0,0.7,0,1.3,0.1,1.7c0.1,0.4,0.1,0.7,0.1,0.9c0,0.1,0,0.2-0.1,0.2c-0.1,0.1-0.2,0.1-0.3,0.1c-0.2,0-0.4-0.1-0.4-0.3    c-0.1-0.3-0.1-0.6-0.1-0.9c0-0.3-0.1-0.5-0.1-0.7s-0.2-0.3-0.4-0.4c-0.2-0.1-0.5-0.2-0.9-0.2l-3.7-0.1c-0.2,0-0.3,0-0.3,0.1    c0,0.1,0,0.1,0,0.2v6.2c0,0.5,0.1,0.8,0.2,1.1c0.2,0.3,0.4,0.5,0.7,0.6s0.6,0.2,1,0.2c0.4,0,0.8,0,1.2,0h1.4c0.7,0,1.3,0,1.8-0.1    c0.5,0,0.9-0.2,1.2-0.4c0.1-0.1,0.3-0.2,0.5-0.5s0.3-0.5,0.5-0.7c0.2-0.3,0.3-0.5,0.4-0.8s0.2-0.5,0.3-0.6c0.2,0,0.3,0,0.5,0.1    c0.2,0,0.3,0.1,0.3,0.2c0,0,0,0.1,0,0.2s-0.1,0.2-0.1,0.2l-0.7,2.6c-0.1,0.3-0.2,0.6-0.3,0.6c-0.1,0.1-0.2,0.1-0.4,0.1    c-0.7,0-1.4,0-2.1,0c-0.7,0-1.4,0-2.2,0c-0.8,0-1.5,0-2.4,0c-0.8,0-1.7,0-2.7,0c-0.2,0-0.5,0-0.9,0c-0.4,0-0.8,0-1.2,0    c-0.4,0-0.8,0-1.2,0c-0.4,0-0.8,0-1.1,0c0,0-0.1,0-0.1-0.1c0-0.1-0.1-0.2-0.1-0.3c0-0.1,0-0.2,0-0.3c0-0.1,0.1-0.1,0.1-0.1    c0.6,0,1-0.1,1.4-0.1c0.4-0.1,0.7-0.2,0.9-0.4c0.2-0.2,0.4-0.5,0.5-0.8s0.1-0.8,0.1-1.4V110.6z"/>
		<path d="M325.1,117c-0.2-0.3-0.5-0.6-0.7-0.8c-0.2-0.2-0.6-0.3-1-0.4l-0.5,0c-0.1,0-0.1-0.1-0.1-0.3v-0.2c0-0.2,0-0.3,0.1-0.3    c0.4,0,0.8,0,1.2,0.1s0.8,0.1,1.2,0.1c0.4,0,0.9,0,1.4-0.1c0.5,0,1-0.1,1.6-0.1c0.1,0,0.2,0.1,0.2,0.2c0,0.1,0,0.3-0.1,0.4    c0,0.1-0.1,0.2-0.1,0.2l-0.8,0c-0.2,0-0.3,0-0.5,0.1c-0.1,0-0.2,0.1-0.2,0.3c0,0.1,0.1,0.3,0.2,0.5c0.2,0.3,0.3,0.5,0.6,0.8    l1.4,1.9l1.2-1.4c0.3-0.4,0.6-0.7,0.8-1c0.2-0.3,0.3-0.5,0.3-0.7c0-0.2-0.2-0.4-0.5-0.4c-0.3,0-0.6-0.1-0.9-0.1    c-0.1,0-0.2-0.1-0.2-0.3v-0.2c0-0.2,0-0.3,0.1-0.3c0.4,0,0.8,0,1.2,0.1s0.8,0.1,1.2,0.1c0.2,0,0.6,0,1-0.1c0.5,0,0.9-0.1,1.2-0.1    c0.1,0,0.1,0.1,0.1,0.3v0.2c0,0.1,0,0.1-0.1,0.1c0,0-0.2,0-0.3,0.1c-0.4,0-0.8,0.1-1,0.2c-0.2,0.1-0.5,0.3-0.8,0.6    c-0.1,0.1-0.2,0.2-0.3,0.3c-0.1,0.2-0.3,0.4-0.5,0.6l-2.1,2.4c0,0,0.1,0.1,0.2,0.4c0.2,0.2,0.4,0.5,0.6,0.9    c0.2,0.3,0.5,0.7,0.8,1.1c0.3,0.4,0.6,0.8,0.8,1.2s0.5,0.7,0.7,0.9s0.3,0.4,0.4,0.5c0.2,0.2,0.3,0.4,0.5,0.5    c0.2,0.1,0.5,0.2,0.9,0.2c0.2,0,0.2,0.1,0.2,0.2v0.2c0,0.2,0,0.3-0.1,0.3c-0.3,0-0.8,0-1.3-0.1c-0.5,0-1.2-0.1-1.9-0.1    c-0.1,0-0.3,0-0.5,0c-0.2,0-0.5,0-0.7,0c-0.2,0-0.5,0-0.6,0c-0.2,0-0.3,0-0.4,0c0,0-0.1-0.1-0.1-0.2c0-0.1-0.1-0.2-0.1-0.3    c0-0.2,0-0.2,0.1-0.2h0.7c0.2,0,0.4,0,0.6-0.1c0.2-0.1,0.3-0.2,0.3-0.4c0-0.1-0.1-0.3-0.2-0.5c-0.2-0.3-0.3-0.5-0.5-0.8l-1.6-2.3    l-1.3,1.7c-0.3,0.4-0.6,0.8-0.8,1.1c-0.2,0.4-0.3,0.6-0.3,0.8c0,0.2,0.1,0.4,0.4,0.5c0.2,0.1,0.5,0.1,0.7,0.1h0.5    c0,0,0.1,0,0.1,0.1c0,0.1,0,0.2,0,0.2c0,0.2-0.1,0.4-0.2,0.4c-0.5,0-0.9,0-1.3-0.1c-0.4,0-0.8-0.1-1.2-0.1c-0.3,0-0.7,0-1,0.1    c-0.3,0-0.7,0.1-1,0.1c-0.1,0-0.1,0-0.1-0.1c0-0.3,0-0.4,0.1-0.5c0-0.1,0.2-0.1,0.4-0.1c0.2,0,0.4-0.1,0.5-0.1    c0.2,0,0.3-0.1,0.4-0.2c0.1-0.2,0.3-0.3,0.4-0.5c0.2-0.2,0.3-0.3,0.4-0.5l2.8-3.3c0,0,0,0,0-0.1s0,0,0-0.1L325.1,117z"/>
		<path d="M346.3,123.5c-0.3,0.4-0.6,0.8-0.9,1.2s-0.7,0.7-1.1,1c-0.4,0.3-0.8,0.5-1.3,0.7c-0.5,0.2-1,0.3-1.5,0.3    c-0.8,0-1.5-0.2-2.1-0.5s-1.1-0.7-1.6-1.2c-0.4-0.5-0.8-1.1-1-1.8c-0.2-0.7-0.4-1.4-0.4-2.2c0-0.8,0.2-1.6,0.5-2.4    c0.3-0.8,0.7-1.4,1.3-2c0.5-0.6,1.2-1.1,1.9-1.4c0.7-0.4,1.5-0.5,2.4-0.5c0.3,0,0.6,0,1,0.1c0.4,0.1,0.8,0.2,1.1,0.4    c0.4,0.2,0.7,0.4,0.9,0.7c0.3,0.3,0.4,0.6,0.4,1c0,0.3-0.1,0.6-0.3,0.7c-0.2,0.2-0.5,0.3-0.8,0.3c-0.3,0-0.5-0.1-0.8-0.4    c-0.2-0.2-0.4-0.5-0.6-0.8s-0.4-0.5-0.7-0.8c-0.3-0.2-0.6-0.4-1-0.4c-0.5,0-1,0.1-1.4,0.4c-0.4,0.3-0.7,0.6-1,1s-0.5,0.9-0.6,1.4    c-0.1,0.5-0.2,1-0.2,1.4c0,0.6,0.1,1.2,0.2,1.8s0.4,1.2,0.7,1.7c0.3,0.5,0.7,0.9,1.2,1.3c0.5,0.3,1.1,0.5,1.7,0.5    c0.4,0,0.8-0.1,1.1-0.2c0.3-0.1,0.6-0.3,0.9-0.4c0.3-0.2,0.5-0.4,0.8-0.7c0.3-0.3,0.5-0.5,0.8-0.8L346.3,123.5z"/>
		<path d="M350.3,119.4c0,0.1,0,0.2,0,0.3c0,0.1,0,0.2,0,0.3v0.5c0,0.6,0.1,1.1,0.3,1.7s0.5,1,0.9,1.4c0.4,0.4,0.8,0.8,1.3,1    s1,0.4,1.6,0.4c0.2,0,0.5,0,0.7-0.1c0.2-0.1,0.4-0.1,0.6-0.2c0.2-0.1,0.5-0.3,0.7-0.5c0.3-0.2,0.6-0.4,0.9-0.7l0.5,0.3    c-0.5,0.8-1.2,1.5-2,2.1c-0.8,0.5-1.7,0.8-2.7,0.8c-0.7,0-1.3-0.1-1.9-0.4c-0.6-0.3-1.1-0.7-1.5-1.2c-0.4-0.5-0.8-1.1-1-1.7    s-0.4-1.3-0.4-2.1c0-0.8,0.1-1.5,0.4-2.3s0.6-1.5,1.1-2.1c0.5-0.6,1.1-1.1,1.7-1.5s1.4-0.6,2.3-0.6c0.6,0,1.1,0.1,1.6,0.3    s0.9,0.5,1.3,0.8s0.6,0.8,0.8,1.2c0.2,0.5,0.3,1,0.3,1.5v0.8H350.3z M354.8,118.7c0.2,0,0.3-0.1,0.5-0.3c0.2-0.2,0.2-0.4,0.2-0.6    c0-0.6-0.2-1.2-0.6-1.6c-0.4-0.4-1-0.6-1.6-0.6c-0.4,0-0.8,0.1-1.1,0.3c-0.3,0.2-0.6,0.5-0.8,0.8c-0.2,0.3-0.4,0.7-0.6,1.1    c-0.2,0.4-0.3,0.8-0.4,1.1L354.8,118.7z"/>
		<path d="M363.3,124.4c0,0.1,0,0.3,0,0.4c0,0.1,0.1,0.3,0.2,0.4c0.1,0.1,0.3,0.2,0.5,0.3c0.2,0.1,0.6,0.1,1,0.1    c0,0,0.1,0.1,0.1,0.4c0,0.2,0,0.4-0.1,0.4c-0.5,0-1,0-1.5-0.1c-0.5,0-0.9-0.1-1.2-0.1c-0.5,0-0.9,0-1.4,0.1    c-0.5,0-0.9,0.1-1.4,0.1c-0.2,0-0.2-0.1-0.2-0.2v-0.2c0-0.2,0-0.2,0.1-0.3c0.1,0,0.2,0,0.4,0c0.6,0,1-0.1,1.2-0.2    c0.2-0.2,0.4-0.5,0.4-1.1v-14c0-0.4,0-0.7,0-1c0-0.2,0-0.4-0.1-0.6c-0.1-0.1-0.2-0.3-0.3-0.3c-0.1-0.1-0.3-0.2-0.6-0.3    c-0.2-0.1-0.4-0.2-0.5-0.2s-0.2-0.2-0.2-0.3c0-0.1,0.1-0.2,0.3-0.3c0.2-0.1,0.5-0.2,1.1-0.4l1.9-0.7c0,0,0.1,0,0.2-0.1    c0.1,0,0.2-0.1,0.2-0.1c0.1,0,0.1,0,0.2,0.1c0,0.1,0,0.2,0,0.3c0,0.6,0,1.3,0,1.9c0,0.6,0,1.3,0,1.9V124.4z"/>
		<path d="M370.5,124.4c0,0.1,0,0.3,0,0.4c0,0.1,0.1,0.3,0.2,0.4c0.1,0.1,0.3,0.2,0.5,0.3c0.2,0.1,0.6,0.1,1,0.1    c0,0,0.1,0.1,0.1,0.4c0,0.2,0,0.4-0.1,0.4c-0.5,0-1,0-1.5-0.1c-0.5,0-0.9-0.1-1.2-0.1c-0.5,0-0.9,0-1.4,0.1    c-0.5,0-0.9,0.1-1.4,0.1c-0.2,0-0.2-0.1-0.2-0.2v-0.2c0-0.2,0-0.2,0.1-0.3c0.1,0,0.2,0,0.4,0c0.6,0,1-0.1,1.2-0.2    c0.2-0.2,0.4-0.5,0.4-1.1v-14c0-0.4,0-0.7,0-1c0-0.2,0-0.4-0.1-0.6c-0.1-0.1-0.2-0.3-0.3-0.3c-0.1-0.1-0.3-0.2-0.6-0.3    c-0.2-0.1-0.4-0.2-0.5-0.2s-0.2-0.2-0.2-0.3c0-0.1,0.1-0.2,0.3-0.3c0.2-0.1,0.5-0.2,1.1-0.4l1.9-0.7c0,0,0.1,0,0.2-0.1    c0.1,0,0.2-0.1,0.2-0.1c0.1,0,0.1,0,0.2,0.1c0,0.1,0,0.2,0,0.3c0,0.6,0,1.3,0,1.9c0,0.6,0,1.3,0,1.9V124.4z"/>
		<path d="M376.4,119.4c0,0.1,0,0.2,0,0.3c0,0.1,0,0.2,0,0.3v0.5c0,0.6,0.1,1.1,0.3,1.7s0.5,1,0.9,1.4c0.4,0.4,0.8,0.8,1.3,1    s1,0.4,1.6,0.4c0.2,0,0.5,0,0.7-0.1c0.2-0.1,0.4-0.1,0.6-0.2c0.2-0.1,0.5-0.3,0.7-0.5c0.3-0.2,0.6-0.4,0.9-0.7l0.5,0.3    c-0.5,0.8-1.2,1.5-2,2.1c-0.8,0.5-1.7,0.8-2.7,0.8c-0.7,0-1.3-0.1-1.9-0.4c-0.6-0.3-1.1-0.7-1.5-1.2c-0.4-0.5-0.8-1.1-1-1.7    s-0.4-1.3-0.4-2.1c0-0.8,0.1-1.5,0.4-2.3s0.6-1.5,1.1-2.1c0.5-0.6,1.1-1.1,1.7-1.5s1.4-0.6,2.3-0.6c0.6,0,1.1,0.1,1.6,0.3    s0.9,0.5,1.3,0.8s0.6,0.8,0.8,1.2c0.2,0.5,0.3,1,0.3,1.5v0.8H376.4z M380.9,118.7c0.2,0,0.3-0.1,0.5-0.3c0.2-0.2,0.2-0.4,0.2-0.6    c0-0.6-0.2-1.2-0.6-1.6c-0.4-0.4-1-0.6-1.6-0.6c-0.4,0-0.8,0.1-1.1,0.3c-0.3,0.2-0.6,0.5-0.8,0.8c-0.2,0.3-0.4,0.7-0.6,1.1    c-0.2,0.4-0.3,0.8-0.4,1.1L380.9,118.7z"/>
		<path d="M387.4,117.6c0-0.5-0.2-0.8-0.5-0.9l-0.9-0.2c-0.1,0-0.2-0.1-0.2-0.3c0,0,0-0.1,0-0.2s0.1-0.1,0.1-0.1    c0.3-0.1,0.7-0.2,1-0.4c0.4-0.1,0.7-0.3,1-0.4c0.3-0.1,0.6-0.3,0.8-0.4c0.2-0.1,0.4-0.2,0.4-0.2s0.1,0,0.1,0.1c0,0.1,0,0.1,0,0.2    v1.8c0.3-0.2,0.6-0.5,0.9-0.7c0.3-0.3,0.7-0.5,1-0.7s0.7-0.4,1.1-0.5c0.4-0.1,0.8-0.2,1.2-0.2c1.1,0,2,0.3,2.5,0.9    c0.5,0.6,0.8,1.5,0.8,2.5v6.3c0,0.3,0,0.5,0.1,0.7c0.1,0.1,0.2,0.3,0.4,0.3c0.2,0.1,0.4,0.1,0.6,0.1c0.2,0,0.4,0,0.6,0    c0.1,0,0.1,0.1,0.1,0.2v0.5c0,0.1,0,0.1-0.1,0.1c-0.5,0-1,0-1.4-0.1c-0.4,0-0.8-0.1-1.2-0.1c-0.5,0-0.9,0-1.4,0.1    c-0.5,0-0.9,0.1-1.4,0.1c-0.1,0-0.1-0.1-0.2-0.2c0-0.2,0-0.3,0-0.3c0-0.1,0.1-0.2,0.3-0.2c0.1,0,0.2,0,0.4,0c0.2,0,0.4,0,0.5-0.1    c0.2-0.1,0.3-0.1,0.5-0.2c0.1-0.1,0.2-0.3,0.2-0.4v-6.1c0-0.8-0.2-1.4-0.5-1.9c-0.3-0.4-0.9-0.7-1.8-0.7c-0.6,0-1.1,0.1-1.7,0.4    c-0.6,0.3-1.1,0.6-1.5,1v6.8c0,0.1,0,0.3,0,0.4c0,0.1,0.1,0.3,0.2,0.4c0.1,0.1,0.3,0.2,0.5,0.3c0.2,0.1,0.6,0.1,1,0.1    c0,0,0.1,0.1,0.1,0.4c0,0.2,0,0.4-0.1,0.4c-0.5,0-1,0-1.5-0.1c-0.5,0-0.9-0.1-1.2-0.1c-0.5,0-0.9,0-1.4,0.1    c-0.5,0-0.9,0.1-1.4,0.1c-0.2,0-0.2-0.1-0.2-0.2v-0.2c0-0.2,0-0.2,0.1-0.3c0.1,0,0.2,0,0.4,0c0.6,0,1-0.1,1.2-0.2    c0.2-0.2,0.4-0.5,0.4-1.1V117.6z"/>
		<path d="M410,123.5c-0.3,0.4-0.6,0.8-0.9,1.2s-0.7,0.7-1.1,1c-0.4,0.3-0.8,0.5-1.3,0.7c-0.5,0.2-1,0.3-1.5,0.3    c-0.8,0-1.5-0.2-2.1-0.5s-1.1-0.7-1.6-1.2c-0.4-0.5-0.8-1.1-1-1.8c-0.2-0.7-0.4-1.4-0.4-2.2c0-0.8,0.2-1.6,0.5-2.4    c0.3-0.8,0.7-1.4,1.3-2c0.5-0.6,1.2-1.1,1.9-1.4c0.7-0.4,1.5-0.5,2.4-0.5c0.3,0,0.6,0,1,0.1c0.4,0.1,0.8,0.2,1.1,0.4    c0.4,0.2,0.7,0.4,0.9,0.7c0.3,0.3,0.4,0.6,0.4,1c0,0.3-0.1,0.6-0.3,0.7c-0.2,0.2-0.5,0.3-0.8,0.3c-0.3,0-0.5-0.1-0.8-0.4    c-0.2-0.2-0.4-0.5-0.6-0.8s-0.4-0.5-0.7-0.8c-0.3-0.2-0.6-0.4-1-0.4c-0.5,0-1,0.1-1.4,0.4c-0.4,0.3-0.7,0.6-1,1s-0.5,0.9-0.6,1.4    c-0.1,0.5-0.2,1-0.2,1.4c0,0.6,0.1,1.2,0.2,1.8s0.4,1.2,0.7,1.7c0.3,0.5,0.7,0.9,1.2,1.3c0.5,0.3,1.1,0.5,1.7,0.5    c0.4,0,0.8-0.1,1.1-0.2c0.3-0.1,0.6-0.3,0.9-0.4c0.3-0.2,0.5-0.4,0.8-0.7c0.3-0.3,0.5-0.5,0.8-0.8L410,123.5z"/>
		<path d="M414,119.4c0,0.1,0,0.2,0,0.3c0,0.1,0,0.2,0,0.3v0.5c0,0.6,0.1,1.1,0.3,1.7s0.5,1,0.9,1.4c0.4,0.4,0.8,0.8,1.3,1    s1,0.4,1.6,0.4c0.2,0,0.5,0,0.7-0.1c0.2-0.1,0.4-0.1,0.6-0.2c0.2-0.1,0.5-0.3,0.7-0.5c0.3-0.2,0.6-0.4,0.9-0.7l0.5,0.3    c-0.5,0.8-1.2,1.5-2,2.1c-0.8,0.5-1.7,0.8-2.7,0.8c-0.7,0-1.3-0.1-1.9-0.4c-0.6-0.3-1.1-0.7-1.5-1.2c-0.4-0.5-0.8-1.1-1-1.7    s-0.4-1.3-0.4-2.1c0-0.8,0.1-1.5,0.4-2.3s0.6-1.5,1.1-2.1c0.5-0.6,1.1-1.1,1.7-1.5s1.4-0.6,2.3-0.6c0.6,0,1.1,0.1,1.6,0.3    s0.9,0.5,1.3,0.8s0.6,0.8,0.8,1.2c0.2,0.5,0.3,1,0.3,1.5v0.8H414z M418.5,118.7c0.2,0,0.3-0.1,0.5-0.3c0.2-0.2,0.2-0.4,0.2-0.6    c0-0.6-0.2-1.2-0.6-1.6c-0.4-0.4-1-0.6-1.6-0.6c-0.4,0-0.8,0.1-1.1,0.3c-0.3,0.2-0.6,0.5-0.8,0.8c-0.2,0.3-0.4,0.7-0.6,1.1    c-0.2,0.4-0.3,0.8-0.4,1.1L418.5,118.7z"/>
	</g>
	<g>
		<path d="M39.8,44.1c-1.7,0.9-3.6,1.5-5.7,2c-2,0.5-4.2,0.7-6.6,0.7c-2.5,0-5-0.4-7.6-1.3c-2.5-0.9-4.8-2.1-6.8-3.7    c-2-1.6-3.7-3.6-4.9-5.9c-1.3-2.3-1.9-5-1.9-7.9c0-2.8,0.6-5.3,1.8-7.7C9.4,18,11,16,13,14.4s4.2-2.9,6.7-3.8    c2.5-0.9,5.1-1.3,7.7-1.3c0.9,0,1.8,0.1,2.9,0.2c1.1,0.1,2.2,0.3,3.4,0.6c1.1,0.3,2.2,0.6,3.3,0.9c1.1,0.4,2,0.8,2.7,1.2l0.7,5.9    c0,0.2,0.1,0.4,0.1,0.7c0,0.2,0.1,0.4,0.1,0.6c0,0.2-0.1,0.3-0.4,0.3c-0.3,0-0.5,0.1-0.6,0.1c-0.2,0-0.7-0.8-1.4-2.5    c-0.4-0.9-0.9-1.7-1.6-2.4c-0.7-0.7-1.5-1.4-2.5-1.9c-0.9-0.5-2-0.9-3-1.2c-1.1-0.3-2.2-0.4-3.3-0.4c-2.5,0-4.6,0.5-6.5,1.4    c-1.9,0.9-3.5,2.2-4.8,3.8c-1.3,1.6-2.3,3.4-3,5.5c-0.7,2.1-1,4.3-1,6.6c0,2.1,0.4,4.2,1.2,6.1c0.8,2,1.9,3.7,3.3,5.2    c1.4,1.5,3,2.7,4.9,3.6c1.9,0.9,3.9,1.4,6,1.4c0.8,0,1.5-0.1,2.4-0.2c0.8-0.1,1.7-0.3,2.5-0.5c0.8-0.2,1.6-0.5,2.3-0.8    c0.7-0.3,1.3-0.7,1.8-1.1c0.8-0.6,1.4-1.5,1.8-2.5c0.4-1,0.8-2,1.1-3c0.1-0.1,0.1-0.1,0.2-0.1H40c0.2,0,0.4,0,0.7,0.1    c0.3,0.1,0.4,0.3,0.3,0.7L39.8,44.1z"/>
		<path d="M52.2,40.7c0,0.5,0,1,0.1,1.5c0,0.5,0.2,0.9,0.4,1.3c0.3,0.4,0.6,0.7,1.2,0.9c0.5,0.2,1.3,0.3,2.3,0.3    c0.2,0,0.4,0.2,0.4,0.7c0,0.2,0,0.4-0.1,0.5c0,0.1-0.2,0.2-0.4,0.2c-0.9,0-1.8,0-2.7-0.1c-0.9-0.1-1.8-0.1-2.7-0.1c-1,0-2,0-3,0.1    c-1,0.1-2,0.1-3,0.1c-0.1,0-0.2-0.1-0.2-0.4v-0.5c0-0.3,0.1-0.4,0.2-0.5c0.1-0.1,0.4-0.1,0.9-0.1c1.1-0.1,1.9-0.4,2.2-0.9    c0.3-0.5,0.5-1.5,0.5-2.8V29.6c0-1-0.5-1.6-1.5-1.9c-0.1,0-0.2,0-0.3-0.1c-0.2-0.1-0.3-0.1-0.5-0.2c-0.2-0.1-0.4-0.2-0.5-0.4    c-0.1-0.1-0.2-0.3-0.2-0.5c0-0.2,0.1-0.3,0.2-0.4c0.1-0.1,0.3-0.2,0.6-0.3l3.8-1.7c0.6-0.3,1.1-0.5,1.5-0.7    c0.4-0.2,0.6-0.3,0.7-0.3c0.2,0,0.3,0.1,0.3,0.2c0.1,0.1,0.1,0.2,0.1,0.3l-0.1,5.3l0.1,0.1c0.4-0.5,0.9-1.1,1.4-1.8    c0.5-0.7,1-1.3,1.6-1.9c0.6-0.6,1.2-1.1,1.9-1.5c0.7-0.4,1.4-0.6,2.2-0.6c0.9,0,1.6,0.2,2.1,0.7c0.5,0.4,0.8,1.1,0.8,2.1    c0,0.5-0.2,1-0.6,1.4c-0.4,0.4-0.9,0.6-1.5,0.6c-0.3,0-0.6-0.1-0.9-0.2l-0.8-0.3c-0.2-0.1-0.5-0.2-0.8-0.3c-0.3-0.1-0.6-0.2-1-0.2    c-0.3,0-0.6,0.1-1,0.3c-0.3,0.2-0.7,0.4-1,0.7c-0.3,0.3-0.7,0.6-1,1c-0.3,0.4-0.6,0.7-0.8,1l-0.8,1V40.7z"/>
		<path d="M68.7,32.5c0,0.2-0.1,0.4-0.1,0.5c0,0.2,0,0.4,0,0.5v1.1c0,1.1,0.2,2.2,0.6,3.3c0.4,1.1,1,2,1.7,2.8    c0.7,0.8,1.6,1.5,2.6,2c1,0.5,2.1,0.8,3.2,0.8c0.5,0,0.9-0.1,1.4-0.2c0.4-0.1,0.9-0.3,1.3-0.5c0.4-0.2,0.9-0.5,1.4-0.9    c0.5-0.4,1.1-0.9,1.7-1.5l0.9,0.7c-1,1.7-2.3,3-3.8,4.1c-1.5,1.1-3.3,1.6-5.4,1.6c-1.3,0-2.5-0.3-3.7-0.9c-1.2-0.6-2.2-1.4-3-2.4    c-0.9-1-1.5-2.1-2-3.4c-0.5-1.3-0.7-2.6-0.7-4.1c0-1.5,0.2-3,0.7-4.6c0.5-1.5,1.2-2.9,2.1-4.2c0.9-1.2,2.1-2.3,3.4-3    c1.3-0.8,2.8-1.2,4.5-1.2c1.1,0,2.2,0.2,3.1,0.6c1,0.4,1.8,1,2.5,1.6c0.7,0.7,1.2,1.5,1.6,2.4c0.4,0.9,0.6,1.9,0.6,3v1.6H68.7z     M77.5,18.8h-2.1l-7.8-5c-0.3-0.2-0.6-0.4-0.9-0.8S66,12.3,66,11.9c0-1.3,0.6-1.9,1.8-1.9c0.4,0,0.8,0.1,1.2,0.4    c0.4,0.3,0.7,0.5,0.9,0.8L77.5,18.8z M77.6,31c0.3,0,0.7-0.2,1-0.6c0.3-0.4,0.5-0.8,0.5-1.3c0-1.3-0.4-2.3-1.3-3.1    c-0.8-0.8-1.9-1.2-3.1-1.2c-0.8,0-1.5,0.2-2.1,0.6c-0.6,0.4-1.2,0.9-1.7,1.5c-0.5,0.6-0.9,1.3-1.2,2.1c-0.3,0.8-0.6,1.5-0.7,2.2    L77.6,31z"/>
		<path d="M93.6,42.1c0,0.6,0,1.1,0.1,1.4c0.1,0.3,0.2,0.6,0.4,0.8c0.2,0.2,0.5,0.3,0.9,0.3c0.4,0.1,1,0.1,1.6,0.1    c0.1,0,0.1,0.1,0.1,0.2v0.7c0,0.4-0.1,0.6-0.2,0.6c-0.6,0-1.3,0-2.2-0.1c-0.9-0.1-1.8-0.1-2.6-0.1c-0.3,0-0.7,0-1.3,0.1    C90.1,46,89.5,46,89,46c-0.5,0-1,0-1.5,0.1c-0.5,0-0.8,0.1-1.1,0.1c-0.2,0-0.3-0.1-0.3-0.3V45c0-0.2,0.1-0.3,0.3-0.3h0.5    c1,0,1.7-0.2,2.1-0.5c0.4-0.3,0.7-1,0.7-2.1V29c0-0.4-0.1-0.7-0.3-1.1c-0.2-0.3-0.4-0.5-0.7-0.6L87,26.9c-0.2-0.1-0.3-0.3-0.3-0.6    c0-0.3,0.1-0.4,0.3-0.5c1.1-0.4,2.2-0.8,3.2-1.2c1.1-0.4,2.1-0.9,3.2-1.4c0.2,0,0.3,0.2,0.3,0.6c0,0.6,0,1.2-0.1,1.8    c-0.1,0.6-0.1,1.1-0.1,1.5c0.6-0.4,1.2-0.8,1.9-1.3c0.6-0.5,1.3-0.9,2-1.3s1.3-0.7,2-0.9c0.7-0.3,1.4-0.4,2.2-0.4    c1.5,0,2.7,0.4,3.6,1c0.9,0.7,1.8,1.8,2.5,3.4c0.6-0.5,1.3-1.1,2-1.6c0.7-0.5,1.3-1,2-1.4c0.7-0.4,1.4-0.7,2.1-1    c0.7-0.3,1.4-0.4,2.2-0.4c2.3,0,3.9,0.6,4.9,1.9c1,1.3,1.5,2.9,1.5,4.9v12.5c0,0.6,0.1,1,0.3,1.3c0.2,0.3,0.4,0.5,0.8,0.6    c0.3,0.1,0.7,0.2,1.1,0.2c0.4,0,0.8,0,1.3,0c0.1,0,0.2,0.1,0.2,0.4v0.7c0,0.2-0.1,0.4-0.3,0.4c-0.9,0-1.7,0-2.5-0.1    c-0.8-0.1-1.7-0.1-2.5-0.1c-0.9,0-1.8,0-2.6,0.1c-0.9,0.1-1.8,0.1-2.7,0.1c-0.2,0-0.3-0.1-0.3-0.3v-0.6c0-0.3,0.1-0.5,0.3-0.5    c0.4,0,0.8,0,1.2,0c0.4,0,0.7-0.1,1-0.2c0.3-0.1,0.5-0.3,0.7-0.6c0.2-0.3,0.3-0.7,0.3-1.2V30.1c0-0.7-0.1-1.3-0.4-1.8    c-0.3-0.5-0.6-0.9-1.1-1.2c-0.4-0.3-0.9-0.6-1.5-0.7c-0.5-0.2-1.1-0.2-1.6-0.2c-0.9,0-1.9,0.3-3.1,0.9c-1.2,0.6-2.1,1.3-2.9,2.2    v13.2c0,0.6,0.1,1.2,0.3,1.5c0.2,0.4,0.7,0.6,1.6,0.6l1.5,0.1c0,0,0.1,0.1,0.1,0.3c0,0.2,0.1,0.4,0.1,0.6c0,0.1,0,0.2,0,0.3    c0,0.2-0.1,0.2-0.2,0.2c-0.9,0-1.7,0-2.5-0.1c-0.8-0.1-1.6-0.1-2.5-0.1c-0.9,0-1.8,0-2.6,0.1c-0.9,0.1-1.8,0.1-2.7,0.1    c-0.2,0-0.3-0.1-0.3-0.3v-0.6c0-0.3,0.1-0.5,0.3-0.5c0.4,0,0.8,0,1.2,0c0.4,0,0.7-0.1,1-0.2c0.3-0.1,0.5-0.3,0.7-0.6    c0.2-0.3,0.3-0.7,0.3-1.2V31.1c0-0.8-0.1-1.5-0.4-2.1s-0.6-1.1-1-1.6c-0.4-0.4-0.9-0.8-1.5-1c-0.5-0.2-1.1-0.3-1.6-0.3    c-1.5,0-2.7,0.3-3.6,0.8c-0.9,0.5-1.7,1.2-2.4,1.9V42.1z"/>
		<path d="M132.8,32.5c0,0.2-0.1,0.4-0.1,0.5c0,0.2,0,0.4,0,0.5v1.1c0,1.1,0.2,2.2,0.6,3.3c0.4,1.1,1,2,1.7,2.8    c0.7,0.8,1.6,1.5,2.6,2c1,0.5,2.1,0.8,3.2,0.8c0.5,0,0.9-0.1,1.4-0.2c0.4-0.1,0.9-0.3,1.3-0.5c0.4-0.2,0.9-0.5,1.4-0.9    c0.5-0.4,1.1-0.9,1.7-1.5l0.9,0.7c-1,1.7-2.3,3-3.8,4.1c-1.5,1.1-3.3,1.6-5.4,1.6c-1.3,0-2.5-0.3-3.7-0.9c-1.2-0.6-2.2-1.4-3-2.4    c-0.9-1-1.5-2.1-2-3.4c-0.5-1.3-0.7-2.6-0.7-4.1c0-1.5,0.2-3,0.7-4.6c0.5-1.5,1.2-2.9,2.1-4.2c0.9-1.2,2.1-2.3,3.4-3    c1.3-0.8,2.8-1.2,4.5-1.2c1.1,0,2.2,0.2,3.1,0.6c1,0.4,1.8,1,2.5,1.6c0.7,0.7,1.2,1.5,1.6,2.4c0.4,0.9,0.6,1.9,0.6,3v1.6H132.8z     M141.7,31c0.3,0,0.7-0.2,1-0.6c0.3-0.4,0.5-0.8,0.5-1.3c0-1.3-0.4-2.3-1.3-3.1c-0.8-0.8-1.9-1.2-3.1-1.2c-0.8,0-1.5,0.2-2.1,0.6    c-0.6,0.4-1.2,0.9-1.7,1.5c-0.5,0.6-0.9,1.3-1.2,2.1c-0.3,0.8-0.6,1.5-0.7,2.2L141.7,31z"/>
		<path d="M181.4,37.9c-0.1,0.2-0.1,0.4-0.2,0.8c-0.1,0.3-0.2,0.7-0.3,1.1c-0.1,0.4-0.2,0.8-0.2,1.1c-0.1,0.3-0.1,0.6-0.1,0.7    c0,0.8,0.4,1.2,1.1,1.2c0.3,0,0.7-0.2,1.2-0.6c0.5-0.4,0.9-0.9,1.3-1.5c0.4-0.6,0.8-1.1,1.2-1.7c0.4-0.6,0.6-1,0.8-1.3l1.2,0.6    c-0.6,1-1.3,2-1.9,3c-0.7,1-1.4,1.9-2.1,2.7c-0.7,0.8-1.5,1.5-2.2,2c-0.8,0.5-1.6,0.7-2.4,0.7c-0.5,0-0.9-0.2-1.4-0.6    c-0.4-0.4-0.7-1-0.7-1.8c0-0.4,0.1-1,0.3-1.8c0.2-0.7,0.4-1.5,0.6-2.3c0.2-0.8,0.5-1.5,0.7-2.3c0.2-0.7,0.4-1.3,0.5-1.8l-0.1-0.1    c-0.5,0.9-1.2,1.9-2,3.1c-0.8,1.2-1.7,2.4-2.7,3.5c-1,1.1-2.1,2-3.2,2.8c-1.1,0.8-2.3,1.2-3.4,1.2c-1,0-1.8-0.2-2.4-0.6    c-0.6-0.4-1.1-0.9-1.4-1.5c-0.3-0.6-0.5-1.3-0.6-2c-0.1-0.8-0.2-1.6-0.2-2.4c0-1.9,0.4-3.8,1.2-5.8c0.8-2,1.9-3.9,3.3-5.6    c1.3-1.7,2.9-3.1,4.6-4.2c1.7-1.1,3.5-1.6,5.4-1.6c0.7,0,1.4,0.1,2.1,0.3c0.7,0.2,1.4,0.5,2,0.8l0.3-0.3l2.5-10    c0.1-0.5,0.3-1,0.4-1.6c0.1-0.6,0.2-1.1,0.2-1.6c0-0.5-0.1-0.9-0.3-1.2c-0.2-0.3-0.4-0.5-0.7-0.6c-0.3-0.1-0.7-0.2-1-0.2    c-0.4,0-0.8,0-1.2,0l0.2-1.1c0.9-0.1,1.7-0.2,2.5-0.4c0.8-0.2,1.6-0.3,2.3-0.5c0.7-0.2,1.3-0.3,1.8-0.4c0.5-0.1,0.9-0.2,1-0.2    c0.3,0,0.5,0.1,0.5,0.4c0,0.3-0.1,0.6-0.2,0.9c-0.1,0.2-0.2,0.6-0.3,1.2c-0.2,0.6-0.3,1.2-0.5,2L181.4,37.9z M169.5,43.3    c0.6,0,1.3-0.3,2.1-0.8c0.8-0.6,1.5-1.3,2.3-2.2c0.8-0.9,1.5-1.9,2.3-3c0.7-1.1,1.4-2.2,2-3.3c0.6-1.1,1-2,1.4-2.9    c0.3-0.9,0.5-1.6,0.5-2.1c0-1.2-0.3-2.1-0.8-2.9c-0.6-0.8-1.5-1.2-2.7-1.2c-0.9,0-1.7,0.3-2.5,0.8c-0.8,0.6-1.6,1.3-2.3,2.2    c-0.7,0.9-1.4,1.9-1.9,3c-0.6,1.1-1.1,2.3-1.5,3.4c-0.4,1.1-0.8,2.2-1,3.3c-0.2,1-0.4,1.9-0.4,2.6c0,0.8,0.2,1.5,0.6,2.1    C167.9,43,168.6,43.3,169.5,43.3z"/>
		<path d="M190.5,39.1c0-1.7,0.3-3.4,0.9-5.3c0.6-1.9,1.5-3.6,2.7-5.2c1.1-1.6,2.5-2.9,4.1-3.9s3.3-1.5,5.2-1.5    c0.7,0,1.4,0.1,2.1,0.2c0.7,0.1,1.3,0.3,1.9,0.7c0.5,0.3,1,0.8,1.3,1.3c0.3,0.5,0.5,1.2,0.5,2.1c0,1.5-0.5,2.7-1.6,3.7    c-1.1,1-2.3,1.8-3.9,2.4c-1.5,0.6-3.1,1-4.7,1.3c-1.6,0.3-3,0.4-4.1,0.5c-0.1,0.6-0.2,1.2-0.3,1.7c-0.1,0.6-0.2,1.2-0.2,1.7    c0,1.3,0.4,2.5,1.1,3.6c0.7,1,1.8,1.6,3.3,1.6c1.3,0,2.4-0.2,3.3-0.7c0.9-0.5,1.8-1.2,2.8-2.2c0.1,0,0.3,0.1,0.5,0.3    c0.2,0.2,0.4,0.4,0.4,0.6c-1,1.6-2.3,2.8-3.8,3.7c-1.5,0.9-3.2,1.3-5,1.3c-1.2,0-2.2-0.2-3.1-0.6c-0.9-0.4-1.5-1-2.1-1.6    c-0.5-0.7-0.9-1.5-1.2-2.4C190.7,41.2,190.5,40.2,190.5,39.1z M205.7,27.4c0-0.8-0.2-1.4-0.6-2c-0.4-0.5-1-0.8-1.9-0.8    c-1,0-2,0.3-2.8,1c-0.9,0.7-1.6,1.5-2.3,2.5s-1.2,2-1.7,3.1c-0.5,1.1-0.8,2.1-1.1,2.9c0.9-0.1,1.9-0.2,3.1-0.5    c1.2-0.3,2.3-0.6,3.4-1.2c1.1-0.5,2-1.2,2.7-2C205.4,29.6,205.7,28.6,205.7,27.4z"/>
		<path d="M232.4,15.1c0.1-0.3,0.2-0.7,0.3-1.2c0.1-0.4,0.2-0.9,0.3-1.3c0.1-0.4,0.2-0.8,0.2-1.1c0.1-0.3,0.1-0.5,0.1-0.6    c0-0.4-0.1-0.8-0.3-1c-0.2-0.3-0.4-0.5-0.7-0.6c-0.3-0.2-0.6-0.3-1-0.4s-0.7-0.2-1-0.3l0.4-1.2c0.6-0.1,1.4-0.2,2.2-0.3    c0.8-0.2,1.6-0.3,2.4-0.5c0.8-0.2,1.4-0.3,2-0.4c0.6-0.1,0.9-0.2,1.1-0.2c0.2,0,0.3,0.1,0.3,0.3c0,0.2-0.3,1.2-0.8,3l-7.9,26.9    c-0.3,1.1-0.7,2.2-0.9,3.2c-0.3,1-0.4,1.8-0.4,2.4c0,0.3,0.1,0.6,0.3,0.8c0.2,0.2,0.5,0.3,0.8,0.3c0.4,0,0.8-0.2,1.3-0.5    c0.4-0.3,0.9-0.7,1.3-1.1c0.4-0.4,0.9-0.9,1.3-1.3c0.4-0.4,0.8-0.8,1.1-1.1h0.2l0.8,0.8V40c-0.4,0.6-1,1.3-1.7,2.1    c-0.7,0.8-1.5,1.5-2.4,2.3c-0.9,0.7-1.7,1.3-2.6,1.8c-0.9,0.5-1.7,0.7-2.5,0.7c-0.6,0-1.1-0.2-1.5-0.6c-0.4-0.4-0.7-1-0.7-1.6    c0-0.1,0.1-0.5,0.2-1c0.1-0.5,0.3-1.2,0.5-2L232.4,15.1z"/>
		<path d="M260.3,39c-0.3,0.6-0.8,1.4-1.4,2.3c-0.6,0.9-1.3,1.8-2,2.6c-0.8,0.8-1.5,1.5-2.4,2.1c-0.8,0.6-1.6,0.9-2.4,0.9    c-0.6,0-1.1-0.3-1.4-0.9c-0.3-0.6-0.5-1.2-0.5-1.7c0-1.3,0.2-2.6,0.6-3.9c0.4-1.3,0.7-2.5,1-3.7l-0.1-0.1    c-0.6,0.9-1.3,1.9-2.2,3.1c-0.9,1.2-1.9,2.3-2.9,3.4c-1.1,1.1-2.2,2-3.4,2.7c-1.2,0.7-2.3,1.1-3.5,1.1c-0.6,0-1-0.1-1.4-0.4    c-0.4-0.3-0.6-0.6-0.8-0.9s-0.3-0.8-0.4-1.3c-0.1-0.5-0.1-1-0.1-1.4c0-1.1,0.3-2.2,0.8-3.6c0.5-1.3,1.2-2.6,2.2-4    c0.9-1.3,2-2.6,3.1-3.9c1.2-1.3,2.5-2.4,3.8-3.4c1.3-1,2.7-1.8,4-2.4c1.4-0.6,2.7-0.9,3.9-0.9c0.2,0,0.5,0,0.7,0    c0.2,0,0.4,0,0.6,0.1c0.3-0.3,0.5-0.7,0.8-1.2c0.2-0.4,0.6-0.7,1.1-0.7c0.2,0,0.5,0,0.8,0.1c0.4,0,0.6,0.2,0.6,0.5    c0,0.1-0.1,0.5-0.4,1.2c-0.3,0.7-0.6,1.6-1,2.6c-0.4,1.1-0.9,2.2-1.4,3.5c-0.5,1.3-0.9,2.6-1.4,3.9c-0.4,1.3-0.8,2.6-1,3.8    c-0.3,1.2-0.4,2.3-0.4,3.1c0,0.3,0.1,0.5,0.2,0.7c0.2,0.2,0.4,0.3,0.6,0.3c0.4,0,0.9-0.2,1.4-0.6c0.5-0.4,1-0.9,1.5-1.4    c0.5-0.5,0.9-1,1.2-1.5c0.4-0.5,0.6-0.8,0.7-1L260.3,39z M240.5,41.1c0,0.6,0.1,1.1,0.4,1.6c0.3,0.4,0.8,0.6,1.4,0.6    c0.6,0,1.3-0.3,2.1-0.8c0.8-0.6,1.6-1.3,2.5-2.2c0.9-0.9,1.7-1.9,2.5-3c0.8-1.1,1.6-2.2,2.2-3.2c0.6-1.1,1.2-2,1.6-2.9    c0.4-0.9,0.6-1.6,0.6-2.1c0-0.5-0.2-0.8-0.7-0.9c-0.4-0.2-0.8-0.2-1.1-0.2c-0.9,0-1.8,0.2-2.7,0.7c-0.9,0.4-1.8,1-2.6,1.7    c-0.9,0.7-1.7,1.5-2.4,2.5c-0.8,0.9-1.4,1.9-2,2.9c-0.6,1-1,2-1.3,2.9C240.7,39.4,240.5,40.3,240.5,41.1z"/>
		<path d="M309.7,44.1c-1.7,0.9-3.6,1.5-5.7,2c-2,0.5-4.2,0.7-6.6,0.7c-2.5,0-5-0.4-7.6-1.3c-2.5-0.9-4.8-2.1-6.8-3.7    c-2-1.6-3.7-3.6-4.9-5.9c-1.3-2.3-1.9-5-1.9-7.9c0-2.8,0.6-5.3,1.8-7.7c1.2-2.3,2.8-4.3,4.7-5.9s4.2-2.9,6.7-3.8    c2.5-0.9,5.1-1.3,7.7-1.3c0.9,0,1.8,0.1,2.9,0.2c1.1,0.1,2.2,0.3,3.4,0.6c1.1,0.3,2.2,0.6,3.3,0.9c1.1,0.4,2,0.8,2.7,1.2l0.7,5.9    c0,0.2,0.1,0.4,0.1,0.7c0,0.2,0.1,0.4,0.1,0.6c0,0.2-0.1,0.3-0.4,0.3c-0.3,0-0.5,0.1-0.6,0.1c-0.2,0-0.7-0.8-1.4-2.5    c-0.4-0.9-0.9-1.7-1.6-2.4c-0.7-0.7-1.5-1.4-2.5-1.9c-0.9-0.5-2-0.9-3-1.2c-1.1-0.3-2.2-0.4-3.3-0.4c-2.5,0-4.6,0.5-6.5,1.4    c-1.9,0.9-3.5,2.2-4.8,3.8c-1.3,1.6-2.3,3.4-3,5.5c-0.7,2.1-1,4.3-1,6.6c0,2.1,0.4,4.2,1.2,6.1c0.8,2,1.9,3.7,3.3,5.2    c1.4,1.5,3,2.7,4.9,3.6s3.9,1.4,6,1.4c0.8,0,1.5-0.1,2.4-0.2c0.8-0.1,1.7-0.3,2.5-0.5c0.8-0.2,1.6-0.5,2.3-0.8    c0.7-0.3,1.3-0.7,1.8-1.1c0.8-0.6,1.4-1.5,1.8-2.5c0.4-1,0.8-2,1.1-3c0.1-0.1,0.1-0.1,0.2-0.1h0.4c0.2,0,0.4,0,0.7,0.1    c0.3,0.1,0.4,0.3,0.3,0.7L309.7,44.1z"/>
		<path d="M322,40.7c0,0.5,0,1,0.1,1.5c0,0.5,0.2,0.9,0.4,1.3c0.3,0.4,0.6,0.7,1.2,0.9c0.5,0.2,1.3,0.3,2.3,0.3    c0.2,0,0.4,0.2,0.4,0.7c0,0.2,0,0.4-0.1,0.5c0,0.1-0.2,0.2-0.4,0.2c-0.9,0-1.8,0-2.7-0.1c-0.9-0.1-1.8-0.1-2.7-0.1c-1,0-2,0-3,0.1    c-1,0.1-2,0.1-3,0.1c-0.1,0-0.2-0.1-0.2-0.4v-0.5c0-0.3,0.1-0.4,0.2-0.5c0.1-0.1,0.4-0.1,0.9-0.1c1.1-0.1,1.9-0.4,2.2-0.9    c0.3-0.5,0.5-1.5,0.5-2.8V29.6c0-1-0.5-1.6-1.5-1.9c-0.1,0-0.2,0-0.3-0.1c-0.2-0.1-0.3-0.1-0.5-0.2c-0.2-0.1-0.4-0.2-0.5-0.4    c-0.1-0.1-0.2-0.3-0.2-0.5c0-0.2,0.1-0.3,0.2-0.4c0.1-0.1,0.3-0.2,0.6-0.3l3.8-1.7c0.6-0.3,1.1-0.5,1.5-0.7    c0.4-0.2,0.6-0.3,0.7-0.3c0.2,0,0.3,0.1,0.3,0.2c0.1,0.1,0.1,0.2,0.1,0.3l-0.1,5.3l0.1,0.1c0.4-0.5,0.9-1.1,1.4-1.8    c0.5-0.7,1-1.3,1.6-1.9c0.6-0.6,1.2-1.1,1.9-1.5s1.4-0.6,2.2-0.6c0.9,0,1.6,0.2,2.2,0.7c0.5,0.4,0.8,1.1,0.8,2.1    c0,0.5-0.2,1-0.6,1.4c-0.4,0.4-0.9,0.6-1.5,0.6c-0.3,0-0.6-0.1-0.9-0.2l-0.8-0.3c-0.2-0.1-0.5-0.2-0.8-0.3c-0.3-0.1-0.6-0.2-1-0.2    c-0.3,0-0.6,0.1-1,0.3c-0.3,0.2-0.7,0.4-1,0.7c-0.3,0.3-0.7,0.6-1,1c-0.3,0.4-0.6,0.7-0.8,1l-0.8,1V40.7z"/>
		<path d="M338.5,32.5c0,0.2-0.1,0.4-0.1,0.5c0,0.2,0,0.4,0,0.5v1.1c0,1.1,0.2,2.2,0.6,3.3c0.4,1.1,1,2,1.7,2.8    c0.7,0.8,1.6,1.5,2.6,2c1,0.5,2.1,0.8,3.2,0.8c0.5,0,0.9-0.1,1.4-0.2c0.4-0.1,0.9-0.3,1.3-0.5c0.4-0.2,0.9-0.5,1.4-0.9    c0.5-0.4,1.1-0.9,1.7-1.5l0.9,0.7c-1,1.7-2.3,3-3.8,4.1c-1.5,1.1-3.3,1.6-5.4,1.6c-1.3,0-2.5-0.3-3.7-0.9c-1.2-0.6-2.2-1.4-3-2.4    c-0.9-1-1.5-2.1-2-3.4c-0.5-1.3-0.7-2.6-0.7-4.1c0-1.5,0.2-3,0.7-4.6c0.5-1.5,1.2-2.9,2.1-4.2c0.9-1.2,2.1-2.3,3.4-3    c1.3-0.8,2.8-1.2,4.5-1.2c1.1,0,2.2,0.2,3.1,0.6c1,0.4,1.8,1,2.5,1.6c0.7,0.7,1.2,1.5,1.6,2.4c0.4,0.9,0.6,1.9,0.6,3v1.6H338.5z     M347.3,18.8h-2.1l-7.8-5c-0.3-0.2-0.6-0.4-0.9-0.8s-0.5-0.7-0.5-1.1c0-1.3,0.6-1.9,1.8-1.9c0.4,0,0.8,0.1,1.2,0.4    c0.4,0.3,0.7,0.5,0.9,0.8L347.3,18.8z M347.4,31c0.3,0,0.7-0.2,1-0.6c0.3-0.4,0.5-0.8,0.5-1.3c0-1.3-0.4-2.3-1.3-3.1    c-0.8-0.8-1.9-1.2-3.1-1.2c-0.8,0-1.5,0.2-2.1,0.6c-0.6,0.4-1.2,0.9-1.7,1.5c-0.5,0.6-0.9,1.3-1.2,2.1c-0.3,0.8-0.6,1.5-0.7,2.2    L347.4,31z"/>
		<path d="M363.5,42.1c0,0.6,0,1.1,0.1,1.4c0.1,0.3,0.2,0.6,0.4,0.8c0.2,0.2,0.5,0.3,0.9,0.3c0.4,0.1,1,0.1,1.6,0.1    c0.1,0,0.1,0.1,0.1,0.2v0.7c0,0.4-0.1,0.6-0.2,0.6c-0.6,0-1.3,0-2.2-0.1c-0.9-0.1-1.8-0.1-2.6-0.1c-0.3,0-0.7,0-1.3,0.1    c-0.5,0-1.1,0.1-1.6,0.1c-0.5,0-1,0-1.5,0.1c-0.5,0-0.8,0.1-1.1,0.1c-0.2,0-0.3-0.1-0.3-0.3V45c0-0.2,0.1-0.3,0.3-0.3h0.5    c1,0,1.7-0.2,2.1-0.5c0.4-0.3,0.7-1,0.7-2.1V29c0-0.4-0.1-0.7-0.3-1.1c-0.2-0.3-0.4-0.5-0.7-0.6l-1.7-0.4    c-0.2-0.1-0.3-0.3-0.3-0.6c0-0.3,0.1-0.4,0.3-0.5c1.1-0.4,2.2-0.8,3.2-1.2c1.1-0.4,2.1-0.9,3.2-1.4c0.2,0,0.3,0.2,0.3,0.6    c0,0.6,0,1.2-0.1,1.8c-0.1,0.6-0.1,1.1-0.1,1.5c0.6-0.4,1.2-0.8,1.9-1.3c0.6-0.5,1.3-0.9,2-1.3s1.3-0.7,2-0.9    c0.7-0.3,1.4-0.4,2.2-0.4c1.5,0,2.7,0.4,3.6,1c0.9,0.7,1.8,1.8,2.5,3.4c0.6-0.5,1.3-1.1,2-1.6c0.7-0.5,1.3-1,2-1.4    c0.7-0.4,1.4-0.7,2.1-1c0.7-0.3,1.4-0.4,2.2-0.4c2.3,0,3.9,0.6,4.9,1.9c1,1.3,1.5,2.9,1.5,4.9v12.5c0,0.6,0.1,1,0.3,1.3    c0.2,0.3,0.4,0.5,0.8,0.6c0.3,0.1,0.7,0.2,1.1,0.2c0.4,0,0.8,0,1.3,0c0.1,0,0.2,0.1,0.2,0.4v0.7c0,0.2-0.1,0.4-0.3,0.4    c-0.9,0-1.7,0-2.5-0.1c-0.8-0.1-1.7-0.1-2.5-0.1c-0.9,0-1.8,0-2.6,0.1c-0.9,0.1-1.8,0.1-2.7,0.1c-0.2,0-0.3-0.1-0.3-0.3v-0.6    c0-0.3,0.1-0.5,0.3-0.5c0.4,0,0.8,0,1.2,0c0.4,0,0.7-0.1,1-0.2c0.3-0.1,0.5-0.3,0.7-0.6c0.2-0.3,0.3-0.7,0.3-1.2V30.1    c0-0.7-0.1-1.3-0.4-1.8c-0.3-0.5-0.6-0.9-1.1-1.2c-0.4-0.3-0.9-0.6-1.5-0.7c-0.5-0.2-1.1-0.2-1.6-0.2c-0.9,0-1.9,0.3-3.1,0.9    c-1.2,0.6-2.1,1.3-2.9,2.2v13.2c0,0.6,0.1,1.2,0.3,1.5c0.2,0.4,0.7,0.6,1.6,0.6l1.5,0.1c0,0,0.1,0.1,0.1,0.3    c0,0.2,0.1,0.4,0.1,0.6c0,0.1,0,0.2,0,0.3c0,0.2-0.1,0.2-0.2,0.2c-0.9,0-1.7,0-2.5-0.1c-0.8-0.1-1.6-0.1-2.5-0.1s-1.8,0-2.6,0.1    c-0.9,0.1-1.8,0.1-2.7,0.1c-0.2,0-0.3-0.1-0.3-0.3v-0.6c0-0.3,0.1-0.5,0.3-0.5c0.4,0,0.8,0,1.2,0c0.4,0,0.7-0.1,1-0.2    c0.3-0.1,0.5-0.3,0.7-0.6c0.2-0.3,0.3-0.7,0.3-1.2V31.1c0-0.8-0.1-1.5-0.4-2.1c-0.3-0.6-0.6-1.1-1-1.6c-0.4-0.4-0.9-0.8-1.5-1    c-0.5-0.2-1.1-0.3-1.6-0.3c-1.5,0-2.7,0.3-3.6,0.8c-0.9,0.5-1.7,1.2-2.4,1.9V42.1z"/>
		<path d="M402.7,32.5c0,0.2-0.1,0.4-0.1,0.5c0,0.2,0,0.4,0,0.5v1.1c0,1.1,0.2,2.2,0.6,3.3c0.4,1.1,1,2,1.7,2.8    c0.7,0.8,1.6,1.5,2.6,2c1,0.5,2.1,0.8,3.2,0.8c0.5,0,0.9-0.1,1.4-0.2c0.4-0.1,0.9-0.3,1.3-0.5c0.4-0.2,0.9-0.5,1.4-0.9    c0.5-0.4,1.1-0.9,1.7-1.5l0.9,0.7c-1,1.7-2.3,3-3.8,4.1c-1.5,1.1-3.3,1.6-5.4,1.6c-1.3,0-2.5-0.3-3.7-0.9c-1.2-0.6-2.2-1.4-3-2.4    c-0.9-1-1.5-2.1-2-3.4c-0.5-1.3-0.7-2.6-0.7-4.1c0-1.5,0.2-3,0.7-4.6c0.5-1.5,1.2-2.9,2.1-4.2c0.9-1.2,2.1-2.3,3.4-3    c1.3-0.8,2.8-1.2,4.5-1.2c1.1,0,2.2,0.2,3.1,0.6c1,0.4,1.8,1,2.5,1.6c0.7,0.7,1.2,1.5,1.6,2.4c0.4,0.9,0.6,1.9,0.6,3v1.6H402.7z     M411.6,31c0.3,0,0.7-0.2,1-0.6c0.3-0.4,0.5-0.8,0.5-1.3c0-1.3-0.4-2.3-1.3-3.1c-0.8-0.8-1.9-1.2-3.1-1.2c-0.8,0-1.5,0.2-2.1,0.6    c-0.6,0.4-1.2,0.9-1.7,1.5c-0.5,0.6-0.9,1.3-1.2,2.1c-0.3,0.8-0.6,1.5-0.7,2.2L411.6,31z"/>
	</g>
	<path d="M426.3,44.1c0.9,0,1.9,0.2,2.8,0.7c0.9,0.5,1.6,1.2,2.1,2.1c0.5,0.9,0.8,1.8,0.8,2.8c0,1-0.2,1.9-0.7,2.8   c-0.5,0.9-1.2,1.6-2.1,2.1c-0.9,0.5-1.8,0.7-2.8,0.7c-1,0-1.9-0.2-2.8-0.7c-0.9-0.5-1.6-1.2-2.1-2.1c-0.5-0.9-0.7-1.8-0.7-2.8   c0-1,0.3-1.9,0.8-2.8c0.5-0.9,1.2-1.6,2.1-2.1C424.4,44.4,425.4,44.1,426.3,44.1 M426.3,45.1c-0.8,0-1.6,0.2-2.3,0.6   c-0.8,0.4-1.3,1-1.8,1.7c-0.4,0.8-0.6,1.5-0.6,2.4c0,0.8,0.2,1.6,0.6,2.3c0.4,0.7,1,1.3,1.7,1.7c0.7,0.4,1.5,0.6,2.3,0.6   c0.8,0,1.6-0.2,2.3-0.6c0.7-0.4,1.3-1,1.7-1.7c0.4-0.7,0.6-1.5,0.6-2.3c0-0.8-0.2-1.6-0.6-2.4c-0.4-0.8-1-1.3-1.8-1.7   C427.9,45.3,427.1,45.1,426.3,45.1 M423.8,52.9v-6.1h2.1c0.7,0,1.2,0.1,1.5,0.2c0.3,0.1,0.6,0.3,0.8,0.6c0.2,0.3,0.3,0.6,0.3,0.9   c0,0.4-0.2,0.8-0.5,1.2c-0.3,0.3-0.7,0.5-1.3,0.6c0.2,0.1,0.4,0.2,0.5,0.3c0.2,0.2,0.5,0.6,0.9,1.2l0.7,1.2h-1.2l-0.5-1   c-0.4-0.8-0.8-1.2-1-1.4c-0.2-0.1-0.4-0.2-0.8-0.2h-0.6v2.6H423.8z M424.8,49.5h1.2c0.6,0,1-0.1,1.2-0.3c0.2-0.2,0.3-0.4,0.3-0.7   c0-0.2,0-0.3-0.1-0.5c-0.1-0.1-0.2-0.2-0.4-0.3c-0.2-0.1-0.5-0.1-1-0.1h-1.1V49.5z"/>
	<path d="M426.6,124.6c0.9,0,1.8,0.2,2.6,0.7c0.9,0.5,1.5,1.1,2,2c0.5,0.9,0.7,1.7,0.7,2.7c0,0.9-0.2,1.8-0.7,2.7   c-0.5,0.8-1.1,1.5-2,2c-0.8,0.5-1.7,0.7-2.7,0.7s-1.8-0.2-2.7-0.7c-0.8-0.5-1.5-1.1-2-2c-0.5-0.8-0.7-1.7-0.7-2.7   c0-0.9,0.2-1.8,0.7-2.7c0.5-0.9,1.1-1.5,2-2C424.9,124.8,425.7,124.6,426.6,124.6z M426.6,125.5c-0.8,0-1.5,0.2-2.2,0.6   c-0.7,0.4-1.3,0.9-1.7,1.6c-0.4,0.7-0.6,1.5-0.6,2.2c0,0.8,0.2,1.5,0.6,2.2c0.4,0.7,0.9,1.3,1.7,1.6c0.7,0.4,1.4,0.6,2.2,0.6   c0.8,0,1.5-0.2,2.2-0.6c0.7-0.4,1.3-0.9,1.6-1.6c0.4-0.7,0.6-1.4,0.6-2.2c0-0.8-0.2-1.5-0.6-2.2c-0.4-0.7-1-1.3-1.7-1.6   C428.1,125.7,427.4,125.5,426.6,125.5z M424.3,132.9v-5.7h2c0.7,0,1.2,0.1,1.5,0.2c0.3,0.1,0.5,0.3,0.7,0.6   c0.2,0.3,0.3,0.5,0.3,0.8c0,0.4-0.1,0.8-0.4,1.1c-0.3,0.3-0.7,0.5-1.2,0.5c0.2,0.1,0.4,0.2,0.5,0.3c0.2,0.2,0.5,0.6,0.8,1.1   l0.7,1.1H428l-0.5-0.9c-0.4-0.7-0.7-1.2-1-1.3c-0.2-0.1-0.4-0.2-0.7-0.2h-0.5v2.4H424.3z M425.2,129.6h1.1c0.5,0,0.9-0.1,1.1-0.2   c0.2-0.2,0.3-0.4,0.3-0.6c0-0.2,0-0.3-0.1-0.5c-0.1-0.1-0.2-0.2-0.4-0.3c-0.2-0.1-0.5-0.1-0.9-0.1h-1.1V129.6z"/>
</g>
<g id="rectangle_1_">
	<rect x="0.7" y="59" class="st6" width="422.8" height="35.8"/>
</g>
<g id="poppins_x5F_regular" class="st0">
	<text transform="matrix(1 0 0 1 30.6593 83.8845)" class="st7 st8 st9 st10">CHILD CARE • PRESCHOOL • AFTER SCHOOL</text>
</g>
<g id="poppins_x5F_regular_x5F_outlines">
	<g>
		<path class="st11" d="M23,72.2c1,0.8,1.7,1.8,2.1,3.1h-1.7c-0.3-0.8-0.8-1.5-1.6-2c-0.7-0.5-1.6-0.7-2.6-0.7    c-0.8,0-1.6,0.2-2.2,0.6c-0.7,0.4-1.2,1-1.5,1.7s-0.6,1.6-0.6,2.6c0,1,0.2,1.9,0.6,2.6s0.9,1.3,1.5,1.7c0.7,0.4,1.4,0.6,2.2,0.6    c1,0,1.9-0.2,2.6-0.7c0.7-0.5,1.2-1.2,1.6-2h1.7C24.7,81,24,82.1,23,82.8c-1,0.8-2.3,1.1-3.8,1.1c-1.2,0-2.2-0.3-3.2-0.8    s-1.6-1.3-2.1-2.3c-0.5-1-0.8-2.1-0.8-3.3c0-1.3,0.3-2.4,0.8-3.4c0.5-1,1.2-1.7,2.1-2.3s2-0.8,3.2-0.8C20.7,71.1,22,71.4,23,72.2z    "/>
		<path class="st11" d="M38.1,71.2v12.7h-1.7V78H30v5.9h-1.6V71.2H30v5.5h6.4v-5.5H38.1z"/>
		<path class="st11" d="M43.4,71.2v12.7h-1.6V71.2H43.4z"/>
		<path class="st11" d="M48.8,82.6h4.5v1.3h-6.1V71.2h1.6V82.6z"/>
		<path class="st11" d="M66,80.9c-0.5,1-1.3,1.7-2.3,2.2c-1,0.5-2.2,0.8-3.6,0.8h-4V71.2h4c1.4,0,2.6,0.3,3.6,0.8s1.8,1.2,2.3,2.2    c0.5,1,0.8,2.1,0.8,3.4C66.7,78.8,66.5,79.9,66,80.9z M63.8,81.1c0.9-0.9,1.3-2.1,1.3-3.6c0-1.5-0.4-2.8-1.3-3.6s-2.1-1.3-3.8-1.3    h-2.3v9.8H60C61.6,82.4,62.9,82,63.8,81.1z"/>
		<path class="st11" d="M85,72.2c1,0.8,1.7,1.8,2.1,3.1h-1.7c-0.3-0.8-0.8-1.5-1.6-2c-0.7-0.5-1.6-0.7-2.6-0.7    c-0.8,0-1.6,0.2-2.2,0.6c-0.7,0.4-1.2,1-1.5,1.7s-0.6,1.6-0.6,2.6c0,1,0.2,1.9,0.6,2.6s0.9,1.3,1.5,1.7c0.7,0.4,1.4,0.6,2.2,0.6    c1,0,1.9-0.2,2.6-0.7c0.7-0.5,1.2-1.2,1.6-2h1.7C86.7,81,86,82.1,85,82.8c-1,0.8-2.3,1.1-3.8,1.1c-1.2,0-2.2-0.3-3.2-0.8    s-1.6-1.3-2.1-2.3c-0.5-1-0.8-2.1-0.8-3.3c0-1.3,0.3-2.4,0.8-3.4c0.5-1,1.2-1.7,2.1-2.3s2-0.8,3.2-0.8C82.7,71.1,84,71.4,85,72.2z    "/>
		<path class="st11" d="M97.8,81h-5.6l-1.1,2.9h-1.8l4.7-12.5H96l4.7,12.5h-1.8L97.8,81z M97.3,79.7L95,73.3l-2.3,6.4H97.3z"/>
		<path class="st11" d="M110.1,83.9l-3.3-5.2H105v5.2h-1.6V71.2h4.2c1.4,0,2.5,0.3,3.2,1c0.7,0.7,1.1,1.6,1.1,2.7    c0,1-0.3,1.9-0.9,2.5c-0.6,0.6-1.4,1-2.5,1.2l3.5,5.2H110.1z M105,77.5h2.4c1.9,0,2.8-0.8,2.8-2.4c0-1.6-0.9-2.4-2.8-2.4H105V77.5    z"/>
		<path class="st11" d="M116.6,72.5v4.3h4.8v1.3h-4.8v4.4h5.4v1.3h-7V71.2h7v1.3H116.6z"/>
		<path class="st11" d="M131,76.3c0.4-0.4,1-0.6,1.6-0.6c0.6,0,1.1,0.2,1.6,0.6s0.6,1,0.6,1.6c0,0.6-0.2,1.1-0.6,1.6    c-0.4,0.4-1,0.6-1.6,0.6c-0.6,0-1.1-0.2-1.6-0.6c-0.4-0.4-0.6-0.9-0.6-1.6C130.3,77.3,130.5,76.7,131,76.3z"/>
		<path class="st11" d="M145.3,78.8v5.1h-1.6V71.2h4c1.5,0,2.5,0.3,3.3,1s1.1,1.6,1.1,2.8c0,1.2-0.4,2.1-1.1,2.8s-1.8,1-3.2,1H145.3    z M149.7,76.8c0.4-0.4,0.7-1,0.7-1.8c0-0.8-0.2-1.4-0.7-1.8s-1.2-0.6-2.2-0.6h-2.3v4.8h2.3C148.5,77.4,149.3,77.2,149.7,76.8z"/>
		<path class="st11" d="M161.7,83.9l-3.3-5.2h-1.8v5.2H155V71.2h4.2c1.4,0,2.5,0.3,3.2,1c0.7,0.7,1.1,1.6,1.1,2.7    c0,1-0.3,1.9-0.9,2.5c-0.6,0.6-1.4,1-2.5,1.2l3.5,5.2H161.7z M156.6,77.5h2.4c1.9,0,2.8-0.8,2.8-2.4c0-1.6-0.9-2.4-2.8-2.4h-2.4    V77.5z"/>
		<path class="st11" d="M168.2,72.5v4.3h4.8v1.3h-4.8v4.4h5.4v1.3h-7V71.2h7v1.3H168.2z"/>
		<path class="st11" d="M184.4,82.3c-0.3,0.5-0.7,0.9-1.3,1.3c-0.6,0.3-1.3,0.5-2.2,0.5c-0.8,0-1.6-0.2-2.2-0.5    c-0.7-0.3-1.2-0.7-1.6-1.3s-0.6-1.1-0.7-1.8h1.7c0,0.4,0.2,0.7,0.4,1.1s0.5,0.6,0.9,0.8c0.4,0.2,0.9,0.3,1.4,0.3    c0.7,0,1.3-0.2,1.7-0.6c0.4-0.4,0.6-0.9,0.6-1.5c0-0.5-0.1-0.9-0.4-1.3s-0.6-0.6-1-0.8c-0.4-0.2-0.9-0.4-1.6-0.6    c-0.8-0.3-1.4-0.5-1.9-0.7c-0.5-0.2-0.9-0.6-1.2-1.1s-0.5-1.1-0.5-1.9c0-0.7,0.2-1.2,0.5-1.7c0.3-0.5,0.8-0.9,1.4-1.2    c0.6-0.3,1.3-0.4,2.1-0.4c1.2,0,2.2,0.3,3,0.9c0.7,0.6,1.2,1.4,1.3,2.3h-1.8c-0.1-0.5-0.4-0.9-0.8-1.3c-0.4-0.4-1-0.6-1.7-0.6    c-0.7,0-1.2,0.2-1.6,0.5c-0.4,0.3-0.6,0.8-0.6,1.4c0,0.5,0.1,0.9,0.4,1.2c0.3,0.3,0.6,0.5,1,0.7c0.4,0.2,0.9,0.4,1.6,0.6    c0.8,0.3,1.5,0.5,2,0.8c0.5,0.2,0.9,0.6,1.3,1.1c0.3,0.5,0.5,1.1,0.5,1.9C184.8,81.2,184.7,81.7,184.4,82.3z"/>
		<path class="st11" d="M197.5,72.2c1,0.8,1.7,1.8,2.1,3.1h-1.7c-0.3-0.8-0.8-1.5-1.6-2c-0.7-0.5-1.6-0.7-2.6-0.7    c-0.8,0-1.6,0.2-2.2,0.6c-0.7,0.4-1.2,1-1.5,1.7s-0.6,1.6-0.6,2.6c0,1,0.2,1.9,0.6,2.6s0.9,1.3,1.5,1.7c0.7,0.4,1.4,0.6,2.2,0.6    c1,0,1.9-0.2,2.6-0.7c0.7-0.5,1.2-1.2,1.6-2h1.7c-0.4,1.3-1.1,2.4-2.1,3.1c-1,0.8-2.3,1.1-3.8,1.1c-1.2,0-2.2-0.3-3.2-0.8    s-1.6-1.3-2.1-2.3c-0.5-1-0.8-2.1-0.8-3.3c0-1.3,0.3-2.4,0.8-3.4c0.5-1,1.2-1.7,2.1-2.3s2-0.8,3.2-0.8    C195.2,71.1,196.5,71.4,197.5,72.2z"/>
		<path class="st11" d="M212.6,71.2v12.7H211V78h-6.4v5.9h-1.6V71.2h1.6v5.5h6.4v-5.5H212.6z"/>
		<path class="st11" d="M225.3,71.9c0.9,0.6,1.7,1.3,2.2,2.3c0.5,1,0.8,2.1,0.8,3.4s-0.3,2.4-0.8,3.4c-0.5,1-1.3,1.8-2.2,2.3    c-0.9,0.6-2,0.8-3.2,0.8c-1.2,0-2.2-0.3-3.2-0.8s-1.7-1.3-2.2-2.3s-0.8-2.1-0.8-3.4s0.3-2.4,0.8-3.4s1.3-1.8,2.2-2.3    c1-0.6,2-0.8,3.2-0.8C223.3,71,224.4,71.3,225.3,71.9z M219.8,73.2c-0.7,0.4-1.2,1-1.6,1.7c-0.4,0.8-0.6,1.6-0.6,2.6    c0,1,0.2,1.9,0.6,2.6c0.4,0.8,0.9,1.3,1.6,1.7c0.7,0.4,1.5,0.6,2.3,0.6c0.9,0,1.6-0.2,2.3-0.6c0.7-0.4,1.2-1,1.6-1.7    c0.4-0.7,0.6-1.6,0.6-2.6c0-1-0.2-1.9-0.6-2.6c-0.4-0.8-0.9-1.3-1.6-1.7s-1.5-0.6-2.3-0.6C221.3,72.6,220.5,72.8,219.8,73.2z"/>
		<path class="st11" d="M240.6,71.9c0.9,0.6,1.7,1.3,2.2,2.3s0.8,2.1,0.8,3.4s-0.3,2.4-0.8,3.4s-1.3,1.8-2.2,2.3    c-0.9,0.6-2,0.8-3.2,0.8s-2.2-0.3-3.2-0.8s-1.7-1.3-2.2-2.3s-0.8-2.1-0.8-3.4s0.3-2.4,0.8-3.4s1.3-1.8,2.2-2.3    c1-0.6,2-0.8,3.2-0.8S239.7,71.3,240.6,71.9z M235.1,73.2c-0.7,0.4-1.2,1-1.6,1.7c-0.4,0.8-0.6,1.6-0.6,2.6c0,1,0.2,1.9,0.6,2.6    c0.4,0.8,0.9,1.3,1.6,1.7c0.7,0.4,1.5,0.6,2.3,0.6c0.9,0,1.6-0.2,2.3-0.6c0.7-0.4,1.2-1,1.6-1.7c0.4-0.7,0.6-1.6,0.6-2.6    c0-1-0.2-1.9-0.6-2.6c-0.4-0.8-0.9-1.3-1.6-1.7c-0.7-0.4-1.5-0.6-2.3-0.6C236.6,72.6,235.8,72.8,235.1,73.2z"/>
		<path class="st11" d="M248.6,82.6h4.5v1.3H247V71.2h1.6V82.6z"/>
		<path class="st11" d="M261.7,76.3c0.4-0.4,1-0.6,1.6-0.6c0.6,0,1.1,0.2,1.6,0.6c0.4,0.4,0.6,1,0.6,1.6c0,0.6-0.2,1.1-0.6,1.6    c-0.4,0.4-1,0.6-1.6,0.6c-0.6,0-1.1-0.2-1.6-0.6c-0.4-0.4-0.6-0.9-0.6-1.6C261.1,77.3,261.3,76.7,261.7,76.3z"/>
		<path class="st11" d="M281.8,81h-5.6l-1.1,2.9h-1.8l4.7-12.5h1.9l4.7,12.5h-1.8L281.8,81z M281.4,79.7l-2.3-6.4l-2.3,6.4H281.4z"/>
		<path class="st11" d="M294.6,71.2v1.3H289v4.4h4.7v1.3H289v5.7h-1.6V71.2H294.6z"/>
		<path class="st11" d="M305.4,71.2v1.3h-3.6v11.4h-1.6V72.5h-3.6v-1.3H305.4z"/>
		<path class="st11" d="M309.7,72.5v4.3h4.8v1.3h-4.8v4.4h5.4v1.3h-7V71.2h7v1.3H309.7z"/>
		<path class="st11" d="M325,83.9l-3.3-5.2h-1.8v5.2h-1.6V71.2h4.2c1.4,0,2.5,0.3,3.2,1c0.7,0.7,1.1,1.6,1.1,2.7    c0,1-0.3,1.9-0.9,2.5s-1.4,1-2.5,1.2l3.5,5.2H325z M319.9,77.5h2.4c1.9,0,2.8-0.8,2.8-2.4c0-1.6-0.9-2.4-2.8-2.4h-2.4V77.5z"/>
		<path class="st11" d="M342.9,82.3c-0.3,0.5-0.7,0.9-1.3,1.3c-0.6,0.3-1.3,0.5-2.2,0.5c-0.8,0-1.6-0.2-2.2-0.5s-1.2-0.7-1.6-1.3    c-0.4-0.5-0.6-1.1-0.7-1.8h1.7c0,0.4,0.2,0.7,0.4,1.1s0.5,0.6,0.9,0.8c0.4,0.2,0.9,0.3,1.4,0.3c0.7,0,1.3-0.2,1.7-0.6    c0.4-0.4,0.6-0.9,0.6-1.5c0-0.5-0.1-0.9-0.4-1.3c-0.3-0.3-0.6-0.6-1-0.8c-0.4-0.2-0.9-0.4-1.6-0.6c-0.8-0.3-1.4-0.5-1.9-0.7    c-0.5-0.2-0.9-0.6-1.2-1.1c-0.3-0.5-0.5-1.1-0.5-1.9c0-0.7,0.2-1.2,0.5-1.7c0.3-0.5,0.8-0.9,1.4-1.2c0.6-0.3,1.3-0.4,2.1-0.4    c1.2,0,2.2,0.3,3,0.9c0.7,0.6,1.2,1.4,1.3,2.3h-1.8c-0.1-0.5-0.4-0.9-0.8-1.3s-1-0.6-1.7-0.6c-0.7,0-1.2,0.2-1.6,0.5    c-0.4,0.3-0.6,0.8-0.6,1.4c0,0.5,0.1,0.9,0.4,1.2c0.3,0.3,0.6,0.5,1,0.7c0.4,0.2,0.9,0.4,1.6,0.6c0.8,0.3,1.5,0.5,2,0.8    c0.5,0.2,0.9,0.6,1.3,1.1c0.3,0.5,0.5,1.1,0.5,1.9C343.4,81.2,343.2,81.7,342.9,82.3z"/>
		<path class="st11" d="M356.1,72.2c1,0.8,1.7,1.8,2.1,3.1h-1.7c-0.3-0.8-0.8-1.5-1.6-2c-0.7-0.5-1.6-0.7-2.6-0.7    c-0.8,0-1.6,0.2-2.2,0.6c-0.7,0.4-1.2,1-1.5,1.7c-0.4,0.8-0.6,1.6-0.6,2.6c0,1,0.2,1.9,0.6,2.6c0.4,0.7,0.9,1.3,1.5,1.7    c0.7,0.4,1.4,0.6,2.2,0.6c1,0,1.9-0.2,2.6-0.7c0.7-0.5,1.2-1.2,1.6-2h1.7c-0.4,1.3-1.1,2.4-2.1,3.1c-1,0.8-2.3,1.1-3.8,1.1    c-1.2,0-2.2-0.3-3.1-0.8c-0.9-0.5-1.6-1.3-2.1-2.3c-0.5-1-0.8-2.1-0.8-3.3c0-1.3,0.3-2.4,0.8-3.4c0.5-1,1.2-1.7,2.1-2.3    c0.9-0.5,2-0.8,3.1-0.8C353.8,71.1,355.1,71.4,356.1,72.2z"/>
		<path class="st11" d="M371.2,71.2v12.7h-1.7V78h-6.4v5.9h-1.6V71.2h1.6v5.5h6.4v-5.5H371.2z"/>
		<path class="st11" d="M383.9,71.9c0.9,0.6,1.7,1.3,2.2,2.3s0.8,2.1,0.8,3.4s-0.3,2.4-0.8,3.4s-1.3,1.8-2.2,2.3    c-0.9,0.6-2,0.8-3.2,0.8s-2.2-0.3-3.2-0.8s-1.7-1.3-2.2-2.3s-0.8-2.1-0.8-3.4s0.3-2.4,0.8-3.4s1.3-1.8,2.2-2.3    c1-0.6,2-0.8,3.2-0.8S383,71.3,383.9,71.9z M378.4,73.2c-0.7,0.4-1.2,1-1.6,1.7c-0.4,0.8-0.6,1.6-0.6,2.6c0,1,0.2,1.9,0.6,2.6    c0.4,0.8,0.9,1.3,1.6,1.7c0.7,0.4,1.5,0.6,2.3,0.6c0.9,0,1.6-0.2,2.3-0.6c0.7-0.4,1.2-1,1.6-1.7c0.4-0.7,0.6-1.6,0.6-2.6    c0-1-0.2-1.9-0.6-2.6c-0.4-0.8-0.9-1.3-1.6-1.7c-0.7-0.4-1.5-0.6-2.3-0.6C379.9,72.6,379.1,72.8,378.4,73.2z"/>
		<path class="st11" d="M399.2,71.9c0.9,0.6,1.7,1.3,2.2,2.3s0.8,2.1,0.8,3.4s-0.3,2.4-0.8,3.4s-1.3,1.8-2.2,2.3    c-0.9,0.6-2,0.8-3.2,0.8s-2.2-0.3-3.2-0.8s-1.7-1.3-2.2-2.3s-0.8-2.1-0.8-3.4s0.3-2.4,0.8-3.4s1.3-1.8,2.2-2.3    c1-0.6,2-0.8,3.2-0.8S398.3,71.3,399.2,71.9z M393.7,73.2c-0.7,0.4-1.2,1-1.6,1.7c-0.4,0.8-0.6,1.6-0.6,2.6c0,1,0.2,1.9,0.6,2.6    c0.4,0.8,0.9,1.3,1.6,1.7c0.7,0.4,1.5,0.6,2.3,0.6c0.9,0,1.6-0.2,2.3-0.6c0.7-0.4,1.2-1,1.6-1.7c0.4-0.7,0.6-1.6,0.6-2.6    c0-1-0.2-1.9-0.6-2.6c-0.4-0.8-0.9-1.3-1.6-1.7c-0.7-0.4-1.5-0.6-2.3-0.6C395.2,72.6,394.4,72.8,393.7,73.2z"/>
		<path class="st11" d="M407.2,82.6h4.5v1.3h-6.1V71.2h1.6V82.6z"/>
	</g>
</g>
<g id="specs" class="st0">
	<g class="st1">
		<text transform="matrix(1 0 0 1 -159.6853 352.8958)" style="fill:#231F20; font-family:'ArialMT'; font-size:6px;">CDLC_2c_final</text>
	</g>
	<g class="st1">
		<g>
			<rect x="-161" y="241.3" class="st12" width="53.6" height="75.7"/>
			<rect x="-161.3" y="241.1" width="54" height="47"/>
			<rect x="-157.3" y="291" class="st13" width="48.2" height="26.3"/>
			<g>
				<g>
					<text transform="matrix(1 0 0 1 -157.263 297.0782)" style="fill:#231F20; font-family:'ArialMT'; font-size:8.5009px;">P</text>
				</g>
				<g>
					<text transform="matrix(1 0 0 1 -152.22 297.0782)" style="fill:#231F20; font-family:'ArialMT'; font-size:8.5009px;">AN</text>
				</g>
				<g>
					<text transform="matrix(1 0 0 1 -140.4109 297.0782)" style="fill:#231F20; font-family:'ArialMT'; font-size:8.5009px;">T</text>
				</g>
				<g>
					<text transform="matrix(1 0 0 1 -135.3675 297.0782)" style="fill:#231F20; font-family:'ArialMT'; font-size:8.5009px;">ON</text>
				</g>
				<g>
					<text transform="matrix(1 0 0 1 -122.616 297.0782)" style="fill:#231F20; font-family:'ArialMT'; font-size:8.5009px;">E</text>
				</g>
				<g>
					<text transform="matrix(1 0 0 1 -116.4358 294.5309)" style="fill:#231F20; font-family:'ArialMT'; font-size:6.8007px;">®</text>
				</g>
				<g>
					<text transform="matrix(1 0 0 1 -157.263 304.7285)" style="fill:#231F20; font-family:'ArialMT'; font-size:8.5009px;">Black C</text>
				</g>
			</g>
		</g>
	</g>
	<g class="st1">
		<text transform="matrix(1 0 0 1 -149.4094 182.4104)" style="fill:#231F20; font-family:'ArialMT'; font-size:12px;">Stempel Garamond RomanOsF 100% Black</text>
	</g>
	<g class="st1">
		<text transform="matrix(1 0 0 1 -161.9597 134.388)" style="fill:#231F20; font-family:'ArialMT'; font-size:12px;">Poppins Regular Rev. White</text>
	</g>
	<line class="st14" x1="-11.1" y1="124.6" x2="11.1" y2="84.5"/>
	<line class="st14" x1="-24.2" y1="171.1" x2="-2.1" y2="130.9"/>
	<g class="st1">
		<text transform="matrix(1 0 0 1 -110.7439 111.4153)" style="fill:#231F20; font-family:'ArialMT'; font-size:12px;">R=0, G=40, B=86</text>
	</g>
	<line class="st14" x1="-71.1" y1="100.1" x2="-5.5" y2="71"/>
	<line class="st14" x1="212.1" y1="16.2" x2="234.2" y2="-23.9"/>
	<line class="st14" x1="420.9" y1="16.2" x2="443" y2="-23.9"/>
	<g class="st1">
		<text transform="matrix(1 0 0 1 372.1971 -29.861)" style="fill:#231F20; font-family:'ArialMT'; font-size:12px;">ITC Esprit 100% Black</text>
	</g>
	<g class="st1">
		<g>
			
				<rect x="-112" y="258.4" transform="matrix(0.3544 -0.9351 0.9351 0.3544 -314.5286 114.6809)" class="st12" width="75.7" height="53.6"/>
			
				<rect x="-92.7" y="244.6" transform="matrix(0.3544 -0.9351 0.9351 0.3544 -298.5954 110.667)" class="st6" width="47" height="54"/>
			
				<rect x="-95.2" y="284.8" transform="matrix(0.3544 -0.9351 0.9351 0.3544 -341.8199 122.6931)" class="st13" width="26.3" height="48.2"/>
			<g>
				<g>
					
						<text transform="matrix(0.9351 0.3544 -0.3544 0.9351 -102.0847 293.769)" style="fill:#231F20; font-family:'ArialMT'; font-size:8.5009px;">P</text>
				</g>
				<g>
					
						<text transform="matrix(0.9351 0.3544 -0.3544 0.9351 -97.3686 295.5517)" style="fill:#231F20; font-family:'ArialMT'; font-size:8.5009px;">AN</text>
				</g>
				<g>
					
						<text transform="matrix(0.9351 0.3544 -0.3544 0.9351 -86.3262 299.7374)" style="fill:#231F20; font-family:'ArialMT'; font-size:8.5009px;">T</text>
				</g>
				<g>
					
						<text transform="matrix(0.9351 0.3544 -0.3544 0.9351 -81.6103 301.5243)" style="fill:#231F20; font-family:'ArialMT'; font-size:8.5009px;">ON</text>
				</g>
				<g>
					
						<text transform="matrix(0.9351 0.3544 -0.3544 0.9351 -69.6866 306.0437)" style="fill:#231F20; font-family:'ArialMT'; font-size:8.5009px;">E</text>
				</g>
				<g>
					
						<text transform="matrix(0.9351 0.3544 -0.3544 0.9351 -63.0051 305.8533)" style="fill:#231F20; font-family:'ArialMT'; font-size:6.8007px;">®</text>
				</g>
				
					<text transform="matrix(0.9351 0.3544 -0.3544 0.9351 -104.7971 300.9202)" style="fill:#231F20; font-family:'Helvetica'; font-size:8.5009px;">295 C</text>
			</g>
		</g>
	</g>
	<g class="st1">
		<text transform="matrix(1 0 0 1 170.3591 -29.861)" style="fill:#231F20; font-family:'ArialMT'; font-size:12px;">ITC Esprit Italic 100% Black</text>
	</g>
</g>
</svg>