<svg width="300" height="137" viewBox="0 0 300 137" fill="none" xmlns="http://www.w3.org/2000/svg">
<path d="M19.6071 1H3.38788C2.75458 1 2.14721 1.25131 1.6994 1.69866C1.25158 2.146 1 2.75272 1 3.38536V61.6146C0.999999 62.2478 1.25141 62.855 1.69908 63.3032C2.14675 63.7513 2.75411 64.0038 3.38788 64.0051H19.6071C27.9702 64.0051 35.9909 60.6864 41.9045 54.779C47.8182 48.8716 51.1404 40.8594 51.1404 32.5051C51.1404 24.1508 47.8182 16.1386 41.9045 10.2312C35.9909 4.32385 27.9702 1.00511 19.6071 1.00511V1Z" fill="white"/>
<path d="M66.2654 11.4251H74.738C82.9959 11.4251 89.909 14.9342 89.909 24.302C89.909 32.5869 83.1391 37.0358 75.4999 37.0358H66.2654V11.4251ZM71.9155 31.8258H74.8505C80.0967 31.8258 84.0543 29.8337 84.0543 24.0108C84.0543 18.9847 80.0353 16.6351 75.2596 16.6351H71.9257L71.9155 31.8258Z" fill="white"/>
<path d="M94.6899 11.4251H112.106V16.6351H100.345V21.4109H111.456V26.6158H100.34V31.8258H112.755V37.0358H94.6899V11.4251Z" fill="white"/>
<path d="M118.006 11.4251H125.676L136.578 29.231H136.649V11.4251H142.274V37.0358H134.916L123.754 18.8059H123.677V37.0358H118.052L118.006 11.4251Z" fill="white"/>
<path d="M146.426 11.4251H152.899L159.209 28.2095H159.28L165.723 11.4251H171.772L161.198 37.0358H156.672L146.426 11.4251Z" fill="white"/>
<path d="M176.113 11.4251H193.529V16.6351H181.768V21.4109H192.884V26.6158H181.763V31.8258H194.183V37.0358H176.113V11.4251Z" fill="white"/>
<path d="M199.429 11.4251H209.354C214.6 11.4251 219.018 13.2333 219.018 19.2043C219.018 22.7798 217.101 25.5687 213.481 26.2174L219.995 37.0358H213.235L207.876 26.8201H205.09V37.0358H199.429V11.4251ZM205.08 22.0239H208.408C210.454 22.0239 213.153 21.9524 213.153 19.1686C213.153 16.6147 210.837 16.2009 208.771 16.2009H205.08V22.0239Z" fill="white"/>
<path d="M69.5532 48.13H66.5466V46.0869H74.8812V48.13H71.8542V56.6039H69.5532V48.13Z" fill="white"/>
<path d="M76.3335 46.0562H78.6549V49.979H83.1648V46.0562H85.4862V56.5784H83.1648V52.0324H78.6549V56.5784H76.3335V46.0562Z" fill="white"/>
<path d="M87.4189 46.0562H94.5775V48.1964H89.7404V50.1731H94.3116V52.3133H89.7404V54.4535H94.8536V56.5937H87.4189V46.0562Z" fill="white"/>
<path d="M101.705 46.0562H105.218L107.647 52.9211H107.678L110.117 46.0562H113.614V56.5784H111.293V48.508H111.262L108.496 56.5784H106.721L104.057 48.508H104.027V56.5784H101.705V46.0562Z" fill="white"/>
<path d="M115.726 46.0562H118.047V56.5784H115.726V46.0562Z" fill="white"/>
<path d="M120.251 46.0562H122.572V54.4382H126.873V56.5784H120.225L120.251 46.0562Z" fill="white"/>
<path d="M128.54 46.0562H135.698V48.1964H130.861V50.1731H135.432V52.3133H130.861V54.4535H135.974V56.5937H128.54V46.0562Z" fill="white"/>
<path d="M142.826 46.0562H145.147V49.979H149.657V46.0562H151.979V56.5784H149.657V52.0324H145.147V56.5784H142.826V46.0562Z" fill="white"/>
<path d="M154.095 46.0562H156.417V56.5784H154.095V46.0562Z" fill="white"/>
<path d="M168.367 55.8377C166.997 56.5303 165.479 56.8808 163.944 56.8593C160.656 56.8593 158.263 54.7038 158.263 51.3275C158.263 47.9512 160.656 45.7957 163.944 45.7957C165.611 45.7957 167.083 46.1686 168.142 47.1493L166.506 48.9319C166.18 48.5849 165.783 48.3135 165.341 48.137C164.899 47.9605 164.424 47.8831 163.949 47.9104C161.97 47.9104 160.676 49.3405 160.676 51.302C160.676 53.2634 161.97 54.6935 163.949 54.6935C164.71 54.7079 165.462 54.5323 166.137 54.1828V52.4716H164.251V50.3315H168.372L168.367 55.8377Z" fill="white"/>
<path d="M170.407 46.0562H172.728V49.979H177.238V46.0562H179.559V56.5784H177.238V52.0324H172.728V56.5784H170.407V46.0562Z" fill="white"/>
<path d="M193.59 48.7889C193.345 48.5032 193.038 48.277 192.693 48.1274C192.347 47.9779 191.972 47.9089 191.596 47.9257C189.842 47.9257 188.528 49.3559 188.528 51.3173C188.528 53.2787 189.822 54.7089 191.504 54.7089C191.933 54.7202 192.357 54.622 192.738 54.4236C193.118 54.2251 193.441 53.933 193.677 53.5749L195.61 55.0204C195.167 55.6071 194.59 56.0793 193.928 56.3974C193.265 56.7156 192.535 56.8704 191.8 56.849C188.513 56.849 186.115 54.6935 186.115 51.3173C186.115 47.941 188.513 45.7855 191.8 45.7855C192.474 45.759 193.144 45.8828 193.763 46.1479C194.382 46.413 194.935 46.8127 195.38 47.3178L193.59 48.7889Z" fill="white"/>
<path d="M197.164 46.0562H199.486V56.5784H197.164V46.0562Z" fill="white"/>
<path d="M203.934 48.13H200.927V46.0869H209.262V48.13H206.255V56.6039H203.934V48.13Z" fill="white"/>
<path d="M213.624 52.0886L209.656 46.0562H212.54L214.774 49.9944L217.142 46.0562H219.882L215.925 52.0886V56.5784H213.603L213.624 52.0886Z" fill="white"/>
<path d="M31.5261 21.2475L39.4414 16.9416C39.5592 16.8784 39.6957 16.8597 39.8262 16.8887C39.9567 16.9178 40.0723 16.9927 40.1521 17.0999C40.2213 17.1895 40.2606 17.2984 40.2646 17.4115C40.2666 17.4867 40.2537 17.5615 40.2265 17.6317C40.1993 17.7019 40.1583 17.7659 40.1061 17.8201L33.7606 24.2304C33.9446 24.542 34.1134 24.8587 34.2719 25.1805L47.2902 21.8604C45.2959 16.7041 41.9057 12.2034 37.4983 8.86096C35.632 12.0329 32.4976 17.3502 30.6875 20.4302C30.979 20.6907 31.2551 20.9665 31.5261 21.2475Z" fill="#0096D6"/>
<path d="M20.7319 10.7049V16.1345C21.45 16.1842 22.164 16.2815 22.8692 16.4256L26.8882 8.37059C26.9488 8.25109 27.05 8.15712 27.1738 8.10562C27.2975 8.05411 27.4356 8.04845 27.5632 8.08966C27.6717 8.12478 27.7665 8.19289 27.8343 8.28447C27.9022 8.37606 27.9396 8.48653 27.9416 8.60044C27.944 8.63786 27.944 8.67539 27.9416 8.71281C27.9416 8.71281 27.0314 14.0556 26.4076 17.5851C26.7502 17.7435 27.0825 17.912 27.4302 18.0959L36.1739 7.9211C31.5938 4.71677 26.1495 2.97338 20.558 2.92053H17.1373H16.9839C17.2769 3.16256 17.5569 3.42002 17.8225 3.69181C18.7471 4.61086 19.4803 5.70381 19.9797 6.90753C20.479 8.11125 20.7347 9.40188 20.7319 10.7049Z" fill="#0096D6"/>
<path d="M49.2588 31.4989C49.166 28.7476 48.6892 26.0227 47.8425 23.403L35.6218 28.9756C35.7088 29.3638 35.7803 29.752 35.8366 30.1504L44.8052 31.172C44.9362 31.1891 45.0569 31.2522 45.1457 31.35C45.2344 31.4478 45.2855 31.5739 45.2898 31.7059C45.2941 31.8378 45.2513 31.967 45.1691 32.0703C45.0869 32.1737 44.9706 32.2445 44.841 32.2701L35.9542 33.8842C35.913 34.4222 35.843 34.9576 35.7445 35.4881L48.1339 40.6419C48.9328 37.6613 49.3115 34.584 49.2588 31.4989Z" fill="#0096D6"/>
<path d="M20.6912 18.3411V36.0601L22.445 34.1447C22.9715 33.564 23.7038 33.2109 24.4865 33.1603C25.2692 33.1098 26.0409 33.3658 26.6379 33.874L31.4801 37.9603L33.4436 35.7128C33.9 33.721 33.9219 31.6544 33.5077 29.6534C33.0934 27.6524 32.2528 25.7639 31.043 24.1163C29.8332 22.4687 28.2824 21.1006 26.4962 20.105C24.71 19.1093 22.7301 18.5095 20.6912 18.3462V18.3411Z" fill="#FDB913"/>
<path d="M35.4786 37.7049H35.448C35.3008 37.652 35.1414 37.6427 34.9891 37.678C34.8367 37.7134 34.6978 37.7919 34.5889 37.9041C34.5889 37.9041 32.4567 40.3508 31.6897 41.1527C30.7131 40.3201 25.2061 35.6618 25.2061 35.6618C25.0465 35.5259 24.8399 35.4578 24.6306 35.4721C24.4213 35.4864 24.226 35.582 24.0863 35.7384L20.9008 39.2168C20.7631 39.3656 20.6864 39.5607 20.686 39.7634V61.3031C20.6857 61.4349 20.7176 61.5648 20.7791 61.6815C20.8406 61.7981 20.9298 61.898 21.0389 61.9722C21.177 62.0666 21.3422 62.1132 21.5093 62.105H21.6218C27.3105 61.7029 32.7635 59.6752 37.3309 56.2637C41.8982 52.8523 45.3873 48.2008 47.3823 42.8638L35.4786 37.7049Z" fill="#4F2683"/>
<path d="M10.7917 2.8797H3.50537C3.43602 2.87961 3.36737 2.89362 3.3036 2.92087C3.23984 2.94812 3.18229 2.98805 3.13446 3.03822C3.08663 3.08839 3.04952 3.14775 3.02538 3.2127C3.00124 3.27765 2.99058 3.34683 2.99405 3.41602V61.5789C2.99383 61.7173 3.0467 61.8506 3.1418 61.9513C3.2369 62.052 3.36701 62.1125 3.50537 62.1203H18.0832C18.2265 62.119 18.3636 62.0615 18.465 61.9603C18.5663 61.859 18.6239 61.7221 18.6252 61.5789V10.7049C18.6252 8.62953 17.7999 6.63916 16.3308 5.17165C14.8618 3.70414 12.8693 2.8797 10.7917 2.8797ZM8.93563 42.5114H6.14891V39.5999H8.95097L8.93563 42.5114ZM8.93563 34.9773H6.14891V32.0607H8.95097L8.93563 34.9773ZM8.93563 27.4382H6.14891V24.5216H8.95097L8.93563 27.4382ZM8.93563 19.899H6.14891V16.9722H8.95097L8.93563 19.899ZM8.93563 12.4313H6.14891V9.51477H8.95097L8.93563 12.4313ZM15.455 42.5114H12.653V39.5999H15.455V42.5114ZM15.455 34.9773H12.653V32.0607H15.455V34.9773ZM15.455 27.4382H12.653V24.5216H15.455V27.4382ZM15.455 19.899H12.653V16.9722H15.455V19.899ZM15.455 12.2934H12.653V9.37686H15.455V12.2934Z" fill="#BF311A"/>
<path d="M12.81 94H2.5156C2.11363 94 1.72814 94.1596 1.44391 94.4436C1.15968 94.7276 1 95.1128 1 95.5145V132.485C0.999999 132.887 1.15957 133.273 1.44371 133.558C1.72785 133.842 2.11334 134.002 2.5156 134.003H12.81C18.1181 134.003 23.2088 131.896 26.9622 128.145C30.7156 124.395 32.8243 119.308 32.8243 114.003C32.8243 108.699 30.7156 103.612 26.9622 99.8611C23.2088 96.1104 18.1181 94.0032 12.81 94.0032V94Z" fill="white"/>
<path d="M42.4241 100.619H47.8017C53.043 100.619 57.4307 102.847 57.4307 108.795C57.4307 114.055 53.1339 116.88 48.2852 116.88H42.4241V100.619ZM46.0102 113.572H47.8731C51.2028 113.572 53.7148 112.307 53.7148 108.61C53.7148 105.419 51.1639 103.927 48.1327 103.927H46.0167L46.0102 113.572Z" fill="white"/>
<path d="M60.4653 100.619H71.5191V103.927H64.0547V106.959H71.107V110.264H64.0515V113.572H71.9313V116.88H60.4653V100.619Z" fill="white"/>
<path d="M75.2642 100.619H80.1322L87.0514 111.924H87.0968V100.619H90.6668V116.88H85.9967L78.912 105.305H78.8633V116.88H75.2934L75.2642 100.619Z" fill="white"/>
<path d="M93.302 100.619H97.4107L101.415 111.276H101.461L105.55 100.619H109.389L102.678 116.88H99.8058L93.302 100.619Z" fill="white"/>
<path d="M112.145 100.619H123.199V103.927H115.734V106.959H122.79V110.264H115.731V113.572H123.614V116.88H112.145V100.619Z" fill="white"/>
<path d="M126.944 100.619H133.243C136.573 100.619 139.377 101.767 139.377 105.558C139.377 107.828 138.16 109.599 135.862 110.011L139.997 116.88H135.706L132.305 110.394H130.536V116.88H126.944V100.619ZM130.53 107.349H132.643C133.941 107.349 135.654 107.303 135.654 105.536C135.654 103.914 134.184 103.651 132.873 103.651H130.53V107.349Z" fill="white"/>
<path d="M44.5108 123.924H42.6025V122.627H47.8925V123.924H45.9713V129.304H44.5108V123.924Z" fill="white"/>
<path d="M48.8145 122.607H50.2879V125.098H53.1503V122.607H54.6237V129.288H53.1503V126.402H50.2879V129.288H48.8145V122.607Z" fill="white"/>
<path d="M55.8503 122.607H60.3939V123.966H57.3237V125.221H60.2251V126.58H57.3237V127.939H60.5691V129.298H55.8503V122.607Z" fill="white"/>
<path d="M64.918 122.607H67.1475L68.6891 126.966H68.7086L70.2566 122.607H72.4765V129.288H71.0031V124.164H70.9836L69.2278 129.288H68.1017L66.4108 124.164H66.3914V129.288H64.918V122.607Z" fill="white"/>
<path d="M73.8169 122.607H75.2903V129.288H73.8169V122.607Z" fill="white"/>
<path d="M76.6891 122.607H78.1625V127.929H80.8918V129.288H76.6729L76.6891 122.607Z" fill="white"/>
<path d="M81.9497 122.607H86.4933V123.966H83.4231V125.221H86.3245V126.58H83.4231V127.939H86.6685V129.298H81.9497V122.607Z" fill="white"/>
<path d="M91.0173 122.607H92.4907V125.098H95.3532V122.607H96.8266V129.288H95.3532V126.402H92.4907V129.288H91.0173V122.607Z" fill="white"/>
<path d="M98.1702 122.607H99.6436V129.288H98.1702V122.607Z" fill="white"/>
<path d="M107.228 128.818C106.359 129.257 105.395 129.48 104.421 129.466C102.334 129.466 100.815 128.098 100.815 125.954C100.815 123.81 102.334 122.442 104.421 122.442C105.479 122.442 106.414 122.678 107.085 123.301L106.047 124.433C105.84 124.213 105.588 124.04 105.308 123.928C105.027 123.816 104.726 123.767 104.424 123.784C103.168 123.784 102.347 124.692 102.347 125.938C102.347 127.183 103.168 128.091 104.424 128.091C104.907 128.1 105.384 127.989 105.813 127.767V126.68H104.616V125.322H107.231L107.228 128.818Z" fill="white"/>
<path d="M108.523 122.607H109.996V125.098H112.859V122.607H114.332V129.288H112.859V126.402H109.996V129.288H108.523V122.607Z" fill="white"/>
<path d="M123.238 124.342C123.082 124.161 122.887 124.017 122.668 123.922C122.449 123.827 122.211 123.783 121.972 123.794C120.859 123.794 120.025 124.702 120.025 125.947C120.025 127.193 120.846 128.101 121.914 128.101C122.186 128.108 122.455 128.046 122.697 127.92C122.938 127.794 123.143 127.608 123.293 127.381L124.52 128.299C124.239 128.671 123.873 128.971 123.452 129.173C123.031 129.375 122.568 129.473 122.102 129.46C120.015 129.46 118.493 128.091 118.493 125.947C118.493 123.804 120.015 122.435 122.102 122.435C122.529 122.418 122.955 122.497 123.348 122.665C123.741 122.834 124.091 123.087 124.374 123.408L123.238 124.342Z" fill="white"/>
<path d="M125.506 122.607H126.98V129.288H125.506V122.607Z" fill="white"/>
<path d="M129.803 123.924H127.895V122.627H133.185V123.924H131.276V129.304H129.803V123.924Z" fill="white"/>
<path d="M135.953 126.437L133.435 122.607H135.265L136.683 125.108L138.186 122.607H139.925L137.413 126.437V129.288H135.94L135.953 126.437Z" fill="white"/>
<path d="M20.375 106.856L25.3989 104.122C25.4736 104.082 25.5603 104.07 25.6431 104.088C25.7259 104.107 25.7994 104.154 25.85 104.222C25.8939 104.279 25.9189 104.348 25.9214 104.42C25.9227 104.468 25.9145 104.515 25.8972 104.56C25.8799 104.604 25.8539 104.645 25.8208 104.679L21.7933 108.749C21.9101 108.947 22.0172 109.148 22.1178 109.353L30.3806 107.245C29.1148 103.971 26.963 101.113 24.1656 98.9911C22.9811 101.005 20.9916 104.381 19.8428 106.337C20.0278 106.502 20.203 106.677 20.375 106.856Z" fill="#0096D6"/>
<path d="M13.5239 100.162V103.609C13.9797 103.641 14.4329 103.703 14.8805 103.794L17.4313 98.6798C17.4698 98.6039 17.534 98.5442 17.6126 98.5115C17.6911 98.4788 17.7788 98.4752 17.8597 98.5014C17.9286 98.5237 17.9888 98.567 18.0318 98.6251C18.0749 98.6832 18.0987 98.7534 18.0999 98.8257C18.1014 98.8495 18.1014 98.8733 18.0999 98.8971C18.0999 98.8971 17.5222 102.289 17.1263 104.53C17.3437 104.631 17.5547 104.738 17.7753 104.855L23.325 98.3944C20.4179 96.3599 16.9624 95.253 13.4135 95.2194H11.2424H11.145C11.331 95.3731 11.5087 95.5366 11.6773 95.7091C12.2641 96.2926 12.7295 96.9866 13.0464 97.7508C13.3634 98.5151 13.5257 99.3346 13.5239 100.162Z" fill="#0096D6"/>
<path d="M31.6301 113.364C31.5711 111.618 31.2685 109.887 30.7311 108.224L22.9746 111.762C23.0298 112.009 23.0752 112.255 23.1109 112.508L28.8033 113.157C28.8865 113.168 28.9631 113.208 29.0194 113.27C29.0758 113.332 29.1082 113.412 29.1109 113.496C29.1136 113.58 29.0865 113.662 29.0343 113.727C28.9821 113.793 28.9083 113.838 28.8261 113.854L23.1856 114.879C23.1594 115.22 23.115 115.56 23.0525 115.897L30.9161 119.169C31.4232 117.277 31.6635 115.323 31.6301 113.364Z" fill="#0096D6"/>
<path d="M13.498 105.01V116.26L14.6112 115.044C14.9454 114.676 15.4102 114.451 15.907 114.419C16.4038 114.387 16.8935 114.55 17.2724 114.872L20.3458 117.467L21.5921 116.04C21.8818 114.775 21.8956 113.463 21.6327 112.193C21.3698 110.922 20.8363 109.723 20.0684 108.677C19.3005 107.631 18.3163 106.762 17.1825 106.13C16.0488 105.498 14.7922 105.117 13.498 105.013V105.01Z" fill="#FDB913"/>
<path d="M22.8835 117.305H22.8641C22.7706 117.271 22.6695 117.265 22.5728 117.288C22.4761 117.31 22.3879 117.36 22.3188 117.431C22.3188 117.431 20.9655 118.985 20.4787 119.494C19.8588 118.965 16.3636 116.007 16.3636 116.007C16.2622 115.921 16.1311 115.878 15.9983 115.887C15.8654 115.896 15.7414 115.957 15.6528 116.056L13.6309 118.265C13.5435 118.359 13.4949 118.483 13.4946 118.612V132.288C13.4944 132.371 13.5147 132.454 13.5537 132.528C13.5928 132.602 13.6494 132.665 13.7186 132.712C13.8062 132.772 13.9111 132.802 14.0171 132.797H14.0885C17.6992 132.541 21.1602 131.254 24.0592 129.088C26.9581 126.922 29.1726 123.969 30.4388 120.58L22.8835 117.305Z" fill="#4F2683"/>
<path d="M7.215 95.1935H2.59033C2.54631 95.1934 2.50273 95.2023 2.46226 95.2196C2.42179 95.2369 2.38527 95.2623 2.35491 95.2941C2.32455 95.326 2.30099 95.3637 2.28567 95.4049C2.27035 95.4461 2.26359 95.4901 2.26579 95.534V132.463C2.26565 132.551 2.29921 132.635 2.35957 132.699C2.41993 132.763 2.5025 132.802 2.59033 132.807H11.8429C11.9339 132.806 12.0209 132.769 12.0852 132.705C12.1496 132.641 12.1861 132.554 12.1869 132.463V100.162C12.1869 98.8442 11.6631 97.5804 10.7307 96.6487C9.79827 95.7169 8.53364 95.1935 7.215 95.1935ZM6.03693 120.356H4.26819V118.508H6.04667L6.03693 120.356ZM6.03693 115.573H4.26819V113.721H6.04667L6.03693 115.573ZM6.03693 110.786H4.26819V108.934H6.04667L6.03693 110.786ZM6.03693 105.999H4.26819V104.141H6.04667L6.03693 105.999ZM6.03693 101.258H4.26819V99.4062H6.04667L6.03693 101.258ZM10.1748 120.356H8.39633V118.508H10.1748V120.356ZM10.1748 115.573H8.39633V113.721H10.1748V115.573ZM10.1748 110.786H8.39633V108.934H10.1748V110.786ZM10.1748 105.999H8.39633V104.141H10.1748V105.999ZM10.1748 101.17H8.39633V99.3187H10.1748V101.17Z" fill="#BF311A"/>
</svg>