<?xml version="1.0" encoding="utf-8"?>
<!-- Generator: Adobe Illustrator 19.2.1, SVG Export Plug-In . SVG Version: 6.00 Build 0)  -->
<svg version="1.1" id="Layer_1" xmlns="http://www.w3.org/2000/svg" xmlns:xlink="http://www.w3.org/1999/xlink" x="0px" y="0px"
	 viewBox="0 0 441 107" style="enable-background:new 0 0 441 107;" xml:space="preserve">
<style type="text/css">
	.st0{fill:#939597;}
	.st1{fill:#186F8B;}
	.st2{fill:#73D5F5;}
</style>
<g>
	<g>
		<path class="st0" d="M108.7,44.1h-7.5l-0.4,2.6h7.1c0.7,0,1.3,0.1,1.7,0.2s0.6,0.4,0.7,0.8c0.1,0.4,0.1,1,0,1.8l-0.3,1.6
			c-0.1,0.8-0.3,1.3-0.6,1.7c-0.2,0.4-0.6,0.7-1,0.8c-0.4,0.2-1,0.2-1.7,0.2h-7c-0.7,0-1.3-0.1-1.7-0.2c-0.4-0.2-0.6-0.4-0.7-0.8
			c-0.1-0.4-0.1-1,0-1.7l0.1-0.3l2.4-0.5l-0.2,1.4h8.1l0.5-2.7h-7.1c-0.7,0-1.3-0.1-1.7-0.2c-0.4-0.2-0.6-0.4-0.7-0.9
			c-0.1-0.4-0.1-1,0-1.7l0.2-1.3c0.1-0.8,0.3-1.3,0.6-1.7c0.2-0.4,0.6-0.7,1-0.8c0.4-0.2,1-0.2,1.7-0.2h6.5c0.7,0,1.2,0.1,1.6,0.2
			c0.4,0.1,0.6,0.4,0.7,0.8c0.1,0.4,0.1,0.9,0,1.6l0,0.3l-2.4,0.6L108.7,44.1z"/>
		<path class="st0" d="M121.1,46l-1.4,8h-2.3l1.4-8h-4.5l0.3-1.8h11.3l-0.3,1.8H121.1z"/>
		<path class="st0" d="M128.3,46.5c0.1-0.6,0.3-1.1,0.5-1.4c0.2-0.3,0.5-0.6,0.8-0.7c0.4-0.1,0.9-0.2,1.5-0.2h7.2
			c0.6,0,1.1,0.1,1.4,0.2c0.3,0.1,0.5,0.4,0.6,0.7c0.1,0.3,0.1,0.8,0,1.4l-0.9,5.2c-0.1,0.6-0.3,1.1-0.5,1.4
			c-0.2,0.3-0.5,0.6-0.9,0.7c-0.4,0.1-0.9,0.2-1.5,0.2h-7.2c-0.6,0-1.1-0.1-1.4-0.2c-0.3-0.1-0.5-0.4-0.6-0.7
			c-0.1-0.3-0.1-0.8,0-1.4L128.3,46.5z M129.6,52.1h7.5l1-6.1h-7.5L129.6,52.1z"/>
		<path class="st0" d="M143,54l1.7-9.8h8.4c0.8,0,1.3,0.1,1.6,0.4c0.3,0.3,0.4,0.8,0.3,1.5l-0.4,2.3c-0.1,0.7-0.4,1.1-0.8,1.4
			c-0.4,0.3-1,0.4-1.7,0.4h-1.3l3.8,3.7h-3.3l-3.3-3.7h-2.1l-0.6,3.7H143z M151.8,45.9h-5.2l-0.5,2.7h5.2c0.4,0,0.6-0.1,0.8-0.2
			c0.2-0.1,0.3-0.3,0.3-0.6l0.2-1.1c0.1-0.3,0-0.5-0.1-0.6C152.4,46,152.2,45.9,151.8,45.9z"/>
		<path class="st0" d="M155.9,54l7.2-9.8h2.2l4,9.8h-2.6l-0.8-2.2h-6.2l-1.5,2.2H155.9z M161,50.1h4.3l-1.5-4.1L161,50.1z"/>
		<path class="st0" d="M182.1,46H175l-1,6.1h7.1l0.4-2.1h-3.7l0.3-1.7h5.9l-0.6,3.4c-0.1,0.6-0.3,1.1-0.5,1.4
			c-0.2,0.3-0.5,0.6-0.9,0.7c-0.4,0.1-0.9,0.2-1.5,0.2h-6.8c-0.6,0-1.1-0.1-1.4-0.2c-0.3-0.1-0.5-0.4-0.6-0.7
			c-0.1-0.3-0.1-0.8,0-1.4l0.9-5.2c0.1-0.6,0.3-1.1,0.5-1.4c0.2-0.3,0.5-0.6,0.9-0.7c0.4-0.1,0.9-0.2,1.5-0.2h6.8
			c0.6,0,1.1,0.1,1.4,0.2c0.3,0.1,0.5,0.3,0.6,0.7c0.1,0.3,0.1,0.8,0,1.4l0,0.3l-2.3,0.4L182.1,46z"/>
		<path class="st0" d="M186.9,54l1.7-9.8h10l-0.3,1.7h-7.7l-0.4,2.1h4.5l-0.3,1.7h-4.5l-0.4,2.4h7.8L197,54H186.9z"/>
		<path class="st0" d="M200.1,49.1l0.4-2.4h5.1l-0.4,2.4H200.1z"/>
		<path class="st0" d="M219.7,44.2h-7.1l-1.3,7.6h7.1l0.4-2.6l2.6,0.6l-0.2,1.4c-0.1,0.8-0.3,1.3-0.6,1.7c-0.2,0.4-0.6,0.7-1,0.8
			c-0.4,0.2-1,0.2-1.7,0.2H211c-0.7,0-1.3-0.1-1.6-0.2c-0.4-0.2-0.6-0.4-0.7-0.8c-0.1-0.4-0.1-1,0-1.7l1.1-6.3
			c0.1-0.8,0.3-1.3,0.6-1.7c0.2-0.4,0.6-0.7,1-0.8c0.4-0.2,1-0.2,1.7-0.2h6.8c0.7,0,1.3,0.1,1.7,0.2c0.4,0.2,0.6,0.4,0.7,0.8
			c0.1,0.4,0.1,1,0,1.7L222,46l-2.7,0.4L219.7,44.2z"/>
		<path class="st0" d="M225.3,54l1.7-9.8h10l-0.3,1.7H229l-0.4,2.1h4.5l-0.3,1.7h-4.5l-0.4,2.4h7.8l-0.3,1.8H225.3z"/>
		<path class="st0" d="M238.7,54l1.7-9.8h1.6l6.8,6.5l1.1-6.5h2l-1.7,9.8h-1.6l-6.8-6.6l-1.1,6.6H238.7z"/>
		<path class="st0" d="M261.4,46l-1.4,8h-2.3l1.4-8h-4.5l0.3-1.8h11.3l-0.3,1.8H261.4z"/>
		<path class="st0" d="M267.4,54l1.7-9.8h8.4c0.8,0,1.3,0.1,1.6,0.4c0.3,0.3,0.4,0.8,0.3,1.5l-0.4,2.3c-0.1,0.7-0.4,1.1-0.8,1.4
			c-0.4,0.3-1,0.4-1.7,0.4h-1.3L279,54h-3.3l-3.3-3.7h-2.1l-0.6,3.7H267.4z M276.3,45.9h-5.2l-0.5,2.7h5.2c0.4,0,0.6-0.1,0.8-0.2
			c0.2-0.1,0.3-0.3,0.3-0.6l0.2-1.1c0.1-0.3,0-0.5-0.1-0.6C276.9,46,276.7,45.9,276.3,45.9z"/>
		<path class="st0" d="M281.8,54l1.7-9.8h2.3l-1.7,9.8H281.8z"/>
		<path class="st0" d="M297.8,46h-6.1l-1,6.1h6.1l0.4-2.1l2.2,0.5l-0.2,1.2c-0.1,0.6-0.3,1.1-0.5,1.4c-0.2,0.3-0.5,0.6-0.9,0.7
			c-0.4,0.1-0.9,0.2-1.5,0.2h-5.8c-0.6,0-1.1-0.1-1.4-0.2c-0.3-0.1-0.5-0.4-0.6-0.7c-0.1-0.3-0.1-0.8,0-1.4l0.9-5.2
			c0.2-0.9,0.4-1.5,0.8-1.8c0.4-0.3,1.1-0.5,2-0.5h5.8c0.6,0,1.1,0.1,1.5,0.2c0.3,0.1,0.5,0.4,0.6,0.7c0.1,0.3,0.1,0.8,0,1.4
			l-0.2,0.9l-2.4,0.4L297.8,46z"/>
		<path class="st0" d="M323.4,44.1h-7.5l-0.4,2.6h7.1c0.7,0,1.3,0.1,1.7,0.2c0.4,0.2,0.6,0.4,0.7,0.8c0.1,0.4,0.1,1,0,1.8l-0.3,1.6
			c-0.1,0.8-0.3,1.3-0.6,1.7c-0.2,0.4-0.6,0.7-1,0.8c-0.4,0.2-1,0.2-1.7,0.2h-7c-0.7,0-1.3-0.1-1.7-0.2c-0.4-0.2-0.6-0.4-0.7-0.8
			c-0.1-0.4-0.1-1,0-1.7l0.1-0.3l2.4-0.5l-0.2,1.4h8.1l0.5-2.7h-7.1c-0.7,0-1.3-0.1-1.7-0.2s-0.6-0.4-0.7-0.9c-0.1-0.4-0.1-1,0-1.7
			l0.2-1.3c0.1-0.8,0.3-1.3,0.6-1.7c0.2-0.4,0.6-0.7,1-0.8c0.4-0.2,1-0.2,1.7-0.2h6.5c0.7,0,1.2,0.1,1.6,0.2
			c0.4,0.1,0.6,0.4,0.7,0.8c0.1,0.4,0.1,0.9,0,1.6l0,0.3l-2.4,0.6L323.4,44.1z"/>
		<path class="st0" d="M329.9,46.5c0.1-0.6,0.3-1.1,0.5-1.4c0.2-0.3,0.5-0.6,0.9-0.7c0.4-0.1,0.9-0.2,1.5-0.2h7.2
			c0.6,0,1.1,0.1,1.4,0.2c0.3,0.1,0.5,0.4,0.6,0.7c0.1,0.3,0.1,0.8,0,1.4l-0.9,5.2c-0.1,0.6-0.3,1.1-0.5,1.4
			c-0.2,0.3-0.5,0.6-0.9,0.7c-0.4,0.1-0.9,0.2-1.5,0.2h-7.2c-0.6,0-1.1-0.1-1.4-0.2c-0.3-0.1-0.5-0.4-0.6-0.7
			c-0.1-0.3-0.1-0.8,0-1.4L329.9,46.5z M331.2,52.1h7.5l1-6.1h-7.5L331.2,52.1z"/>
		<path class="st0" d="M344.7,54l1.7-9.8h2.3l-1.4,8h7.3l-0.3,1.8H344.7z"/>
		<path class="st0" d="M360.8,44.2l-1.4,8h6.5l1.4-8h2.3l-1.3,7.5c-0.1,0.6-0.3,1.1-0.5,1.4c-0.2,0.3-0.5,0.6-0.9,0.7
			c-0.4,0.1-0.9,0.2-1.5,0.2h-6.2c-0.6,0-1.1-0.1-1.4-0.2c-0.3-0.1-0.5-0.4-0.6-0.7c-0.1-0.3-0.1-0.8,0-1.4l1.3-7.5H360.8z"/>
		<path class="st0" d="M379,46l-1.4,8h-2.3l1.4-8h-4.5l0.3-1.8h11.3l-0.3,1.8H379z"/>
		<path class="st0" d="M385.1,54l1.7-9.8h2.3l-1.7,9.8H385.1z"/>
		<path class="st0" d="M392.6,46.5c0.1-0.6,0.3-1.1,0.5-1.4c0.2-0.3,0.5-0.6,0.9-0.7c0.4-0.1,0.9-0.2,1.5-0.2h7.2
			c0.6,0,1.1,0.1,1.4,0.2c0.3,0.1,0.5,0.4,0.6,0.7c0.1,0.3,0.1,0.8,0,1.4l-0.9,5.2c-0.1,0.6-0.3,1.1-0.5,1.4
			c-0.2,0.3-0.5,0.6-0.9,0.7c-0.4,0.1-0.9,0.2-1.5,0.2h-7.2c-0.6,0-1.1-0.1-1.4-0.2c-0.3-0.1-0.5-0.4-0.6-0.7
			c-0.1-0.3-0.1-0.8,0-1.4L392.6,46.5z M393.9,52.1h7.5l1-6.1h-7.5L393.9,52.1z"/>
		<path class="st0" d="M407.3,54l1.7-9.8h1.6l6.8,6.5l1.1-6.5h2l-1.7,9.8h-1.6l-6.8-6.6l-1.1,6.6H407.3z"/>
		<path class="st0" d="M433,46h-6.4l-0.3,2h6.1c0.9,0,1.5,0.2,1.8,0.5c0.3,0.3,0.4,0.9,0.2,1.8l-0.2,1.4c-0.1,0.6-0.3,1.1-0.5,1.4
			c-0.2,0.3-0.5,0.6-0.9,0.7c-0.4,0.1-0.9,0.2-1.5,0.2h-6.1c-0.6,0-1.1-0.1-1.4-0.2c-0.3-0.1-0.5-0.4-0.6-0.7
			c-0.1-0.3-0.1-0.8,0-1.4l0-0.3l2.1-0.4l-0.2,1.1h6.9l0.4-2.3h-6.1c-0.6,0-1.1-0.1-1.4-0.2c-0.3-0.1-0.5-0.4-0.6-0.7
			c-0.1-0.3-0.1-0.8,0-1.4l0.2-1.1c0.1-0.6,0.3-1.1,0.5-1.4c0.2-0.3,0.5-0.6,0.9-0.7c0.4-0.1,0.9-0.2,1.5-0.2h5.5
			c0.9,0,1.5,0.1,1.8,0.4c0.3,0.3,0.4,0.9,0.3,1.7l0,0.2l-2,0.4L433,46z"/>
	</g>
	<g>
		<path class="st1" d="M21.3,18.2l-5.2,14l17.9,2c14.6,1.2,23.2-20.6,6.4-21.9c-5.7-0.4-17.1-0.4-17.1-0.4l-1,3.3l14,0.3
			c11.4,0.1,7.5,15-3.5,14.3C26.3,29.4,22.4,29,22.4,29l3.6-10.5L21.3,18.2z"/>
		<path class="st1" d="M78.5,11c-1.8,0-3.3,0.7-4,1.8l-8.3,0L68.4,0L16.6,1.9L0,42.8L60,55l1.8-13.4l8.8,1.2
			c0.4,1.8,2.4,3.2,4.8,3.2c2.7,0,4.9-1.8,4.9-4c0-2.2-2.2-4-4.9-4c-1.8,0-3.3,0.8-4.1,1.9L58.7,38l-2.1,12.9L3.1,40.5L17.8,3.6
			l47-1.3l-2.4,13.2h11.9c0.7,1.2,2.3,2.1,4.2,2.1c2.5,0,4.5-1.5,4.5-3.3C83.1,12.5,81,11,78.5,11"/>
		<path class="st1" d="M77.1,23.9c-1.6,0-3,0.6-3.9,1.5L53.6,24l-4,18.1L10.6,36L21,8.1l27.3-0.4c0,0,0,0,0,0c0.3,1.3,2.1,2,4,1.4
			c1.9-0.6,3.1-2.1,2.8-3.4c-0.3-1.3-2.1-2-4-1.4c-1,0.3-1.8,0.9-2.3,1.6L19.6,6.2L7.1,38.3l45.5,7.6L56.5,27l16,1.1
			c0.4,1.6,2.3,2.8,4.6,2.8c2.6,0,4.7-1.5,4.7-3.5C81.8,25.5,79.7,23.9,77.1,23.9"/>
	</g>
	<rect x="147.7" y="3.7" class="st1" width="7.9" height="31.2"/>
	<path class="st1" d="M197.8,9.1h-22.4v6.7h21.3c2.2,0,3.9,0.2,5.1,0.6c1.2,0.4,2.1,1.1,2.6,2.2c0.5,1.1,0.8,2.6,0.8,4.6v4.3
		c0,2-0.3,3.5-0.8,4.6c-0.5,1.1-1.4,1.8-2.6,2.2c-1.2,0.4-2.9,0.6-5.1,0.6h-21.1c-2.2,0-3.9-0.2-5.1-0.6c-1.2-0.4-2.1-1.1-2.6-2.2
		c-0.5-1.1-0.8-2.6-0.8-4.6v-0.8l7-1.4V29h24.1v-7.1h-21.3c-2.2,0-3.9-0.2-5.1-0.6c-1.2-0.4-2.1-1.2-2.6-2.2
		c-0.5-1.1-0.8-2.6-0.8-4.5v-3.5c0-2,0.3-3.5,0.8-4.6c0.5-1.1,1.4-1.8,2.6-2.2c1.2-0.4,2.9-0.6,5.1-0.6h19.4c2.1,0,3.8,0.2,5,0.6
		c1.2,0.4,2.1,1.1,2.6,2.1c0.6,1,0.9,2.4,0.9,4.2v0.7l-7,1.5V9.1z"/>
	<path class="st1" d="M245.2,9.2h-21.4V29h21.4v-6.7l7.9,1.5v3.7c0,2-0.3,3.5-0.8,4.5c-0.5,1-1.4,1.8-2.6,2.2
		c-1.2,0.4-2.9,0.6-5.1,0.6h-20.4c-2.2,0-3.8-0.2-5.1-0.6c-1.2-0.4-2.1-1.1-2.6-2.2c-0.5-1.1-0.8-2.6-0.8-4.6V11.1
		c0-2,0.3-3.5,0.8-4.6c0.5-1.1,1.4-1.8,2.6-2.2c1.2-0.4,2.9-0.6,5.1-0.6h20.4c2.2,0,3.9,0.2,5.1,0.6c1.2,0.4,2.1,1.2,2.6,2.2
		c0.5,1,0.8,2.6,0.8,4.6v3l-7.9,1.1V9.2z"/>
	<polygon class="st0" points="301.5,34.9 301.5,3.7 336.4,3.7 336.4,9 309.4,9 309.4,16 325.2,16 325.2,21.3 309.4,21.3 309.4,29 
		336.7,29 336.7,34.9 	"/>
	<path class="st0" d="M375.2,9.2h-21.4V29h21.4v-6.7l7.9,1.5v3.7c0,2-0.3,3.5-0.8,4.5c-0.5,1-1.4,1.8-2.6,2.2
		c-1.2,0.4-2.9,0.6-5.1,0.6h-20.4c-2.2,0-3.8-0.2-5.1-0.6c-1.2-0.4-2.1-1.1-2.6-2.2c-0.5-1.1-0.8-2.6-0.8-4.6V11.1
		c0-2,0.3-3.5,0.8-4.6c0.5-1.1,1.4-1.8,2.6-2.2c1.2-0.4,2.9-0.6,5.1-0.6h20.4c2.2,0,3.9,0.2,5.1,0.6c1.2,0.4,2.1,1.2,2.6,2.2
		c0.5,1,0.8,2.6,0.8,4.6v3l-7.9,1.1V9.2z"/>
	<polygon class="st0" points="394.2,34.9 394.2,3.7 402.1,3.7 402.1,15.8 426.9,15.8 426.9,3.7 435,3.7 435,34.9 426.9,34.9 
		426.9,21.5 402.1,21.5 402.1,34.9 	"/>
	<path class="st1" d="M135.5,10.8c-1.5-2.3-3.7-4.1-6.6-5.3c-2.9-1.2-6.5-1.8-10.7-1.8h-22v5.6h7.9v0h14.1c3.7,0,6.5,0.8,8.4,2.5
		c1.9,1.6,2.8,4.1,2.8,7.3c0,2.6-0.5,4.6-1.6,6c-1.1,1.5-2.7,2.5-5,3.1c-2.2,0.6-5,0.9-8.5,0.9h-10.3V14h-7.9v20.9h19.9
		c2.1,0,4-0.1,5.8-0.2c1.7-0.1,3.2-0.4,4.6-0.8c1.4-0.4,2.6-0.8,3.7-1.4c1.6-0.9,3-2.1,4.1-3.4c1.1-1.3,1.9-2.8,2.6-4.5
		c0.6-1.7,0.9-3.5,0.9-5.5C137.7,15.9,137,13.1,135.5,10.8"/>
	<rect x="272.7" y="13.1" class="st0" width="7.9" height="21.8"/>
	<polygon class="st0" points="257,3.7 257,9.2 272.7,9.2 272.7,9.3 280.7,9.3 280.7,9.2 296.4,9.2 296.4,3.7 	"/>
</g>
<!-- <g>
	<path class="st2" d="M300.1,72.3l-2.9,7.9l10.1,1.1c8.3,0.7,13.1-11.7,3.6-12.4c-3.2-0.3-9.7-0.2-9.7-0.2l-0.6,1.9l7.9,0.1
		c6.4,0.1,4.2,8.5-2,8.1c-3.7-0.2-5.9-0.5-5.9-0.5l2-5.9L300.1,72.3z"/>
	<path class="st2" d="M332.4,68.2c-1,0-1.8,0.4-2.3,1l-4.7,0l1.2-7.2l-29.3,1.1L288,86.2l34,6.9l1-7.6l5,0.7c0.3,1,1.4,1.8,2.7,1.8
		c1.5,0,2.8-1,2.8-2.3c0-1.3-1.2-2.3-2.8-2.3c-1,0-1.9,0.4-2.3,1.1l-7.2-1.1l-1.2,7.3l-30.3-5.9l8.3-20.9l26.6-0.7l-1.3,7.5h6.7
		c0.4,0.7,1.3,1.2,2.4,1.2c1.4,0,2.6-0.8,2.6-1.9C335,69.1,333.8,68.2,332.4,68.2"/>
	<path class="st2" d="M331.6,75.5c-0.9,0-1.7,0.3-2.2,0.9l-11.1-0.8l-2.3,10.2L294,82.4l5.9-15.8l15.5-0.2c0,0,0,0,0,0
		c0.2,0.8,1.2,1.1,2.3,0.8c1.1-0.3,1.8-1.2,1.6-1.9c-0.2-0.8-1.2-1.1-2.3-0.8c-0.6,0.2-1,0.5-1.3,0.9l-16.5,0.2L292,83.7l25.8,4.3
		l2.2-10.7l9,0.6c0.2,0.9,1.3,1.6,2.6,1.6c1.5,0,2.6-0.9,2.6-2C334.3,76.4,333.1,75.5,331.6,75.5"/>
</g>
<text transform="matrix(1 0 0 1 600 600)" style="font-family:'MyriadPro-Regular'; font-size:12px;">939597</text>
<g>
	<g>
		<path class="st0" d="M10.4,95.8H4.2L3.8,98h5.9c0.6,0,1.1,0.1,1.4,0.2s0.5,0.4,0.6,0.7c0.1,0.3,0.1,0.8,0,1.5l-0.2,1.4
			c-0.1,0.6-0.3,1.1-0.5,1.5c-0.2,0.3-0.5,0.6-0.9,0.7c-0.4,0.1-0.9,0.2-1.5,0.2H2.8c-0.6,0-1.1-0.1-1.4-0.2
			c-0.3-0.1-0.5-0.4-0.6-0.7c-0.1-0.3-0.1-0.8,0-1.5l0-0.3l2-0.4l-0.2,1.2h6.7l0.4-2.3H3.9c-0.6,0-1.1-0.1-1.4-0.2S2,99.3,1.9,99
			c-0.1-0.3-0.1-0.8,0-1.4l0.2-1.1c0.1-0.6,0.3-1.1,0.5-1.5c0.2-0.3,0.5-0.6,0.8-0.7c0.4-0.1,0.8-0.2,1.4-0.2h5.4
			c0.6,0,1,0.1,1.4,0.2c0.3,0.1,0.5,0.3,0.6,0.7c0.1,0.3,0.1,0.8,0,1.3l0,0.2l-2,0.5L10.4,95.8z"/>
		<path class="st0" d="M20.8,97.4l-1.1,6.7h-1.9l1.1-6.7h-3.8l0.3-1.5h9.4l-0.3,1.5H20.8z"/>
		<path class="st0" d="M26.8,97.8c0.1-0.5,0.2-0.9,0.4-1.2c0.2-0.3,0.4-0.5,0.7-0.6c0.3-0.1,0.7-0.2,1.3-0.2h6
			c0.5,0,0.9,0.1,1.2,0.2c0.3,0.1,0.4,0.3,0.5,0.6c0.1,0.3,0.1,0.7,0,1.2l-0.7,4.3c-0.1,0.5-0.2,0.9-0.4,1.2
			c-0.2,0.3-0.4,0.5-0.7,0.6c-0.3,0.1-0.7,0.2-1.2,0.2h-6c-0.5,0-0.9-0.1-1.2-0.2c-0.3-0.1-0.4-0.3-0.5-0.6c-0.1-0.3-0.1-0.7,0-1.2
			L26.8,97.8z M27.9,102.5h6.3l0.9-5.1h-6.3L27.9,102.5z"/>
		<path class="st0" d="M39.1,104.1l1.4-8.2h7c0.6,0,1.1,0.1,1.3,0.4c0.3,0.2,0.3,0.7,0.2,1.2l-0.3,1.9c-0.1,0.6-0.3,0.9-0.7,1.2
			c-0.3,0.2-0.8,0.4-1.4,0.4h-1.1l3.2,3.1H46l-2.7-3.1h-1.8l-0.5,3.1H39.1z M46.4,97.3h-4.3l-0.4,2.3h4.3c0.3,0,0.5,0,0.7-0.1
			c0.1-0.1,0.2-0.3,0.3-0.5l0.2-0.9c0-0.3,0-0.4-0.1-0.5C47,97.3,46.8,97.3,46.4,97.3z"/>
		<path class="st0" d="M49.9,104.1l6-8.2h1.8l3.3,8.2h-2.1l-0.7-1.8h-5.2l-1.3,1.8H49.9z M54.1,100.8h3.6l-1.2-3.4L54.1,100.8z"/>
		<path class="st0" d="M71.8,97.4h-5.9l-0.9,5.1h5.9l0.3-1.7h-3.1l0.2-1.4h5l-0.5,2.8c-0.1,0.5-0.2,0.9-0.4,1.2
			c-0.2,0.3-0.4,0.5-0.7,0.6c-0.3,0.1-0.7,0.2-1.3,0.2h-5.6c-0.5,0-0.9-0.1-1.2-0.2c-0.3-0.1-0.4-0.3-0.5-0.6
			c-0.1-0.3-0.1-0.7,0-1.2l0.7-4.3c0.1-0.5,0.2-0.9,0.4-1.2c0.2-0.3,0.4-0.5,0.7-0.6c0.3-0.1,0.7-0.2,1.3-0.2h5.6
			c0.5,0,0.9,0.1,1.2,0.1c0.3,0.1,0.4,0.3,0.5,0.6c0.1,0.3,0.1,0.6,0,1.1l0,0.2l-1.9,0.3L71.8,97.4z"/>
		<path class="st0" d="M75.7,104.1l1.4-8.2h8.4l-0.2,1.5h-6.4l-0.3,1.8h3.8l-0.2,1.4h-3.8l-0.3,2h6.5l-0.3,1.5H75.7z"/>
		<path class="st0" d="M86.8,99.9l0.3-2h4.3l-0.3,2H86.8z"/>
		<path class="st0" d="M103.1,95.8h-6l-1.1,6.3h6l0.4-2.1l2.1,0.5l-0.2,1.2c-0.1,0.6-0.3,1.1-0.5,1.5c-0.2,0.3-0.5,0.6-0.8,0.7
			c-0.4,0.1-0.8,0.2-1.5,0.2h-5.7c-0.6,0-1.1-0.1-1.4-0.2c-0.3-0.1-0.5-0.4-0.6-0.7c-0.1-0.3-0.1-0.8,0-1.5l0.9-5.3
			c0.1-0.6,0.3-1.1,0.5-1.5c0.2-0.3,0.5-0.6,0.8-0.7c0.4-0.1,0.8-0.2,1.4-0.2h5.7c0.6,0,1.1,0.1,1.4,0.2c0.3,0.1,0.5,0.4,0.6,0.7
			c0.1,0.3,0.1,0.8,0,1.5l-0.2,1l-2.3,0.4L103.1,95.8z"/>
		<path class="st0" d="M107.8,104.1l1.4-8.2h8.4l-0.3,1.5h-6.4l-0.3,1.8h3.8l-0.2,1.4h-3.8l-0.3,2h6.5l-0.3,1.5H107.8z"/>
		<path class="st0" d="M119,104.1l1.4-8.2h1.3l5.7,5.4l0.9-5.4h1.7l-1.4,8.2h-1.3l-5.7-5.5l-0.9,5.5H119z"/>
		<path class="st0" d="M138,97.4l-1.1,6.7h-1.9l1.1-6.7h-3.8l0.3-1.5h9.4l-0.3,1.5H138z"/>
		<path class="st0" d="M143,104.1l1.4-8.2h7c0.6,0,1.1,0.1,1.3,0.4s0.3,0.7,0.2,1.2l-0.3,1.9c-0.1,0.6-0.3,0.9-0.7,1.2
			c-0.3,0.2-0.8,0.4-1.4,0.4h-1.1l3.2,3.1H150l-2.7-3.1h-1.8l-0.5,3.1H143z M150.4,97.3h-4.3l-0.4,2.3h4.3c0.3,0,0.5,0,0.7-0.1
			c0.1-0.1,0.2-0.3,0.3-0.5l0.2-0.9c0-0.3,0-0.4-0.1-0.5C150.9,97.3,150.7,97.3,150.4,97.3z"/>
		<path class="st0" d="M155,104.1l1.4-8.2h1.9l-1.4,8.2H155z"/>
		<path class="st0" d="M168.4,97.4h-5.1l-0.9,5.1h5.1l0.3-1.7l1.8,0.4l-0.2,1c-0.1,0.5-0.2,0.9-0.4,1.2c-0.2,0.3-0.4,0.5-0.7,0.6
			c-0.3,0.1-0.7,0.2-1.3,0.2h-4.9c-0.5,0-0.9-0.1-1.2-0.2c-0.3-0.1-0.4-0.3-0.5-0.6s-0.1-0.7,0-1.2l0.7-4.3c0.1-0.8,0.4-1.3,0.7-1.5
			c0.3-0.3,0.9-0.4,1.7-0.4h4.9c0.5,0,0.9,0.1,1.2,0.2c0.3,0.1,0.4,0.3,0.5,0.6c0.1,0.3,0.1,0.7,0,1.2l-0.1,0.8l-2,0.3L168.4,97.4z"
			/>
		<path class="st0" d="M189.8,95.8h-6.2l-0.4,2.2h5.9c0.6,0,1.1,0.1,1.4,0.2c0.3,0.1,0.5,0.4,0.6,0.7c0.1,0.3,0.1,0.8,0,1.5
			l-0.2,1.4c-0.1,0.6-0.3,1.1-0.5,1.5c-0.2,0.3-0.5,0.6-0.9,0.7c-0.4,0.1-0.9,0.2-1.5,0.2h-5.9c-0.6,0-1.1-0.1-1.4-0.2
			c-0.3-0.1-0.5-0.4-0.6-0.7c-0.1-0.3-0.1-0.8,0-1.5l0-0.3l2-0.4l-0.2,1.2h6.7l0.4-2.3h-5.9c-0.6,0-1.1-0.1-1.4-0.2
			s-0.5-0.4-0.6-0.7c-0.1-0.3-0.1-0.8,0-1.4l0.2-1.1c0.1-0.6,0.3-1.1,0.5-1.5c0.2-0.3,0.5-0.6,0.8-0.7c0.4-0.1,0.8-0.2,1.4-0.2h5.4
			c0.6,0,1,0.1,1.4,0.2c0.3,0.1,0.5,0.3,0.6,0.7c0.1,0.3,0.1,0.8,0,1.3l0,0.2l-2,0.5L189.8,95.8z"/>
		<path class="st0" d="M195.2,97.8c0.1-0.5,0.2-0.9,0.4-1.2c0.2-0.3,0.4-0.5,0.7-0.6c0.3-0.1,0.7-0.2,1.3-0.2h6
			c0.5,0,0.9,0.1,1.2,0.2c0.3,0.1,0.4,0.3,0.5,0.6c0.1,0.3,0.1,0.7,0,1.2l-0.7,4.3c-0.1,0.5-0.2,0.9-0.4,1.2
			c-0.2,0.3-0.4,0.5-0.7,0.6c-0.3,0.1-0.7,0.2-1.2,0.2h-6c-0.5,0-0.9-0.1-1.2-0.2c-0.3-0.1-0.4-0.3-0.5-0.6c-0.1-0.3-0.1-0.7,0-1.2
			L195.2,97.8z M196.3,102.5h6.3l0.9-5.1h-6.3L196.3,102.5z"/>
		<path class="st0" d="M207.5,104.1l1.4-8.2h1.9l-1.1,6.7h6.1l-0.3,1.5H207.5z"/>
		<path class="st0" d="M221,95.9l-1.1,6.7h5.4l1.1-6.7h1.9l-1.1,6.2c-0.1,0.5-0.2,0.9-0.4,1.2c-0.2,0.3-0.4,0.5-0.7,0.6
			c-0.3,0.1-0.7,0.2-1.3,0.2h-5.2c-0.5,0-0.9-0.1-1.2-0.2c-0.3-0.1-0.5-0.3-0.5-0.6c-0.1-0.3-0.1-0.7,0-1.2l1.1-6.2H221z"/>
		<path class="st0" d="M236.2,97.4l-1.1,6.7h-1.9l1.1-6.7h-3.8l0.3-1.5h9.4l-0.3,1.5H236.2z"/>
		<path class="st0" d="M241.3,104.1l1.4-8.2h1.9l-1.4,8.2H241.3z"/>
		<path class="st0" d="M247.6,97.8c0.1-0.5,0.2-0.9,0.4-1.2c0.2-0.3,0.4-0.5,0.7-0.6c0.3-0.1,0.7-0.2,1.3-0.2h6
			c0.5,0,0.9,0.1,1.2,0.2c0.3,0.1,0.4,0.3,0.5,0.6c0.1,0.3,0.1,0.7,0,1.2l-0.7,4.3c-0.1,0.5-0.2,0.9-0.4,1.2
			c-0.2,0.3-0.4,0.5-0.7,0.6c-0.3,0.1-0.7,0.2-1.2,0.2h-6c-0.5,0-0.9-0.1-1.2-0.2c-0.3-0.1-0.4-0.3-0.5-0.6c-0.1-0.3-0.1-0.7,0-1.2
			L247.6,97.8z M248.7,102.5h6.3l0.9-5.1h-6.3L248.7,102.5z"/>
		<path class="st0" d="M259.9,104.1l1.4-8.2h1.3l5.7,5.4l0.9-5.4h1.7l-1.4,8.2h-1.3l-5.7-5.5l-0.9,5.5H259.9z"/>
		<path class="st0" d="M281.4,97.4H276l-0.3,1.7h5.1c0.8,0,1.3,0.1,1.5,0.4c0.2,0.3,0.3,0.8,0.2,1.5l-0.2,1.1
			c-0.1,0.5-0.2,0.9-0.4,1.2c-0.2,0.3-0.4,0.5-0.7,0.6c-0.3,0.1-0.7,0.2-1.3,0.2h-5.1c-0.5,0-0.9-0.1-1.2-0.2
			c-0.3-0.1-0.5-0.3-0.5-0.6c-0.1-0.3-0.1-0.7,0-1.2l0-0.2l1.8-0.3l-0.2,1h5.7l0.3-1.9h-5.1c-0.5,0-0.9-0.1-1.2-0.2
			c-0.3-0.1-0.5-0.3-0.5-0.6c-0.1-0.3-0.1-0.7,0-1.2l0.2-0.9c0.1-0.5,0.2-0.9,0.4-1.2c0.2-0.3,0.4-0.5,0.7-0.6
			c0.3-0.1,0.7-0.2,1.3-0.2h4.6c0.8,0,1.3,0.1,1.5,0.4c0.3,0.2,0.3,0.7,0.2,1.4l0,0.2l-1.7,0.4L281.4,97.4z"/>
	</g>
	<rect x="43" y="62" class="st1" width="6.6" height="26.1"/>
	<path class="st1" d="M84.8,66.5H66.2v5.6h17.8c1.8,0,3.2,0.2,4.3,0.5c1,0.3,1.8,1,2.2,1.8c0.4,0.9,0.7,2.2,0.7,3.8v3.6
		c0,1.7-0.2,2.9-0.7,3.8c-0.4,0.9-1.2,1.5-2.2,1.8c-1,0.3-2.5,0.5-4.3,0.5H66.3c-1.8,0-3.2-0.2-4.3-0.5c-1-0.3-1.8-1-2.2-1.8
		c-0.4-0.9-0.7-2.2-0.7-3.8v-0.7l5.9-1.1v3.1h20.2v-5.9H67.4c-1.8,0-3.2-0.2-4.3-0.5c-1-0.3-1.7-1-2.2-1.9c-0.4-0.9-0.6-2.1-0.6-3.8
		v-2.9c0-1.7,0.2-2.9,0.7-3.8c0.4-0.9,1.2-1.5,2.2-1.8c1-0.3,2.4-0.5,4.2-0.5h16.2c1.8,0,3.1,0.2,4.1,0.5c1,0.3,1.7,0.9,2.2,1.7
		c0.5,0.8,0.7,2,0.7,3.5v0.6l-5.9,1.2V66.5z"/>
	<path class="st1" d="M124.5,66.6h-17.9v16.5h17.9v-5.6l6.6,1.2v3.1c0,1.7-0.2,2.9-0.6,3.8c-0.4,0.9-1.2,1.5-2.2,1.8
		c-1,0.4-2.4,0.5-4.3,0.5h-17c-1.8,0-3.2-0.2-4.2-0.5c-1-0.3-1.7-1-2.2-1.8c-0.4-0.9-0.7-2.2-0.7-3.8V68.2c0-1.7,0.2-2.9,0.7-3.8
		c0.4-0.9,1.2-1.5,2.2-1.8c1-0.3,2.4-0.5,4.2-0.5h17c1.8,0,3.2,0.2,4.3,0.5c1,0.4,1.7,1,2.2,1.8c0.4,0.9,0.6,2.1,0.6,3.8v2.5l-6.6,1
		V66.6z"/>
	<polygon class="st0" points="171.4,88.1 171.4,62 200.7,62 200.7,66.4 178.1,66.4 178.1,72.3 191.3,72.3 191.3,76.7 178.1,76.7 
		178.1,83.2 200.9,83.2 200.9,88.1 	"/>
	<path class="st0" d="M233,66.6h-17.9v16.5H233v-5.6l6.6,1.2v3.1c0,1.7-0.2,2.9-0.6,3.8c-0.4,0.9-1.2,1.5-2.2,1.8
		c-1,0.4-2.4,0.5-4.3,0.5h-17c-1.8,0-3.2-0.2-4.2-0.5c-1-0.3-1.7-1-2.2-1.8c-0.4-0.9-0.7-2.2-0.7-3.8V68.2c0-1.7,0.2-2.9,0.7-3.8
		c0.4-0.9,1.2-1.5,2.2-1.8c1-0.3,2.4-0.5,4.2-0.5h17c1.8,0,3.2,0.2,4.3,0.5c1,0.4,1.7,1,2.2,1.8c0.4,0.9,0.6,2.1,0.6,3.8v2.5l-6.6,1
		V66.6z"/>
	<polygon class="st0" points="248.9,88.1 248.9,62 255.5,62 255.5,72.1 276.3,72.1 276.3,62 283,62 283,88.1 276.3,88.1 276.3,76.9 
		255.5,76.9 255.5,88.1 	"/>
	<path class="st1" d="M32.8,68c-1.2-1.9-3.1-3.4-5.5-4.4c-2.4-1-5.4-1.5-8.9-1.5H0v4.7h6.6v0h11.8c3.1,0,5.5,0.7,7,2.1
		c1.6,1.4,2.4,3.4,2.4,6.1c0,2.1-0.5,3.8-1.4,5c-0.9,1.2-2.3,2.1-4.1,2.6c-1.9,0.5-4.2,0.8-7.1,0.8H6.6V70.6H0v17.5h16.7
		c1.8,0,3.4-0.1,4.8-0.2c1.4-0.1,2.7-0.3,3.9-0.6c1.2-0.3,2.2-0.7,3-1.2c1.3-0.8,2.5-1.7,3.4-2.8c0.9-1.1,1.6-2.4,2.1-3.8
		c0.5-1.4,0.8-3,0.8-4.6C34.7,72.2,34,69.9,32.8,68"/>
	<rect x="147.4" y="69.9" class="st0" width="6.6" height="18.2"/>
	<polygon class="st0" points="134.3,62 134.3,66.6 147.4,66.6 147.4,66.7 154.1,66.7 154.1,66.6 167.2,66.6 167.2,62 	"/>
</g> -->
</svg>
